<?xml version="1.0" encoding="utf-8"?>
<!-- Generator: Adobe Illustrator 22.1.0, SVG Export Plug-In . SVG Version: 6.00 Build 0)  -->
<svg version="1.1" id="Layer_1" xmlns="http://www.w3.org/2000/svg" xmlns:xlink="http://www.w3.org/1999/xlink" x="0px" y="0px"
	 viewBox="0 0 24 24" style="enable-background:new 0 0 24 24;" xml:space="preserve">
<style type="text/css">
	.st0{fill:#00A6CE;}
</style>
<title>printer/dark</title>
<desc>Created with Sketch.</desc>
<path class="st0" d="M22.1,7.3h-0.5h-7.3l1-0.4L21.6,4l0.8-0.4c0.5-0.2,0.7-0.7,0.4-1.2c-0.2-0.4-0.8-0.6-1.2-0.4l-0.1,0L11.5,6.5
	l-0.5,0.2V2.9c0-0.5-0.4-0.9-0.9-0.9H2.4H1.9C1.4,2,1,2.4,1,2.9v4.3v1v5.2v1v0.3v2.1v1v1.7v1v1.7C1,22.6,1.4,23,1.9,23
	c0.2,0,0.3-0.1,0.5-0.1c0.3-0.2,0.5-0.4,0.5-0.7v-1.3v-0.4h0.5h17.4h0.5v0.4v1.3c0,0.3,0.2,0.6,0.5,0.7c0.1,0.1,0.3,0.1,0.5,0.1
	c0.5,0,0.9-0.4,0.9-0.9v-1.7v-1v-1.7v-1v-2.1V8.1C23,7.6,22.6,7.3,22.1,7.3z"/>
</svg>
