<?xml version="1.0" encoding="utf-8"?>
<!-- Generator: Adobe Illustrator 21.0.2, SVG Export Plug-In . SVG Version: 6.00 Build 0)  -->
<svg version="1.1" id="Layer_1" xmlns="http://www.w3.org/2000/svg" xmlns:xlink="http://www.w3.org/1999/xlink" x="0px" y="0px"
	 width="152.6px" height="191.4px" viewBox="0 0 152.6 191.4" style="enable-background:new 0 0 152.6 191.4;" xml:space="preserve"
	>
<circle cx="2958.4" cy="3200.1" r="72.5"/>
<g>
	<path d="M129.1,95.1c0-0.1,0.9-14.4,0.9-29c0-8.6-0.2-15.7-0.8-21c-0.7-6.7-1.8-10.6-3.4-11.8c-3.7-2.7-5.7-7.2-5-11.3
		c0.7-3.8,3.6-6.6,8.1-7.9c2.5-0.7,4.5-1.9,5.9-3.5c1.1-1.3,1.9-2.9,2.3-4.7c0.7-3.1,0-5.9,0-5.9l0,0H77v95.1L129.1,95.1L129.1,95.1
		z"/>
	<path d="M15.5,0c0,0-0.7,2.8,0,5.9c0.4,1.8,1.2,3.4,2.3,4.7c1.4,1.6,3.4,2.8,5.9,3.5c4.6,1.3,7.4,4.1,8.1,7.9c0.7,4-1.3,8.6-5,11.3
		c-1.6,1.1-2.7,5.1-3.4,11.8c-0.6,5.3-0.8,12.4-0.8,21c0,14.7,0.9,28.9,0.9,29l0,0h52.1V0L15.5,0L15.5,0z"/>
	<path d="M23.6,96.3c0,0.1-0.9,14.4-0.9,29c0,8.6,0.2,15.7,0.8,21c0.7,6.7,1.8,10.6,3.4,11.8c3.7,2.7,5.7,7.2,5,11.3
		c-0.7,3.8-3.6,6.6-8.1,7.9c-2.5,0.7-4.5,1.9-5.9,3.5c-1.1,1.3-1.9,2.9-2.3,4.7c-0.7,3.1,0,5.9,0,5.9l0,0h60.2V96.2L23.6,96.3
		L23.6,96.3z"/>
	<path d="M134.9,180.7c-1.4-1.6-3.4-2.8-5.9-3.5c-4.6-1.3-7.4-4.1-8.1-7.9c-0.7-4,1.3-8.6,5-11.3c1.6-1.1,2.7-5.1,3.4-11.8
		c0.6-5.3,0.8-12.4,0.8-21c0-14.7-0.9-28.9-0.9-29l0,0H77v95.1h60.2l0,0c0,0,0.7-2.8,0-5.9C136.8,183.6,136,182,134.9,180.7z"/>
	<circle cx="141.6" cy="27.6" r="11"/>
	<circle cx="12.8" cy="27.6" r="11"/>
	<circle cx="11" cy="164.9" r="11"/>
	<circle cx="141.6" cy="167.7" r="11"/>
</g>
</svg>
