<?xml version="1.0" encoding="utf-8"?>
<!-- Generator: Adobe Illustrator 21.0.2, SVG Export Plug-In . SVG Version: 6.00 Build 0)  -->
<svg version="1.1" id="Layer_1" xmlns="http://www.w3.org/2000/svg" xmlns:xlink="http://www.w3.org/1999/xlink" x="0px" y="0px"
	 width="73.8px" height="95.1px" viewBox="0 0 73.8 95.1" style="enable-background:new 0 0 73.8 95.1;" xml:space="preserve">
<circle cx="2956.6" cy="3200.1" r="72.5"/>
<g>
	<path d="M13.7,0c0,0-0.7,2.8,0,5.9c0.4,1.8,1.2,3.4,2.3,4.7c1.4,1.6,3.4,2.8,5.9,3.5c4.6,1.3,7.4,4.1,8.1,7.9c0.7,4-1.3,8.6-5,11.3
		c-1.6,1.1-2.7,5.1-3.4,11.8c-0.6,5.3-0.8,12.4-0.8,21c0,14.7,0.9,28.9,0.9,29l0,0h52.1V0H13.7L13.7,0z"/>
	<circle cx="11" cy="27.6" r="11"/>
</g>
</svg>
