<?xml version="1.0" encoding="utf-8"?>
<!-- Generator: Adobe Illustrator 22.1.0, SVG Export Plug-In . SVG Version: 6.00 Build 0)  -->
<svg version="1.1" id="Layer_1" xmlns="http://www.w3.org/2000/svg" xmlns:xlink="http://www.w3.org/1999/xlink" x="0px" y="0px"
	 viewBox="0 0 24 24" style="enable-background:new 0 0 24 24;" xml:space="preserve">
<style type="text/css">
	.st0{fill:#48DBFF;}
</style>
<title>bathroom/light</title>
<desc>Created with Sketch.</desc>
<g>
	<circle class="st0" cx="18.5" cy="3.5" r="3.5"/>
	<circle class="st0" cx="5.5" cy="3.5" r="3.5"/>
	<path class="st0" d="M23,8c-0.1,0-0.1,0-0.2,0H14c-0.6,0-1,0.4-1,1c0,0.1,0,0.1,0,0.2l2.8,14c0.1,0.5,0.5,0.8,1,0.8h3.4
		c0.5,0,0.9-0.3,1-0.8l2.6-14C23.9,8.6,23.5,8.1,23,8z"/>
	<path class="st0" d="M6.7,9H3.6C3.1,9,2.7,9.3,2.6,9.8L0,22.9c0,0.1,0,0.1,0,0.2C0,23.6,0.4,24,0.9,24h8.2c0.1,0,0.1,0,0.2,0
		c0.5-0.1,0.8-0.6,0.7-1.1L7.6,9.8C7.5,9.3,7.2,9,6.7,9z"/>
</g>
</svg>
