<?xml version="1.0" encoding="utf-8"?>
<!-- Generator: Adobe Illustrator 22.1.0, SVG Export Plug-In . SVG Version: 6.00 Build 0)  -->
<svg version="1.1" id="Layer_1" xmlns="http://www.w3.org/2000/svg" xmlns:xlink="http://www.w3.org/1999/xlink" x="0px" y="0px"
	 viewBox="0 0 120 120" style="enable-background:new 0 0 120 120;" xml:space="preserve">
<style type="text/css">
	.st0{fill:#E2E2E2;}
</style>
<g>
	<path class="st0" d="M25.1,48.7c2.7,0,5.3-0.4,7.7-1.2L1.4,16.2C0.5,18.8,0,21.5,0,24.4C0,37.8,11.2,48.7,25.1,48.7z"/>
	<path class="st0" d="M32.2,65.1h-3.7L83.4,120h21.8L46.8,61.6C42.4,63.9,37.5,65.1,32.2,65.1z"/>
	<path class="st0" d="M64.5,32.9c0,4.9-1.1,9.6-3.1,13.7l58.6,58.6V83.4L64.5,27.9V32.9z"/>
	<path class="st0" d="M50.1,24.4C50.1,10.9,38.9,0,25.1,0c-3.1,0-6,0.5-8.7,1.5l32,32C49.5,30.7,50.1,27.6,50.1,24.4z"/>
	<path class="st0" d="M64.5,3v21L120,79.5V57.7L64.6,2.2C64.5,2.5,64.5,2.7,64.5,3z"/>
	<path class="st0" d="M67.5,0c-0.4,0-0.7,0.1-1,0.2L120,53.8V31.9L88.1,0H67.5z"/>
	<polygon class="st0" points="113.8,0 91.9,0 120,28.1 120,6.2 	"/>
	<path class="st0" d="M3,65.1c-0.1,0-0.1,0-0.2,0L57.7,120h21.8L24.6,65.1H3z"/>
	<path class="st0" d="M47,36.1L13.6,2.7C8.9,5.1,5,8.9,2.6,13.5l33,33C40.4,44.3,44.5,40.7,47,36.1z"/>
	<path class="st0" d="M49.3,60.2l59.8,59.8h7.9c1.7,0,3-1.3,3-3v-7.9L60.1,49.2C57.4,53.7,53.7,57.5,49.3,60.2z"/>
	<path class="st0" d="M0,68.1v19.9L31.9,120h21.8L0.4,66.6C0.2,67.1,0,67.6,0,68.1z"/>
	<polygon class="st0" points="0,113.8 6.2,120 28.1,120 0,91.9 	"/>
</g>
</svg>
