<?xml version="1.0" encoding="utf-8"?>
<!-- Generator: Adobe Illustrator 22.1.0, SVG Export Plug-In . SVG Version: 6.00 Build 0)  -->
<svg version="1.1" id="Layer_1" xmlns="http://www.w3.org/2000/svg" xmlns:xlink="http://www.w3.org/1999/xlink" x="0px" y="0px"
	 viewBox="0 0 30 30" style="enable-background:new 0 0 30 30;" xml:space="preserve">
<style type="text/css">
	.st0{fill:#E2E2E2;}
</style>
<title>disabled/25</title>
<desc>Created with Sketch.</desc>
<g>
	<path class="st0" d="M8.1,16.3H7.1L20.8,30h5.5L11.7,15.4C10.6,16,9.4,16.3,8.1,16.3z"/>
	<path class="st0" d="M6.3,12.2c0.7,0,1.3-0.1,1.9-0.3L0.4,4.1C0.1,4.7,0,5.4,0,6.1C0,9.5,2.8,12.2,6.3,12.2z"/>
	<path class="st0" d="M12.5,6.1C12.5,2.7,9.7,0,6.3,0C5.5,0,4.8,0.1,4.1,0.4l8,8C12.4,7.7,12.5,6.9,12.5,6.1z"/>
	<path class="st0" d="M16.1,8.2c0,1.2-0.3,2.4-0.8,3.4L30,26.3v-5.5L16.1,7V8.2z"/>
	<path class="st0" d="M16.1,3v3L30,19.9v-5.5L16.8,1.2C16.4,1.7,16.1,2.3,16.1,3z"/>
	<path class="st0" d="M19.1,0c-0.7,0-1.4,0.3-1.9,0.7L30,13.4V8l-8-8H19.1z"/>
	<path class="st0" d="M27,0h-4l7,7V3C30,1.3,28.7,0,27,0z"/>
	<path class="st0" d="M3,16.3c-0.6,0-1.2,0.2-1.7,0.6L14.4,30h5.5L6.2,16.3H3z"/>
	<path class="st0" d="M12.3,15.1L27.2,30c1.5-0.1,2.6-1.3,2.7-2.7l-15-15C14.4,13.4,13.4,14.4,12.3,15.1z"/>
	<path class="st0" d="M11.8,9L3.4,0.7C2.2,1.3,1.3,2.2,0.7,3.4l8.2,8.2C10.1,11.1,11.1,10.2,11.8,9z"/>
	<path class="st0" d="M0,19.3V22l8,8h5.5L0.8,17.3C0.3,17.8,0,18.5,0,19.3z"/>
	<path class="st0" d="M0,27c0,1.7,1.3,3,3,3h4l-7-7V27z"/>
</g>
</svg>
