<?xml version="1.0" encoding="utf-8"?>
<!-- Generator: Adobe Illustrator 22.1.0, SVG Export Plug-In . SVG Version: 6.00 Build 0)  -->
<svg version="1.1" id="Layer_1" xmlns="http://www.w3.org/2000/svg" xmlns:xlink="http://www.w3.org/1999/xlink" x="0px" y="0px"
	 viewBox="0 0 60 60" style="enable-background:new 0 0 60 60;" xml:space="preserve">
<style type="text/css">
	.st0{fill:#E2E2E2;}
</style>
<g>
	<path class="st0" d="M12.5,24.4c1.3,0,2.6-0.2,3.8-0.6L0.7,8.1C0.3,9.4,0,10.8,0,12.2C0,18.9,5.6,24.4,12.5,24.4z"/>
	<path class="st0" d="M16.1,32.6h-1.9L41.7,60h10.9L23.4,30.8C21.2,31.9,18.7,32.6,16.1,32.6z"/>
	<path class="st0" d="M25.1,12.2C25.1,5.5,19.5,0,12.5,0c-1.5,0-3,0.3-4.4,0.8l16,16C24.7,15.3,25.1,13.8,25.1,12.2z"/>
	<path class="st0" d="M32.2,16.4c0,2.5-0.6,4.8-1.5,6.8L60,52.6V41.7L32.2,13.9V16.4z"/>
	<path class="st0" d="M32.2,3v9L60,39.7V28.8L32.7,1.5C32.4,1.9,32.2,2.4,32.2,3z"/>
	<path class="st0" d="M35.2,0c-0.6,0-1.2,0.2-1.6,0.5L60,26.9V16L44,0H35.2z"/>
	<polygon class="st0" points="56.9,0 46,0 60,14 60,3.1 	"/>
	<path class="st0" d="M3,32.6c-0.5,0-0.9,0.1-1.3,0.3L28.8,60h10.9L12.3,32.6H3z"/>
	<path class="st0" d="M24.7,30.1L54.5,60H57c1.7,0,3-1.3,3-3v-2.5l-30-30C28.7,26.8,26.9,28.7,24.7,30.1z"/>
	<path class="st0" d="M23.5,18.1L6.8,1.4C4.4,2.5,2.5,4.4,1.3,6.8l16.5,16.5C20.2,22.1,22.2,20.3,23.5,18.1z"/>
	<path class="st0" d="M0,35.6V44l16,16h10.9L0.6,33.7C0.2,34.3,0,34.9,0,35.6z"/>
	<polygon class="st0" points="0,56.9 3.1,60 14,60 0,46 	"/>
</g>
</svg>
