<?xml version="1.0" encoding="utf-8"?>
<!-- Generator: Adobe Illustrator 22.1.0, SVG Export Plug-In . SVG Version: 6.00 Build 0)  -->
<svg version="1.1" id="Layer_1" xmlns="http://www.w3.org/2000/svg" xmlns:xlink="http://www.w3.org/1999/xlink" x="0px" y="0px"
	 viewBox="0 0 90 90" style="enable-background:new 0 0 90 90;" xml:space="preserve">
<style type="text/css">
	.st0{fill:#E2E2E2;}
</style>
<g>
	<path class="st0" d="M24.2,48.8h-2.8L62.5,90h16.4L35.1,46.2C31.8,47.9,28.1,48.8,24.2,48.8z"/>
	<path class="st0" d="M18.8,36.5c2,0,3.9-0.3,5.8-0.9L1.1,12.2C0.4,14.1,0,16.1,0,18.3C0,28.4,8.4,36.5,18.8,36.5z"/>
	<path class="st0" d="M48.4,24.7c0,3.7-0.8,7.2-2.3,10.3L90,78.9V62.5L48.4,20.9V24.7z"/>
	<path class="st0" d="M37.6,18.3C37.6,8.2,29.2,0,18.8,0c-2.3,0-4.5,0.4-6.5,1.2l24,24C37.1,23,37.6,20.7,37.6,18.3z"/>
	<path class="st0" d="M48.4,3v15L90,59.6V43.2L48.6,1.8C48.4,2.2,48.4,2.6,48.4,3z"/>
	<path class="st0" d="M51.4,0c-0.5,0-0.9,0.1-1.3,0.3l40,40V24L66,0H51.4z"/>
	<polygon class="st0" points="85.3,0 69,0 90,21 90,4.7 	"/>
	<path class="st0" d="M3,48.8c-0.3,0-0.5,0-0.8,0.1l41,41h16.4L18.5,48.8H3z"/>
	<path class="st0" d="M37,45.2L81.8,90H87c1.7,0,3-1.3,3-3v-5.2L45.1,36.9C43.1,40.2,40.3,43.1,37,45.2z"/>
	<path class="st0" d="M35.3,27.1l-25-25C6.7,3.8,3.8,6.7,2,10.2l24.7,24.7C30.3,33.2,33.3,30.5,35.3,27.1z"/>
	<path class="st0" d="M0,51.8V66l24,24h16.4L0.5,50.2C0.2,50.7,0,51.2,0,51.8z"/>
	<polygon class="st0" points="0,85.3 4.7,90 21,90 0,69 	"/>
</g>
</svg>
