<?xml version="1.0" encoding="utf-8"?>
<!-- Generator: Adobe Illustrator 22.1.0, SVG Export Plug-In . SVG Version: 6.00 Build 0)  -->
<svg version="1.1" id="Layer_1" xmlns="http://www.w3.org/2000/svg" xmlns:xlink="http://www.w3.org/1999/xlink" x="0px" y="0px"
	 viewBox="0 0 24 24" style="enable-background:new 0 0 24 24;" xml:space="preserve">
<title>Search/black</title>
<desc>Created with Sketch.</desc>
<path d="M23.6,21.4l-6.8-6.8c1.1-1.5,1.7-3.4,1.7-5.4c0-5.1-4.1-9.2-9.2-9.2C4.1,0,0,4.1,0,9.2c0,5.1,4.1,9.2,9.2,9.2
	c2,0,3.9-0.6,5.4-1.7l6.8,6.8c0.3,0.3,0.7,0.4,1.1,0.4s0.8-0.1,1.1-0.4C24.1,23,24.1,22,23.6,21.4z M9.2,16.5c-4,0-7.2-3.2-7.2-7.2
	C2,5.2,5.2,2,9.2,2c4,0,7.2,3.2,7.2,7.2c0,1.5-0.4,2.8-1.2,3.9c-0.6,0.8-1.3,1.6-2.1,2.1C12,16,10.7,16.5,9.2,16.5z"/>
</svg>
