<?xml version="1.0" encoding="utf-8"?>
<!-- Generator: Adobe Illustrator 22.1.0, SVG Export Plug-In . SVG Version: 6.00 Build 0)  -->
<svg version="1.1" id="Layer_1" xmlns="http://www.w3.org/2000/svg" xmlns:xlink="http://www.w3.org/1999/xlink" x="0px" y="0px"
	 viewBox="0 0 30 30" style="enable-background:new 0 0 30 30;" xml:space="preserve">
<style type="text/css">
	.st0{fill:#FFFFFF;}
	.st1{fill:#48DBFF;}
</style>
<title>normal/25</title>
<desc>Created with Sketch.</desc>
<g>
	<g>
		<path id="Line-5_1_" class="st0" d="M17.3,3c0-1.1,0.9-2,2-2L27,1c1.1,0,2,0.9,2,2l0,24c0,1.1-0.9,2-2,2H3c-1.1,0-2-0.9-2-2v-7.9
			c0-1.1,0.9-2,2-2h5.2c5,0,9.1-4.1,9.1-9.1V3z"/>
		<path class="st1" d="M27,30H3c-1.7,0-3-1.3-3-3v-7.9c0-1.7,1.3-3,3-3h5.2c4.4,0,8.1-3.6,8.1-8.1V3c0-1.7,1.3-3,3-3H27
			c1.7,0,3,1.3,3,3v24C30,28.7,28.7,30,27,30z M3,18.1c-0.6,0-1,0.4-1,1V27c0,0.6,0.4,1,1,1h24c0.6,0,1-0.4,1-1V3c0-0.6-0.4-1-1-1
			h-7.7c-0.6,0-1,0.4-1,1v5.1c0,5.5-4.5,10.1-10.1,10.1H3z"/>
	</g>
	<circle id="Oval" class="st0" cx="6.8" cy="6.8" r="6.8"/>
</g>
</svg>
