<?xml version="1.0" encoding="utf-8"?>
<!-- Generator: Adobe Illustrator 22.1.0, SVG Export Plug-In . SVG Version: 6.00 Build 0)  -->
<svg version="1.1" id="Layer_1" xmlns="http://www.w3.org/2000/svg" xmlns:xlink="http://www.w3.org/1999/xlink" x="0px" y="0px"
	 viewBox="0 0 60 60" style="enable-background:new 0 0 60 60;" xml:space="preserve">
<style type="text/css">
	.st0{fill:#FFFFFF;}
	.st1{fill:#48DBFF;}
</style>
<title>normal/50</title>
<desc>Created with Sketch.</desc>
<g id="normal_x2F_50">
	<g>
		<path id="Line-5_1_" class="st0" d="M34.1,4c0-1.4,1.1-2.5,2.5-2.5l19.4,0c1.4,0,2.5,1.1,2.5,2.5v52c0,1.4-1.1,2.5-2.5,2.5H4
			c-1.4,0-2.5-1.1-2.5-2.5V36.2c0-1.4,1.1-2.5,2.5-2.5h12.4c9.7,0,17.6-7.9,17.6-17.6V4z"/>
		<path class="st1" d="M56,60H4c-2.2,0-4-1.8-4-4V36.2c0-2.2,1.8-4,4-4h12.4c8.9,0,16.1-7.2,16.1-16.1V4c0-2.2,1.8-4,4-4H56
			c2.2,0,4,1.8,4,4v52C60,58.2,58.2,60,56,60z M4,35.2c-0.6,0-1,0.4-1,1V56c0,0.6,0.4,1,1,1h52c0.6,0,1-0.4,1-1V4c0-0.6-0.4-1-1-1
			H36.6c-0.6,0-1,0.4-1,1v12.1c0,10.5-8.6,19.1-19.1,19.1H4z"/>
	</g>
	<circle id="Oval" class="st0" cx="11.6" cy="11.6" r="11.6"/>
</g>
</svg>
