<?xml version="1.0" encoding="utf-8"?>
<!-- Generator: Adobe Illustrator 22.1.0, SVG Export Plug-In . SVG Version: 6.00 Build 0)  -->
<svg version="1.1" id="Layer_1" xmlns="http://www.w3.org/2000/svg" xmlns:xlink="http://www.w3.org/1999/xlink" x="0px" y="0px"
	 viewBox="0 0 90 90" style="enable-background:new 0 0 90 90;" xml:space="preserve">
<style type="text/css">
	.st0{fill:#FFFFFF;}
	.st1{fill:#48DBFF;}
</style>
<title>normal/75</title>
<desc>Created with Sketch.</desc>
<g id="normal_x2F_75">
	<g>
		<path id="Line-5_1_" class="st0" d="M50.3,5c0-1.9,1.6-3.5,3.5-3.5l31.2,0c1.9,0,3.5,1.6,3.5,3.5v80c0,1.9-1.6,3.5-3.5,3.5H5
			c-1.9,0-3.5-1.6-3.5-3.5V53.4c0-1.9,1.6-3.5,3.5-3.5h19.7c14.2,0,25.7-11.5,25.7-25.7C50.3,24.2,50.3,5,50.3,5z"/>
		<path class="st1" d="M85,90H5c-2.8,0-5-2.2-5-5V53.4c0-2.8,2.2-5,5-5h19.7c13.3,0,24.2-10.8,24.2-24.2V5c0-2.8,2.2-5,5-5H85
			c2.8,0,5,2.2,5,5v80C90,87.8,87.8,90,85,90z M5,51.4c-1.1,0-2,0.9-2,2V85c0,1.1,0.9,2,2,2h80c1.1,0,2-0.9,2-2V5c0-1.1-0.9-2-2-2
			H53.8c-1.1,0-2,0.9-2,2v19.2c0,15-12.2,27.2-27.2,27.2H5z"/>
	</g>
	<circle id="Oval" class="st0" cx="18" cy="18" r="18"/>
</g>
</svg>
