<?xml version="1.0" encoding="utf-8"?>
<!-- Generator: Adobe Illustrator 21.0.2, SVG Export Plug-In . SVG Version: 6.00 Build 0)  -->
<svg version="1.1" id="Layer_1" xmlns="http://www.w3.org/2000/svg" xmlns:xlink="http://www.w3.org/1999/xlink" x="0px" y="0px"
	 width="75.6px" height="95.1px" viewBox="0 0 75.6 95.1" style="enable-background:new 0 0 75.6 95.1;" xml:space="preserve">
<circle cx="2881.4" cy="3103.9" r="72.5"/>
<g>
	<path d="M57.9,84.5c-1.4-1.6-3.4-2.8-5.9-3.5c-4.6-1.3-7.4-4.1-8.1-7.9c-0.7-4,1.3-8.6,5-11.3c1.6-1.1,2.7-5.1,3.4-11.8
		c0.6-5.3,0.8-12.4,0.8-21c0-14.7-0.9-28.9-0.9-29l0,0H0v95.1h60.2l0,0c0,0,0.7-2.8,0-5.9C59.8,87.4,59,85.8,57.9,84.5z"/>
	<circle cx="64.6" cy="71.5" r="11"/>
</g>
</svg>
