<?xml version="1.0" encoding="UTF-8"?>
<svg width="3728px" height="1956px" viewBox="0 0 3728 1956" version="1.1" xmlns="http://www.w3.org/2000/svg" xmlns:xlink="http://www.w3.org/1999/xlink">
    <!-- Generator: Sketch 50.2 (55047) - http://www.bohemiancoding.com/sketch -->
    <title>Group 2</title>
    <desc>Created with Sketch.</desc>
    <defs>
        <path d="M19.9971451,47.6388889 L0,27.6417438 L0,11.7331707 L35.9057182,47.6388889 L19.9971451,47.6388889 Z M12.8225111,47.6388889 L0,47.6388889 L0,34.8163777 L12.8225111,47.6388889 Z M126,38.2257084 L88.9931047,1.21881313 L104.901678,1.21881313 L126,22.3171353 L126,38.2257084 Z M126,45.4003424 L126,47.6388889 L112.329973,47.6388889 L65.9098976,1.21881313 L81.8184707,1.21881313 L126,45.4003424 Z M126,15.1425014 L112.076312,1.21881313 L126,1.21881313 L126,15.1425014 Z M105.155339,47.6388889 L89.2467663,47.6388889 L42.8266906,1.21881313 L58.7352637,1.21881313 L105.155339,47.6388889 Z M82.0721324,47.6388889 L66.1635592,47.6388889 L19.7434835,1.21881313 L35.6520566,1.21881313 L82.0721324,47.6388889 Z M58.9889253,47.6388889 L43.0803522,47.6388889 L0,4.55853672 L0,1.21881313 L12.5688495,1.21881313 L58.9889253,47.6388889 Z" id="path-1"></path>
        <path d="M1.34771825,34.5777115 L1.34771825,17.7164337 L56.9905754,73.3592908 L56.9905754,82 L48.7700067,82 L1.34771825,34.5777115 Z M1.34771825,42.1820074 L41.1657108,82 L24.3044329,82 L1.34771825,59.0432853 L1.34771825,42.1820074 Z M32.5624321,0 L56.9905754,24.4281433 L56.9905754,41.2894211 L15.7011542,0 L32.5624321,0 Z M40.166728,0 L56.9905754,0 L56.9905754,16.8238474 L40.166728,-7.10542736e-15 Z M1.34771825,10.1121378 L1.34771825,0 L8.09685837,0 L56.9905754,48.893717 L56.9905754,65.7549949 L1.34771825,10.1121378 Z M1.34771825,66.6475812 L16.7001371,82 L1.34771825,82 L1.34771825,66.6475812 Z" id="path-3"></path>
        <path d="M1.34771825,34.5777115 L1.34771825,17.7164337 L56.9905754,73.3592908 L56.9905754,82 L48.7700067,82 L1.34771825,34.5777115 Z M1.34771825,42.1820074 L41.1657108,82 L24.3044329,82 L1.34771825,59.0432853 L1.34771825,42.1820074 Z M32.5624321,0 L56.9905754,24.4281433 L56.9905754,41.2894211 L15.7011542,0 L32.5624321,0 Z M40.166728,0 L56.9905754,0 L56.9905754,16.8238474 L40.166728,-7.10542736e-15 Z M1.34771825,10.1121378 L1.34771825,0 L8.09685837,0 L56.9905754,48.893717 L56.9905754,65.7549949 L1.34771825,10.1121378 Z M1.34771825,66.6475812 L16.7001371,82 L1.34771825,82 L1.34771825,66.6475812 Z" id="path-5"></path>
        <path d="M1.34771825,34.5777115 L1.34771825,17.7164337 L56.9905754,73.3592908 L56.9905754,82 L48.7700067,82 L1.34771825,34.5777115 Z M1.34771825,42.1820074 L41.1657108,82 L24.3044329,82 L1.34771825,59.0432853 L1.34771825,42.1820074 Z M32.5624321,0 L56.9905754,24.4281433 L56.9905754,41.2894211 L15.7011542,0 L32.5624321,0 Z M40.166728,0 L56.9905754,0 L56.9905754,16.8238474 L40.166728,-7.10542736e-15 Z M1.34771825,10.1121378 L1.34771825,0 L8.09685837,0 L56.9905754,48.893717 L56.9905754,65.7549949 L1.34771825,10.1121378 Z M1.34771825,66.6475812 L16.7001371,82 L1.34771825,82 L1.34771825,66.6475812 Z" id="path-7"></path>
        <path d="M1.34771825,34.5777115 L1.34771825,17.7164337 L56.9905754,73.3592908 L56.9905754,82 L48.7700067,82 L1.34771825,34.5777115 Z M1.34771825,42.1820074 L41.1657108,82 L24.3044329,82 L1.34771825,59.0432853 L1.34771825,42.1820074 Z M32.5624321,0 L56.9905754,24.4281433 L56.9905754,41.2894211 L15.7011542,0 L32.5624321,0 Z M40.166728,0 L56.9905754,0 L56.9905754,16.8238474 L40.166728,-7.10542736e-15 Z M1.34771825,10.1121378 L1.34771825,0 L8.09685837,0 L56.9905754,48.893717 L56.9905754,65.7549949 L1.34771825,10.1121378 Z M1.34771825,66.6475812 L16.7001371,82 L1.34771825,82 L1.34771825,66.6475812 Z" id="path-9"></path>
    </defs>
    <g id="floor-plans" stroke="none" stroke-width="1" fill="none" fill-rule="evenodd">
        <g id="Desktop-Copy-3" transform="translate(-140.000000, -1106.000000)">
            <g id="Group-2" transform="translate(140.000000, 1106.000000)">
                <g id="Group">
                    <path d="M2949.66036,480.932267 L2945.79479,479.879195 L2947.89096,479.811136 L2949.66036,480.932267 Z M1249.00218,475.820318 L1249.01804,469.061525 L1830.07558,470.413287 L1830.04386,483.930873 L1249.00218,482.579148 L1249.00218,483.930891 L1235.42607,483.930891 L1235.42607,81.105736 L1249.00218,81.105736 L1249.00218,475.820318 Z M3379.09395,421.749827 L3707.63583,421.749827 L3707.63583,435.26745 L3389.95484,435.26745 L3389.95484,588.016586 L3376.37873,588.016586 L3376.37873,421.749827 L3379.09395,421.749827 Z M3381.80918,655.604699 L3710.35106,655.604699 L3710.35106,669.122322 L3389.95484,669.122322 L3389.95484,913.791292 L3376.37873,913.791292 L3376.37873,655.604699 L3381.80918,655.604699 Z M3070.69501,475.823908 L3071.13747,489.33435 L2944.14108,489.402409 L2864.54348,443.0229 L2865.93315,117.858183 L2942.47639,71.2832783 L2949.55565,82.8176201 L2879.4769,125.459025 L2878.15134,435.622574 L2947.89096,475.755849 L3070.69501,475.823908 Z M2430.12382,1384.20456 L2430.12382,1370.68694 L2785.81792,1370.68694 L2785.81792,1384.20456 L2430.12382,1384.20456 Z M2477.6402,81.105736 L2491.21631,81.105736 L2491.21631,690.750518 L2477.6402,690.750518 L2477.6402,81.105736 Z M3376.37873,981.379406 L3389.95484,981.379406 L3389.95484,1050.31928 L3376.37873,1050.31928 L3376.37873,981.379406 Z M3301.71012,104.293394 L3301.71012,21.6281963 L3315.28623,21.6281963 L3315.28623,98.4709462 L3389.95484,168.762584 L3389.95484,354.161714 L3376.37873,354.161714 L3376.37873,174.585032 L3301.71012,104.293394 Z" id="Combined-Shape" fill="#C2F3FE" fill-rule="nonzero"></path>
                    <path d="M1830.05972,1512.62198 L1253.07502,1512.62198 L1253.07502,1641.56825 L133.128099,1641.56825 L133.128099,1513.63768 L0,1513.63768 L0,61.6532846 L122.462247,61.6532846 L184.382293,0 L484.403964,0 L546.32401,61.6532846 L729.197956,61.6532846 L789.570001,0 L1086.57641,0 L1148.49646,61.6532846 L1329.8224,61.6532846 L1390.19445,0 L1687.36483,0 L1746.18888,61.6532846 L1930.44685,61.6532846 L1990.81889,0 L2292.46931,0 L2354.38935,61.6532846 L2532.70004,61.6532846 L2594.62008,0 L2893.01541,0 L2956.48346,61.6532846 L3135.02686,61.6532846 L3200.0429,0 L3496.89494,0 L3557.26699,61.6532846 L3659.52448,61.6532846 L3659.52448,166.704301 L3727.63653,236.064247 L3727.63653,446.155912 L3659.52448,498.561204 L3659.52448,579.562286 L3727.63653,644.298235 L3727.63653,937.235204 L3659.52448,1000.42982 L3659.52448,1527.40439 L3727.63653,1590.59901 L3727.63653,1880.23429 L3653.23397,1956 L2417.97779,1956 L2417.97779,1662.66759 L2417.90532,1662.66759 L2417.90532,1641.56825 L1851.7815,1641.56825 L1851.7815,1642.39115 L1830.05972,1642.39115 L1830.05972,1512.62198 Z M1830.05972,1490.99378 L1830.05972,1032.74637 L1751.31828,1032.74637 L1751.31828,1011.11818 L1830.05972,1011.11818 L1830.05972,940.826538 L1830.05972,919.198341 L1907.44355,919.198341 L1907.44355,874.590187 L1929.16533,874.590187 L1929.16533,919.198341 L2063.56883,919.198341 L2063.56883,940.826538 L1851.7815,940.826538 L1851.7815,1226.04838 L2128.05535,1226.04838 L2128.05535,919.198341 L2149.77713,919.198341 L2149.77713,1226.04838 L2426.72979,1226.04838 L2426.72979,940.826538 L2208.83321,940.826538 L2208.83321,919.198341 L2503.43481,919.198341 L2503.43481,940.826538 L2448.45157,940.826538 L2448.45157,1226.04838 L2657.52367,1226.04838 L2657.52367,940.826538 L2571.31537,940.826538 L2571.31537,919.198341 L2864.55936,919.198341 L2864.55936,940.826538 L2864.55936,1158.46026 L2842.83758,1158.46026 L2842.83758,940.826538 L2679.24545,940.826538 L2679.24545,1226.04838 L2864.55936,1226.04838 L2864.55936,1247.67657 L1851.7815,1247.67657 L1851.7815,1619.94005 L2417.90532,1619.94005 L2417.90532,1315.26469 L2439.62709,1315.26469 L2439.62709,1619.94005 L2439.69957,1619.94005 L2439.69957,1934.3718 L2853.69847,1934.3718 L2853.69847,1365.27989 L2875.42025,1365.27989 L2875.42025,1934.3718 L3644.09321,1934.3718 L3705.91475,1871.41762 L3705.91475,1600.00801 L3637.8027,1536.8134 L3637.8027,1351.76227 L3030.18791,1351.76227 L3030.18791,1330.13407 L3030.18791,1267.95301 L3051.90969,1267.95301 L3051.90969,1330.13407 L3637.8027,1330.13407 L3637.8027,1071.94748 L3051.90969,1071.94748 L3051.90969,1134.12854 L3030.18791,1134.12854 L3030.18791,1071.94748 L3030.18791,1050.31928 L3637.8027,1050.31928 L3637.8027,991.020818 L3705.91475,927.826201 L3705.91475,653.552952 L3637.8027,588.817004 L3637.8027,487.940896 L3705.91475,435.535605 L3705.91475,244.88092 L3637.8027,175.520975 L3637.8027,83.2814808 L3548.10805,83.2814808 L3487.736,21.6281963 L3208.73161,21.6281963 L3143.71557,83.2814808 L2947.64269,83.2814808 L2884.17464,21.6281963 L2603.61754,21.6281963 L2541.69749,83.2814808 L2345.3919,83.2814808 L2283.47185,21.6281963 L1999.97783,21.6281963 L1939.60579,83.2814808 L1736.86347,83.2814808 L1678.03943,21.6281963 L1399.35339,21.6281963 L1338.98134,83.2814808 L1139.499,83.2814808 L1077.57896,21.6281963 L798.728939,21.6281963 L738.356895,83.2814808 L537.326555,83.2814808 L475.406509,21.6281963 L193.379748,21.6281963 L131.459702,83.2814808 L21.7217771,83.2814808 L21.7217771,421.073946 L275.595047,421.073946 L275.595047,442.702142 L275.595047,487.986178 L638.077203,487.986178 L638.077203,509.614375 L638.077203,889.459572 L616.355426,889.459572 L616.355426,509.614375 L275.595047,509.614375 L275.595047,957.047685 L636.719592,957.047685 L636.719592,978.675881 L253.87327,978.675881 L253.87327,977.324119 L253.87327,442.702142 L21.7217771,442.702142 L21.7217771,1120.61092 L253.87327,1120.61092 L253.87327,1044.91223 L275.595047,1044.91223 L275.595047,1142.23912 L21.7217771,1142.23912 L21.7217771,1492.00949 L154.849876,1492.00949 L154.849876,1619.94005 L1031.78441,1619.94005 L1031.78441,1238.21424 L1031.78441,1216.58604 L1115.9563,1216.58604 L1115.9563,1238.21424 L1053.50619,1238.21424 L1053.50619,1619.94005 L1231.35324,1619.94005 L1231.35324,1238.21424 L1179.76402,1238.21424 L1179.76402,1216.58604 L1231.35324,1216.58604 L1231.35324,852.96199 L1253.07502,852.96199 L1253.07502,1016.52522 L1397.6606,1016.52522 L1397.6606,1009.76641 L1419.38237,1009.76641 L1419.38237,1016.52522 L1565.32556,1016.52522 L1565.32556,1011.11818 L1587.04734,1011.11818 L1621.98762,1011.11818 L1621.98762,1032.74637 L1587.04734,1032.74637 L1587.04734,1238.21424 L1570.75601,1238.21424 L1253.07502,1238.21424 L1253.07502,1490.99378 L1830.05972,1490.99378 Z M1253.07502,1030.04285 L1253.07502,1216.58604 L1397.6606,1216.58604 L1397.6606,1030.04285 L1253.07502,1030.04285 Z M1419.38237,1030.04285 L1419.38237,1216.58604 L1565.32556,1216.58604 L1565.32556,1030.04285 L1419.38237,1030.04285 Z M1231.35324,465.00622 L1253.07502,465.00622 L1253.07502,785.373877 L1231.35324,785.373877 L1231.35324,465.00622 Z M1907.44355,766.449205 L1819.19883,766.449205 L1819.19883,466.357982 L1840.92061,466.357982 L1840.92061,744.821009 L1929.16533,744.821009 L1929.16533,808.353836 L1907.44355,808.353836 L1907.44355,766.449205 Z" id="Combined-Shape" fill="#000000" fill-rule="nonzero"></path>
                    <g id="door" transform="translate(284.419519, 1012.469938) scale(-1, -1) rotate(90.000000) translate(-284.419519, -1012.469938) translate(250.479243, 982.055287)" fill="#000000">
                        <path d="M8.71794872,61 L8.71794872,58.0243902 C29.591592,58.0243902 44.1415017,52.2511874 52.5569416,40.7553084 C61.110127,29.0712629 65.1908781,15.5127228 64.7982018,0.0350398052 L68.0018735,-0.0350398052 C68.4099301,16.048874 64.1453697,30.2181314 55.2071993,42.4280843 C46.1312835,54.8262037 30.5717787,61 8.71794872,61 Z" id="Path-5" fill-rule="nonzero"></path>
                        <rect id="Rectangle-7" fill-rule="evenodd" x="0" y="0" width="8.71794872" height="61"></rect>
                    </g>
                    <g id="door" transform="translate(646.901675, 923.253628) scale(-1, -1) rotate(90.000000) translate(-646.901675, -923.253628) translate(612.961398, 892.838977)" fill="#000000">
                        <path d="M8.71794872,61 L8.71794872,58.0243902 C29.591592,58.0243902 44.1415017,52.2511874 52.5569416,40.7553084 C61.110127,29.0712629 65.1908781,15.5127228 64.7982018,0.0350398052 L68.0018735,-0.0350398052 C68.4099301,16.048874 64.1453697,30.2181314 55.2071993,42.4280843 C46.1312835,54.8262037 30.5717787,61 8.71794872,61 Z" id="Path-5" fill-rule="nonzero"></path>
                        <rect id="Rectangle-7" fill-rule="evenodd" x="0" y="0" width="8.71794872" height="61"></rect>
                    </g>
                    <g id="door" transform="translate(2448.451566, 1281.470629) scale(-1, -1) rotate(90.000000) translate(-2448.451566, -1281.470629) translate(2414.511289, 1251.055978)" fill="#000000">
                        <path d="M8.71794872,61 L8.71794872,58.0243902 C29.591592,58.0243902 44.1415017,52.2511874 52.5569416,40.7553084 C61.110127,29.0712629 65.1908781,15.5127228 64.7982018,0.0350398052 L68.0018735,-0.0350398052 C68.4099301,16.048874 64.1453697,30.2181314 55.2071993,42.4280843 C46.1312835,54.8262037 30.5717787,61 8.71794872,61 Z" id="Path-5" fill-rule="nonzero"></path>
                        <rect id="Rectangle-7" fill-rule="evenodd" x="0" y="0" width="8.71794872" height="61"></rect>
                    </g>
                    <g id="door" transform="translate(1261.899490, 819.167934) scale(-1, -1) rotate(90.000000) translate(-1261.899490, -819.167934) translate(1227.959213, 788.753283)" fill="#000000">
                        <path d="M8.71794872,61 L8.71794872,58.0243902 C29.591592,58.0243902 44.1415017,52.2511874 52.5569416,40.7553084 C61.110127,29.0712629 65.1908781,15.5127228 64.7982018,0.0350398052 L68.0018735,-0.0350398052 C68.4099301,16.048874 64.1453697,30.2181314 55.2071993,42.4280843 C46.1312835,54.8262037 30.5717787,61 8.71794872,61 Z" id="Path-5" fill-rule="nonzero"></path>
                        <rect id="Rectangle-7" fill-rule="evenodd" x="0" y="0" width="8.71794872" height="61"></rect>
                    </g>
                    <g id="door" transform="translate(2873.383831, 1192.254319) scale(-1, -1) rotate(90.000000) translate(-2873.383831, -1192.254319) translate(2839.443554, 1161.839668)" fill="#000000">
                        <path d="M8.71794872,61 L8.71794872,58.0243902 C29.591592,58.0243902 44.1415017,52.2511874 52.5569416,40.7553084 C61.110127,29.0712629 65.1908781,15.5127228 64.7982018,0.0350398052 L68.0018735,-0.0350398052 C68.4099301,16.048874 64.1453697,30.2181314 55.2071993,42.4280843 C46.1312835,54.8262037 30.5717787,61 8.71794872,61 Z" id="Path-5" fill-rule="nonzero"></path>
                        <rect id="Rectangle-7" fill-rule="evenodd" x="0" y="0" width="8.71794872" height="61"></rect>
                    </g>
                    <g id="door" transform="translate(1937.989803, 842.147892) scale(-1, -1) rotate(90.000000) translate(-1937.989803, -842.147892) translate(1904.049527, 811.733241)" fill="#000000">
                        <path d="M8.71794872,61 L8.71794872,58.0243902 C29.591592,58.0243902 44.1415017,52.2511874 52.5569416,40.7553084 C61.110127,29.0712629 65.1908781,15.5127228 64.7982018,0.0350398052 L68.0018735,-0.0350398052 C68.4099301,16.048874 64.1453697,30.2181314 55.2071993,42.4280843 C46.1312835,54.8262037 30.5717787,61 8.71794872,61 Z" id="Path-5" fill-rule="nonzero"></path>
                        <rect id="Rectangle-7" fill-rule="evenodd" x="0" y="0" width="8.71794872" height="61"></rect>
                    </g>
                    <g id="door" transform="translate(3060.734159, 1235.510712) scale(-1, -1) rotate(90.000000) translate(-3060.734159, -1235.510712) translate(3026.793882, 1205.096061)" fill="#000000">
                        <path d="M8.71794872,61 L8.71794872,58.0243902 C29.591592,58.0243902 44.1415017,52.2511874 52.5569416,40.7553084 C61.110127,29.0712629 65.1908781,15.5127228 64.7982018,0.0350398052 L68.0018735,-0.0350398052 C68.4099301,16.048874 64.1453697,30.2181314 55.2071993,42.4280843 C46.1312835,54.8262037 30.5717787,61 8.71794872,61 Z" id="Path-5" fill-rule="nonzero"></path>
                        <rect id="Rectangle-7" fill-rule="evenodd" x="0" y="0" width="8.71794872" height="61"></rect>
                    </g>
                    <g id="door" transform="translate(3060.734159, 1167.922598) scale(-1, 1) rotate(90.000000) translate(-3060.734159, -1167.922598) translate(3026.793882, 1137.507947)" fill="#000000">
                        <path d="M8.71794872,61 L8.71794872,58.0243902 C29.591592,58.0243902 44.1415017,52.2511874 52.5569416,40.7553084 C61.110127,29.0712629 65.1908781,15.5127228 64.7982018,0.0350398052 L68.0018735,-0.0350398052 C68.4099301,16.048874 64.1453697,30.2181314 55.2071993,42.4280843 C46.1312835,54.8262037 30.5717787,61 8.71794872,61 Z" id="Path-5" fill-rule="nonzero"></path>
                        <rect id="Rectangle-7" fill-rule="evenodd" x="0" y="0" width="8.71794872" height="61"></rect>
                    </g>
                    <g id="door" transform="translate(3359.408594, 947.585349) rotate(90.000000) translate(-3359.408594, -947.585349) translate(3325.468318, 917.170698)" fill="#000000">
                        <path d="M8.71794872,61 L8.71794872,58.0243902 C29.591592,58.0243902 44.1415017,52.2511874 52.5569416,40.7553084 C61.110127,29.0712629 65.1908781,15.5127228 64.7982018,0.0350398052 L68.0018735,-0.0350398052 C68.4099301,16.048874 64.1453697,30.2181314 55.2071993,42.4280843 C46.1312835,54.8262037 30.5717787,61 8.71794872,61 Z" id="Path-5" fill-rule="nonzero"></path>
                        <rect id="Rectangle-7" fill-rule="evenodd" x="0" y="0" width="8.71794872" height="61"></rect>
                    </g>
                    <g id="door" transform="translate(3359.408594, 621.810643) rotate(90.000000) translate(-3359.408594, -621.810643) translate(3325.468318, 591.395992)" fill="#000000">
                        <path d="M8.71794872,61 L8.71794872,58.0243902 C29.591592,58.0243902 44.1415017,52.2511874 52.5569416,40.7553084 C61.110127,29.0712629 65.1908781,15.5127228 64.7982018,0.0350398052 L68.0018735,-0.0350398052 C68.4099301,16.048874 64.1453697,30.2181314 55.2071993,42.4280843 C46.1312835,54.8262037 30.5717787,61 8.71794872,61 Z" id="Path-5" fill-rule="nonzero"></path>
                        <rect id="Rectangle-7" fill-rule="evenodd" x="0" y="0" width="8.71794872" height="61"></rect>
                    </g>
                    <g id="door" transform="translate(3359.408594, 386.604008) rotate(90.000000) translate(-3359.408594, -386.604008) translate(3325.468318, 356.189357)" fill="#000000">
                        <path d="M8.71794872,61 L8.71794872,58.0243902 C29.591592,58.0243902 44.1415017,52.2511874 52.5569416,40.7553084 C61.110127,29.0712629 65.1908781,15.5127228 64.7982018,0.0350398052 L68.0018735,-0.0350398052 C68.4099301,16.048874 64.1453697,30.2181314 55.2071993,42.4280843 C46.1312835,54.8262037 30.5717787,61 8.71794872,61 Z" id="Path-5" fill-rule="nonzero"></path>
                        <rect id="Rectangle-7" fill-rule="evenodd" x="0" y="0" width="8.71794872" height="61"></rect>
                    </g>
                    <g id="door" transform="translate(1654.927895, 1002.331721) scale(1, -1) translate(-1654.927895, -1002.331721) translate(1620.987618, 971.917070)" fill="#000000">
                        <path d="M8.71794872,61 L8.71794872,58.0243902 C29.591592,58.0243902 44.1415017,52.2511874 52.5569416,40.7553084 C61.110127,29.0712629 65.1908781,15.5127228 64.7982018,0.0350398052 L68.0018735,-0.0350398052 C68.4099301,16.048874 64.1453697,30.2181314 55.2071993,42.4280843 C46.1312835,54.8262037 30.5717787,61 8.71794872,61 Z" id="Path-5" fill-rule="nonzero"></path>
                        <rect id="Rectangle-7" fill-rule="evenodd" x="0" y="0" width="8.71794872" height="61"></rect>
                    </g>
                    <g id="door" transform="translate(1722.808449, 1002.331721) scale(-1, -1) translate(-1722.808449, -1002.331721) translate(1688.868172, 971.917070)" fill="#000000">
                        <path d="M8.71794872,61 L8.71794872,58.0243902 C29.591592,58.0243902 44.1415017,52.2511874 52.5569416,40.7553084 C61.110127,29.0712629 65.1908781,15.5127228 64.7982018,0.0350398052 L68.0018735,-0.0350398052 C68.4099301,16.048874 64.1453697,30.2181314 55.2071993,42.4280843 C46.1312835,54.8262037 30.5717787,61 8.71794872,61 Z" id="Path-5" fill-rule="nonzero"></path>
                        <rect id="Rectangle-7" fill-rule="evenodd" x="0" y="0" width="8.71794872" height="61"></rect>
                    </g>
                    <g id="door" transform="translate(2819.758194, 1353.789910) scale(-1, -1) translate(-2819.758194, -1353.789910) translate(2785.817917, 1323.375259)" fill="#000000">
                        <path d="M8.71794872,61 L8.71794872,58.0243902 C29.591592,58.0243902 44.1415017,52.2511874 52.5569416,40.7553084 C61.110127,29.0712629 65.1908781,15.5127228 64.7982018,0.0350398052 L68.0018735,-0.0350398052 C68.4099301,16.048874 64.1453697,30.2181314 55.2071993,42.4280843 C46.1312835,54.8262037 30.5717787,61 8.71794872,61 Z" id="Path-5" fill-rule="nonzero"></path>
                        <rect id="Rectangle-7" fill-rule="evenodd" x="0" y="0" width="8.71794872" height="61"></rect>
                    </g>
                    <g id="door" transform="translate(1148.538966, 1207.799585) scale(-1, -1) translate(-1148.538966, -1207.799585) translate(1114.598689, 1177.384934)" fill="#000000">
                        <path d="M8.71794872,61 L8.71794872,58.0243902 C29.591592,58.0243902 44.1415017,52.2511874 52.5569416,40.7553084 C61.110127,29.0712629 65.1908781,15.5127228 64.7982018,0.0350398052 L68.0018735,-0.0350398052 C68.4099301,16.048874 64.1453697,30.2181314 55.2071993,42.4280843 C46.1312835,54.8262037 30.5717787,61 8.71794872,61 Z" id="Path-5" fill-rule="nonzero"></path>
                        <rect id="Rectangle-7" fill-rule="evenodd" x="0" y="0" width="8.71794872" height="61"></rect>
                    </g>
                    <g id="door" transform="translate(2060.853605, 919.198341)" fill="#000000">
                        <path d="M8.71794872,61 L8.71794872,58.0243902 C29.591592,58.0243902 44.1415017,52.2511874 52.5569416,40.7553084 C61.110127,29.0712629 65.1908781,15.5127228 64.7982018,0.0350398052 L68.0018735,-0.0350398052 C68.4099301,16.048874 64.1453697,30.2181314 55.2071993,42.4280843 C46.1312835,54.8262037 30.5717787,61 8.71794872,61 Z" id="Path-5" fill-rule="nonzero"></path>
                        <rect id="Rectangle-7" fill-rule="evenodd" x="0" y="0" width="8.71794872" height="61"></rect>
                    </g>
                    <g id="door" transform="translate(2183.038602, 949.612992) scale(-1, 1) translate(-2183.038602, -949.612992) translate(2149.098325, 919.198341)" fill="#000000">
                        <path d="M8.71794872,61 L8.71794872,58.0243902 C29.591592,58.0243902 44.1415017,52.2511874 52.5569416,40.7553084 C61.110127,29.0712629 65.1908781,15.5127228 64.7982018,0.0350398052 L68.0018735,-0.0350398052 C68.4099301,16.048874 64.1453697,30.2181314 55.2071993,42.4280843 C46.1312835,54.8262037 30.5717787,61 8.71794872,61 Z" id="Path-5" fill-rule="nonzero"></path>
                        <rect id="Rectangle-7" fill-rule="evenodd" x="0" y="0" width="8.71794872" height="61"></rect>
                    </g>
                    <g id="door" transform="translate(2537.375091, 949.612992) scale(-1, 1) translate(-2537.375091, -949.612992) translate(2503.434814, 919.198341)" fill="#000000">
                        <path d="M8.71794872,61 L8.71794872,58.0243902 C29.591592,58.0243902 44.1415017,52.2511874 52.5569416,40.7553084 C61.110127,29.0712629 65.1908781,15.5127228 64.7982018,0.0350398052 L68.0018735,-0.0350398052 C68.4099301,16.048874 64.1453697,30.2181314 55.2071993,42.4280843 C46.1312835,54.8262037 30.5717787,61 8.71794872,61 Z" id="Path-5" fill-rule="nonzero"></path>
                        <rect id="Rectangle-7" fill-rule="evenodd" x="0" y="0" width="8.71794872" height="61"></rect>
                    </g>
                </g>
                <g id="Group-3-Copy" transform="translate(2904.000000, 717.000000)">
                    <mask id="mask-2" fill="white">
                        <use xlink:href="#path-1"></use>
                    </mask>
                    <use id="Combined-Shape" fill="#000000" xlink:href="#path-1"></use>
                </g>
                <g id="Group-3-Copy" transform="translate(617.000000, 1022.000000)">
                    <mask id="mask-4" fill="white">
                        <use xlink:href="#path-3"></use>
                    </mask>
                    <use id="Combined-Shape" fill="#000000" xlink:href="#path-3"></use>
                </g>
                <g id="Group-3-Copy-2" transform="translate(2443.000000, 684.000000)">
                    <mask id="mask-6" fill="white">
                        <use xlink:href="#path-5"></use>
                    </mask>
                    <use id="Combined-Shape" fill="#000000" xlink:href="#path-5"></use>
                </g>
                <g id="Group-3-Copy-3" transform="translate(621.000000, 1423.000000)">
                    <mask id="mask-8" fill="white">
                        <use xlink:href="#path-7"></use>
                    </mask>
                    <use id="Combined-Shape" fill="#000000" xlink:href="#path-7"></use>
                </g>
                <g id="Group-3-Copy-4" transform="translate(3013.000000, 488.000000)">
                    <mask id="mask-10" fill="white">
                        <use xlink:href="#path-9"></use>
                    </mask>
                    <use id="Combined-Shape" fill="#000000" xlink:href="#path-9"></use>
                </g>
            </g>
        </g>
    </g>
</svg>