<?xml version="1.0" encoding="UTF-8"?>
<svg width="4824px" height="3324px" viewBox="0 0 4824 3324" version="1.1" xmlns="http://www.w3.org/2000/svg" xmlns:xlink="http://www.w3.org/1999/xlink">
    <!-- Generator: Sketch 50.2 (55047) - http://www.bohemiancoding.com/sketch -->
    <title>Group 4</title>
    <desc>Created with Sketch.</desc>
    <defs>
        <path d="M41.0957172,173 L1.27678571,133.181068 L1.27678571,116.865548 L57.4112376,173 L41.0957172,173 Z M33.7375534,173 L17.422033,173 L1.27678571,156.854753 L1.27678571,140.539232 L33.7375534,173 Z M89.9910714,150.874302 L1.27678571,62.1600158 L1.27678571,45.8444954 L89.9910714,134.558781 L89.9910714,150.874302 Z M89.9910714,158.232465 L89.9910714,173 L88.4430857,173 L1.27678571,85.8337001 L1.27678571,69.5181796 L89.9910714,158.232465 Z M64.7694014,173 L1.27678571,109.507384 L1.27678571,93.1918639 L81.0849219,173 L64.7694014,173 Z M10.0638692,173 L1.27678571,173 L1.27678571,164.212916 L10.0638692,173 Z M89.9910714,32.5058805 L57.4851909,0 L73.8007113,0 L89.9910714,16.1903601 L89.9910714,32.5058805 Z M89.9910714,39.8640443 L89.9910714,56.1795647 L33.8115067,-7.10542736e-15 L50.1270271,0 L89.9910714,39.8640443 Z M89.9910714,8.8321963 L81.1588751,-1.42108547e-14 L89.9910714,0 L89.9910714,8.8321963 Z M89.9910714,63.5377285 L89.9910714,79.8532489 L10.1378225,0 L26.4533429,0 L89.9910714,63.5377285 Z M89.9910714,87.2114127 L89.9910714,103.526933 L1.27678571,14.8126474 L1.27678571,0 L2.7796587,0 L89.9910714,87.2114127 Z M89.9910714,110.885097 L89.9910714,127.200617 L1.27678571,38.4863316 L1.27678571,22.1708112 L89.9910714,110.885097 Z" id="path-1"></path>
        <path d="M26.0058192,81 L1.77635684e-15,54.9941808 L0,35.4558192 L45.5441808,81 L26.0058192,81 Z M17.1941808,81 L0,81 L0,63.8058192 L17.1941808,81 Z M21.2441808,0 L47.7029915,26.4588106 L47.7029915,32.0355588 L53.2797396,32.0355588 L80,58.7558192 L80,78.2941808 L1.70581918,0 L21.2441808,0 Z M30.0558192,0 L47.7029915,0 L47.7029915,17.6471723 L30.0558192,0 Z M62.091378,32.0355588 L80,32.0355588 L80,49.9441808 L62.091378,32.0355588 Z M54.3558192,81 L-1.77635684e-15,26.6441808 L0,7.10581918 L73.8941808,81 L54.3558192,81 Z" id="path-3"></path>
        <path d="M1.28089775,16.202034 L1.28089775,0 L1.60127442,0 L57.6012744,56 L41.2660148,56 L1.37447328,16.1084584 L1.28089775,16.202034 Z M1.28089775,23.3819489 L33.8989488,56 L17.5636893,56 L1.37447328,39.810784 L1.28089775,39.9043596 L1.28089775,23.3819489 Z M56.3729916,0 L72.7082512,0 L88.8974671,16.189216 L88.9910427,16.0956404 L88.9910427,32.6180511 L56.3729916,0 Z M49.0059256,-1.42108547e-14 L88.8974671,39.8915416 L88.9910427,39.797966 L88.9910427,56 L88.670666,56 L32.670666,0 L49.0059256,0 Z M8.96834042,0 L25.3036,0 L81.3036,56 L64.9683404,56 L8.96834042,0 Z M1.28089775,47.0842745 L10.1966233,56 L1.28089775,56 L1.28089775,47.0842745 Z M80.0753172,0 L88.9910427,0 L88.9910427,8.91572551 L80.0753172,-1.42108547e-14 Z" id="path-5"></path>
        <path d="M54.9909061,21.5232705 L54.9909061,38.0435113 L16.9473948,-3.55271368e-15 L33.4676356,0 L54.9909061,21.5232705 Z M54.9909061,14.0727796 L40.9181265,0 L54.9909061,0 L54.9909061,14.0727796 Z M54.9909061,45.4940022 L54.9909061,54 L46.9766631,54 L1.30042989,8.32376678 L1.30042989,0 L9.49690386,0 L54.9909061,45.4940022 Z M39.5261722,54 L23.0059314,54 L1.30042989,32.2944985 L1.30042989,15.7742577 L39.5261722,54 Z M15.5554404,54 L1.30042989,54 L1.30042989,39.7449895 L15.5554404,54 Z" id="path-7"></path>
        <path d="M54.9909061,21.5232705 L54.9909061,38.0435113 L16.9473948,-3.55271368e-15 L33.4676356,0 L54.9909061,21.5232705 Z M54.9909061,14.0727796 L40.9181265,0 L54.9909061,0 L54.9909061,14.0727796 Z M54.9909061,45.4940022 L54.9909061,54 L46.9766631,54 L1.30042989,8.32376678 L1.30042989,0 L9.49690386,0 L54.9909061,45.4940022 Z M39.5261722,54 L23.0059314,54 L1.30042989,32.2944985 L1.30042989,15.7742577 L39.5261722,54 Z M15.5554404,54 L1.30042989,54 L1.30042989,39.7449895 L15.5554404,54 Z" id="path-9"></path>
        <path d="M54.9909061,21.5232705 L54.9909061,38.0435113 L16.9473948,-3.55271368e-15 L33.4676356,0 L54.9909061,21.5232705 Z M54.9909061,14.0727796 L40.9181265,0 L54.9909061,0 L54.9909061,14.0727796 Z M54.9909061,45.4940022 L54.9909061,54 L46.9766631,54 L1.30042989,8.32376678 L1.30042989,0 L9.49690386,0 L54.9909061,45.4940022 Z M39.5261722,54 L23.0059314,54 L1.30042989,32.2944985 L1.30042989,15.7742577 L39.5261722,54 Z M15.5554404,54 L1.30042989,54 L1.30042989,39.7449895 L15.5554404,54 Z" id="path-11"></path>
    </defs>
    <g id="floor-plans" stroke="none" stroke-width="1" fill="none" fill-rule="evenodd">
        <g id="Group-4">
            <g id="Group">
                <path d="M3875.50429,1298.33657 L3875.50429,1559.29576 L3875.50429,1572.21454 L2000.51073,1572.21454 L1994.04077,1572.21454 L1994.04077,1285.4178 L2000.51073,1285.4178 L3875.50429,1285.4178 L3875.50429,1298.33657 Z M3862.56438,1298.33657 L2006.98069,1298.33657 L2006.98069,1559.29576 L3862.56438,1559.29576 L3862.56438,1298.33657 Z M2287.77681,570.994553 L2274.83693,571.024879 L2273.54294,20.6851978 L2286.48281,20.6548721 L2287.77681,570.994553 Z M1719.71459,856.514574 L1706.77468,856.514574 L1706.77468,591.679751 L1719.71459,591.679751 L1719.71459,856.514574 Z M1719.71459,1142.01943 L1706.77468,1142.01943 L1706.77468,985.702293 L1719.71459,985.702293 L1719.71459,1142.01943 Z M45.2896996,2889.92927 L45.2896996,2877.01049 L195.392704,2877.01049 L195.392704,2889.92927 L45.2896996,2889.92927 Z M3196.1588,2830.50291 L3183.21888,2830.50291 L3183.21888,2586.33813 L3196.1588,2586.33813 L3196.1588,2830.50291 Z M3286.7382,2799.49786 L3286.7382,2786.57909 L3746.10515,2786.57909 L3746.10515,2799.49786 L3286.7382,2799.49786 Z M3286.7382,2219.44501 L3286.7382,2206.52623 L3746.10515,2206.52623 L3746.10515,2219.44501 L3286.7382,2219.44501 Z M260.092275,2889.92927 L260.092275,2877.01049 L458.072961,2877.01049 L458.072961,2889.92927 L260.092275,2889.92927 Z M1655.01502,1702.69413 L1642.07511,1702.69413 L1642.07511,1590.30082 L1655.01502,1590.30082 L1655.01502,1702.69413 Z M1655.01502,1525.70696 L1642.07511,1525.70696 L1642.07511,1419.77303 L1655.01502,1419.77303 L1655.01502,1525.70696 Z" id="Combined-Shape" fill="#C2F3FE" fill-rule="nonzero"></path>
                <path d="M2443.05579,2587.63 L2069.09227,2587.63 L2069.09227,2566.95997 L3201.33476,2566.95997 L3201.33476,2587.63 L3033.11588,2587.63 L3033.11588,2813.70851 L3201.33476,2813.70851 L3201.33476,2834.37855 L3024.05794,2834.37855 L3012.41202,2834.37855 L3012.41202,2587.63 L2463.75966,2587.63 L2463.75966,2830.50291 L2445.64378,2830.50291 L2309.77468,2830.50291 L2309.77468,3303.19201 C2575.039,3303.24259 2865.32441,3303.2796 3180.6309,3303.30304 L3180.6309,2896.38865 L3201.33476,2896.38865 L3201.33476,3303.30456 C3375.35591,3303.31713 3556.94604,3303.3256 3746.10515,3303.32997 L3746.10515,1715.6129 L3506.71674,1715.6129 L3506.71674,1694.94287 L3766.80901,1694.94287 L4158.88841,1694.94287 L4158.88841,1419.77303 L4179.59227,1419.77303 L4179.59227,1694.94287 L4609.19742,1694.94287 L4609.19742,1328.04975 L4179.59227,1328.04975 L4179.59227,1359.0548 L4158.88841,1359.0548 L4158.88841,1223.4077 L4179.59227,1223.4077 L4179.59227,1307.37971 L4609.19742,1307.37971 L4609.19742,1222.11582 L4629.90129,1222.11582 L4629.90129,1694.94287 L4803.29614,1694.94287 L4803.29614,587.80412 L4629.90129,587.80412 L4629.90129,697.613681 L4629.90129,705.364944 L4623.43133,705.364944 L4623.43133,843.595803 L4629.90129,843.595803 L4629.90129,864.265838 L4622.13734,864.265838 L4622.13734,1002.4967 L4629.90129,1002.4967 L4629.90129,1023.16673 L4629.90129,1162.68947 L4611.78541,1162.68947 L4349.10515,1162.68947 L4349.10515,1142.01943 L4609.19742,1142.01943 L4609.19742,1023.16673 L4417.6867,1023.16673 L4417.6867,1002.4967 L4417.6867,705.364944 L4417.6867,684.694909 L4609.19742,684.694909 L4609.19742,587.80412 L4179.59227,587.80412 L4179.59227,1142.01943 L4223.58798,1142.01943 L4223.58798,1162.68947 L4179.59227,1162.68947 L4037.25322,1162.68947 L4037.25322,1142.01943 L4158.88841,1142.01943 L4158.88841,20.670035 L3589.53219,20.670035 L3589.53219,551.631558 L3724.75429,551.631558 L3724.75429,564.55033 L3725.40129,564.55033 L3725.40129,1142.01943 L3973.84764,1142.01943 L3973.84764,1162.68947 L3414.84335,1162.68947 L3414.84335,1142.01943 L3704.69742,1142.01943 L3704.69742,572.301593 L3322.96996,572.301593 L3322.96996,1142.01943 L3350.14378,1142.01943 L3350.14378,1162.68947 L2890.77682,1162.68947 L2890.77682,1142.01943 L3302.26609,1142.01943 L3302.26609,572.301593 L3146.98712,572.301593 L3146.98712,551.631558 L3568.82833,551.631558 L3568.82833,20.670035 L1983.68884,20.670035 L1983.68884,337.179946 L1724.89056,337.179946 L1724.89056,591.679751 L1287.52146,591.679751 L1287.52146,1142.01943 L1863.34764,1142.01943 L1863.34764,1419.77303 L1842.64378,1419.77303 L1842.64378,1162.68947 L1287.52146,1162.68947 L1287.52146,1399.10299 L1715.83262,1399.10299 L1715.83262,1419.77303 L1119.30258,1419.77303 L1119.30258,2038.5822 L1119.30258,2250.45006 L1158.12232,2250.45006 L1158.12232,2271.12009 L821.684549,2271.12009 L821.684549,2250.45006 L1098.59871,2250.45006 L1098.59871,2059.25223 L842.388412,2059.25223 L842.388412,2185.8562 L821.684549,2185.8562 L821.684549,2059.25223 L821.684549,1663.16526 L582.003553,1432.6918 L214.954233,1432.6918 L19.825809,3094.98167 C73.2556117,3165.01751 116.019168,3217.63411 148.053728,3252.77247 C164.143351,3270.421 177.462815,3283.5873 187.916562,3292.21564 C192.905832,3296.33369 197.162997,3299.34977 200.604394,3301.24969 C201.4188,3301.60749 287.241656,3301.91921 458.072961,3302.18485 L458.072961,2877.01049 L478.776824,2877.01049 L478.776824,2940.31248 L617.233906,2940.31248 L617.233906,2960.98251 L478.776824,2960.98251 L478.776824,3302.2162 C543.423435,3302.31159 619.337598,3302.40086 706.519313,3302.48403 L706.519313,2960.98251 L679.345494,2960.98251 L679.345494,2940.31248 L756.984979,2940.31248 L756.984979,2960.98251 L727.223176,2960.98251 L727.223176,3302.50347 C796.334915,3302.56735 872.249078,3302.62754 954.965665,3302.68404 L954.965665,2960.98251 L819.096567,2960.98251 L819.096567,2940.31248 L975.669528,2940.31248 L975.669528,2949.35562 L975.669528,3302.69801 C1242.68496,3302.87601 1578.69139,3303.01661 1983.68884,3303.11982 L1983.68884,2566.95997 L2004.3927,2566.95997 L2004.3927,3303.12505 C2095.81056,3303.14793 2190.70326,3303.16892 2289.07082,3303.18803 L2289.07082,2820.1679 L2289.07082,2809.83288 L2443.05579,2809.83288 L2443.05579,2587.63 Z M4824,1700.11038 L4824,1715.6129 L3766.80901,1715.6129 L3766.80901,3324 L205.744635,3324 C190.588395,3324 167.987226,3305.3454 132.74241,3266.68575 C99.7183814,3230.46205 55.7655076,3176.31326 0.818025505,3104.17754 L196.535037,1412.02176 L590.35267,1412.02176 L842.388412,1654.37535 L842.388412,2038.5822 L1098.59871,2038.5822 L1098.59871,1419.77303 L1098.59871,1399.10299 L1266.8176,1399.10299 L1266.8176,1162.68947 L1266.8176,571.009716 L1704.1867,571.009716 L1704.1867,316.509911 L1962.98498,316.509911 L1962.98498,0 L4179.59227,0 L4179.59227,567.134085 L4803.29614,567.134085 L4824,567.134085 L4824,1700.11038 Z M3194.86481,1715.6129 L3194.86481,1763.41236 L3174.16094,1763.41236 L3174.16094,1715.6129 L2739.37983,1715.6129 L2739.37983,1980.44773 L3174.16094,1980.44773 L3174.16094,1826.71434 L3194.86481,1826.71434 L3194.86481,2047.62534 L3174.16094,2047.62534 L3174.16094,2001.11776 L2739.37983,2001.11776 L2739.37983,2262.07695 L3174.16094,2262.07695 L3174.16094,2110.92732 L3194.86481,2110.92732 L3194.86481,2329.25457 L3174.16094,2329.25457 L3174.16094,2282.74699 L2739.37983,2282.74699 L2739.37983,2423.5616 L3174.16094,2423.5616 L3174.16094,2391.26467 L3194.86481,2391.26467 L3194.86481,2423.5616 L3194.86481,2444.23164 L2252.83906,2444.23164 L2252.83906,2423.5616 L2252.83906,2169.0618 L2273.54292,2169.0618 L2273.54292,2423.5616 L2718.67597,2423.5616 L2718.67597,2078.63039 L2273.54292,2078.63039 L2273.54292,2105.75981 L2252.83906,2105.75981 L2252.83906,2026.95531 L2273.54292,2026.95531 L2273.54292,2057.96036 L2718.67597,2057.96036 L2718.67597,1715.6129 L2273.54292,1715.6129 L2273.54292,1963.65332 L2252.83906,1963.65332 L2252.83906,1715.6129 L2041.91845,1715.6129 L2041.91845,1694.94287 L3382.49356,1694.94287 L3382.49356,1715.6129 L3194.86481,1715.6129 Z M1701.59871,1694.94287 L1722.30258,1694.94287 L1916.40129,1694.94287 L1916.40129,1715.6129 L1722.30258,1715.6129 L1722.30258,2011.45278 L1872.40558,2011.45278 L1872.40558,2032.12281 L1480.32618,2032.12281 L1480.32618,2158.72678 L1851.70172,2158.72678 L1851.70172,2095.4248 L1872.40558,2095.4248 L1872.40558,2337.00583 L1872.40558,2342.17334 L1792.17811,2342.17334 L1792.17811,2321.5033 L1851.70172,2321.5033 L1851.70172,2179.39681 L1639.48712,2179.39681 L1639.48712,2321.5033 L1730.06652,2321.5033 L1730.06652,2342.17334 L1639.48712,2342.17334 L1639.48712,2419.68597 L1618.78326,2419.68597 L1359.98498,2419.68597 L1359.98498,2399.01593 L1618.78326,2399.01593 L1618.78326,2179.39681 L1459.62232,2179.39681 L1459.62232,2163.89429 L1459.62232,2129.0136 L1295.28541,2129.0136 L1295.28541,2419.68597 L1274.58155,2419.68597 L1274.58155,2271.12009 L1220.23391,2271.12009 L1220.23391,2250.45006 L1274.58155,2250.45006 L1274.58155,1694.94287 L1295.28541,1694.94287 L1701.59871,1694.94287 Z M1701.59871,1715.6129 L1295.28541,1715.6129 L1295.28541,2108.34357 L1459.62232,2108.34357 L1459.62232,2011.45278 L1480.32618,2011.45278 L1701.59871,2011.45278 L1701.59871,1715.6129 Z M4609.19742,1002.4967 L4609.19742,864.265838 L4438.39056,864.265838 L4438.39056,1002.4967 L4609.19742,1002.4967 Z M4610.49142,705.364944 L4438.39056,705.364944 L4438.39056,843.595803 L4610.49142,843.595803 L4610.49142,705.364944 Z M1300.46137,2811.12476 L1300.46137,2597.96502 L1072.71888,2597.96502 L1072.71888,2631.55383 L1052.01502,2631.55383 L1052.01502,2577.29499 L1072.71888,2577.29499 L1321.16524,2577.29499 L1321.16524,2585.04625 L1321.16524,2831.79479 L1300.46137,2831.79479 L1052.01502,2831.79479 L1052.01502,2829.21104 L1052.01502,2693.56393 L1072.71888,2693.56393 L1072.71888,2811.12476 L1300.46137,2811.12476 Z M1921.57725,1162.68947 L1921.57725,1142.01943 L2826.07725,1142.01943 L2826.07725,1162.68947 L1921.57725,1162.68947 Z M1785.70815,591.679751 L1785.70815,571.009716 L2292.95279,571.009716 L2292.95279,591.679751 L1785.70815,591.679751 Z" id="Combined-Shape" fill="#000000" fill-rule="nonzero"></path>
                <g id="door" transform="translate(1714.538627, 1399.102993)" fill="#000000">
                    <path d="M8.33333333,58 L8.33333333,55.1707317 C28.2860806,55.1707317 42.1940825,49.6814568 50.238253,38.750949 C58.414092,27.6415287 62.3148099,14.749802 61.9394576,0.0333165361 L65.0017908,-0.0333165361 C65.3918449,15.2595851 61.3154269,28.7319938 52.7715876,40.3414572 C44.0960798,52.129833 29.2230237,58 8.33333333,58 Z" id="Path-5" fill-rule="nonzero"></path>
                    <rect id="Rectangle-7" fill-rule="evenodd" x="0" y="0" width="8.33333333" height="58"></rect>
                </g>
                <g id="door" transform="translate(1735.889485, 953.405363) rotate(-90.000000) translate(-1735.889485, -953.405363) translate(1703.539700, 924.338127)" fill="#000000">
                    <path d="M8.33333333,58 L8.33333333,55.1707317 C28.2860806,55.1707317 42.1940825,49.6814568 50.238253,38.750949 C58.414092,27.6415287 62.3148099,14.749802 61.9394576,0.0333165361 L65.0017908,-0.0333165361 C65.3918449,15.2595851 61.3154269,28.7319938 52.7715876,40.3414572 C44.0960798,52.129833 29.2230237,58 8.33333333,58 Z" id="Path-5" fill-rule="nonzero"></path>
                    <rect id="Rectangle-7" fill-rule="evenodd" x="0" y="0" width="8.33333333" height="58"></rect>
                </g>
                <g id="door" transform="translate(1811.587983, 1428.170229) scale(-1, 1) translate(-1811.587983, -1428.170229) translate(1779.238197, 1399.102993)" fill="#000000">
                    <path d="M8.33333333,58 L8.33333333,55.1707317 C28.2860806,55.1707317 42.1940825,49.6814568 50.238253,38.750949 C58.414092,27.6415287 62.3148099,14.749802 61.9394576,0.0333165361 L65.0017908,-0.0333165361 C65.3918449,15.2595851 61.3154269,28.7319938 52.7715876,40.3414572 C44.0960798,52.129833 29.2230237,58 8.33333333,58 Z" id="Path-5" fill-rule="nonzero"></path>
                    <rect id="Rectangle-7" fill-rule="evenodd" x="0" y="0" width="8.33333333" height="58"></rect>
                </g>
                <g id="door" transform="translate(1735.889485, 888.811504) scale(1, -1) rotate(-90.000000) translate(-1735.889485, -888.811504) translate(1703.539700, 859.744267)" fill="#000000">
                    <path d="M8.33333333,58 L8.33333333,55.1707317 C28.2860806,55.1707317 42.1940825,49.6814568 50.238253,38.750949 C58.414092,27.6415287 62.3148099,14.749802 61.9394576,0.0333165361 L65.0017908,-0.0333165361 C65.3918449,15.2595851 61.3154269,28.7319938 52.7715876,40.3414572 C44.0960798,52.129833 29.2230237,58 8.33333333,58 Z" id="Path-5" fill-rule="nonzero"></path>
                    <rect id="Rectangle-7" fill-rule="evenodd" x="0" y="0" width="8.33333333" height="58"></rect>
                </g>
                <g id="door" transform="translate(1894.403433, 1171.086669) scale(-1, 1) translate(-1894.403433, -1171.086669) translate(1862.053648, 1142.019433)" fill="#000000">
                    <path d="M8.33333333,58 L8.33333333,55.1707317 C28.2860806,55.1707317 42.1940825,49.6814568 50.238253,38.750949 C58.414092,27.6415287 62.3148099,14.749802 61.9394576,0.0333165361 L65.0017908,-0.0333165361 C65.3918449,15.2595851 61.3154269,28.7319938 52.7715876,40.3414572 C44.0960798,52.129833 29.2230237,58 8.33333333,58 Z" id="Path-5" fill-rule="nonzero"></path>
                    <rect id="Rectangle-7" fill-rule="evenodd" x="0" y="0" width="8.33333333" height="58"></rect>
                </g>
                <g id="door" transform="translate(1757.240343, 600.076953) scale(-1, 1) translate(-1757.240343, -600.076953) translate(1724.890558, 571.009716)" fill="#000000">
                    <path d="M8.33333333,58 L8.33333333,55.1707317 C28.2860806,55.1707317 42.1940825,49.6814568 50.238253,38.750949 C58.414092,27.6415287 62.3148099,14.749802 61.9394576,0.0333165361 L65.0017908,-0.0333165361 C65.3918449,15.2595851 61.3154269,28.7319938 52.7715876,40.3414572 C44.0960798,52.129833 29.2230237,58 8.33333333,58 Z" id="Path-5" fill-rule="nonzero"></path>
                    <rect id="Rectangle-7" fill-rule="evenodd" x="0" y="0" width="8.33333333" height="58"></rect>
                </g>
                <g id="door" transform="translate(2858.427039, 1171.086669) scale(-1, 1) translate(-2858.427039, -1171.086669) translate(2826.077253, 1142.019433)" fill="#000000">
                    <path d="M8.33333333,58 L8.33333333,55.1707317 C28.2860806,55.1707317 42.1940825,49.6814568 50.238253,38.750949 C58.414092,27.6415287 62.3148099,14.749802 61.9394576,0.0333165361 L65.0017908,-0.0333165361 C65.3918449,15.2595851 61.3154269,28.7319938 52.7715876,40.3414572 C44.0960798,52.129833 29.2230237,58 8.33333333,58 Z" id="Path-5" fill-rule="nonzero"></path>
                    <rect id="Rectangle-7" fill-rule="evenodd" x="0" y="0" width="8.33333333" height="58"></rect>
                </g>
                <g id="door" transform="translate(3382.493562, 1171.086669) scale(-1, 1) translate(-3382.493562, -1171.086669) translate(3350.143777, 1142.019433)" fill="#000000">
                    <path d="M8.33333333,58 L8.33333333,55.1707317 C28.2860806,55.1707317 42.1940825,49.6814568 50.238253,38.750949 C58.414092,27.6415287 62.3148099,14.749802 61.9394576,0.0333165361 L65.0017908,-0.0333165361 C65.3918449,15.2595851 61.3154269,28.7319938 52.7715876,40.3414572 C44.0960798,52.129833 29.2230237,58 8.33333333,58 Z" id="Path-5" fill-rule="nonzero"></path>
                    <rect id="Rectangle-7" fill-rule="evenodd" x="0" y="0" width="8.33333333" height="58"></rect>
                </g>
                <g id="door" transform="translate(4006.197425, 1171.086669) scale(-1, 1) translate(-4006.197425, -1171.086669) translate(3973.847639, 1142.019433)" fill="#000000">
                    <path d="M8.33333333,58 L8.33333333,55.1707317 C28.2860806,55.1707317 42.1940825,49.6814568 50.238253,38.750949 C58.414092,27.6415287 62.3148099,14.749802 61.9394576,0.0333165361 L65.0017908,-0.0333165361 C65.3918449,15.2595851 61.3154269,28.7319938 52.7715876,40.3414572 C44.0960798,52.129833 29.2230237,58 8.33333333,58 Z" id="Path-5" fill-rule="nonzero"></path>
                    <rect id="Rectangle-7" fill-rule="evenodd" x="0" y="0" width="8.33333333" height="58"></rect>
                </g>
                <g id="door" transform="translate(3172.219957, 2866.675476) scale(1, -1) rotate(90.000000) translate(-3172.219957, -2866.675476) translate(3139.870172, 2837.608239)" fill="#000000">
                    <path d="M8.33333333,58 L8.33333333,55.1707317 C28.2860806,55.1707317 42.1940825,49.6814568 50.238253,38.750949 C58.414092,27.6415287 62.3148099,14.749802 61.9394576,0.0333165361 L65.0017908,-0.0333165361 C65.3918449,15.2595851 61.3154269,28.7319938 52.7715876,40.3414572 C44.0960798,52.129833 29.2230237,58 8.33333333,58 Z" id="Path-5" fill-rule="nonzero"></path>
                    <rect id="Rectangle-7" fill-rule="evenodd" x="0" y="0" width="8.33333333" height="58"></rect>
                </g>
                <g id="door" transform="translate(646.995708, 2931.915274) scale(1, -1) translate(-646.995708, -2931.915274) translate(614.645923, 2902.848037)" fill="#000000">
                    <path d="M8.33333333,58 L8.33333333,55.1707317 C28.2860806,55.1707317 42.1940825,49.6814568 50.238253,38.750949 C58.414092,27.6415287 62.3148099,14.749802 61.9394576,0.0333165361 L65.0017908,-0.0333165361 C65.3918449,15.2595851 61.3154269,28.7319938 52.7715876,40.3414572 C44.0960798,52.129833 29.2230237,58 8.33333333,58 Z" id="Path-5" fill-rule="nonzero"></path>
                    <rect id="Rectangle-7" fill-rule="evenodd" x="0" y="0" width="8.33333333" height="58"></rect>
                </g>
                <g id="door" transform="translate(1947.457082, 1686.545667) scale(1, -1) translate(-1947.457082, -1686.545667) translate(1915.107296, 1657.478430)" fill="#000000">
                    <path d="M8.33333333,58 L8.33333333,55.1707317 C28.2860806,55.1707317 42.1940825,49.6814568 50.238253,38.750949 C58.414092,27.6415287 62.3148099,14.749802 61.9394576,0.0333165361 L65.0017908,-0.0333165361 C65.3918449,15.2595851 61.3154269,28.7319938 52.7715876,40.3414572 C44.0960798,52.129833 29.2230237,58 8.33333333,58 Z" id="Path-5" fill-rule="nonzero"></path>
                    <rect id="Rectangle-7" fill-rule="evenodd" x="0" y="0" width="8.33333333" height="58"></rect>
                </g>
                <g id="door" transform="translate(3410.961373, 1686.545667) scale(1, -1) translate(-3410.961373, -1686.545667) translate(3378.611588, 1657.478430)" fill="#000000">
                    <path d="M8.33333333,58 L8.33333333,55.1707317 C28.2860806,55.1707317 42.1940825,49.6814568 50.238253,38.750949 C58.414092,27.6415287 62.3148099,14.749802 61.9394576,0.0333165361 L65.0017908,-0.0333165361 C65.3918449,15.2595851 61.3154269,28.7319938 52.7715876,40.3414572 C44.0960798,52.129833 29.2230237,58 8.33333333,58 Z" id="Path-5" fill-rule="nonzero"></path>
                    <rect id="Rectangle-7" fill-rule="evenodd" x="0" y="0" width="8.33333333" height="58"></rect>
                </g>
                <g id="door" transform="translate(4254.643777, 1133.622231) scale(1, -1) translate(-4254.643777, -1133.622231) translate(4222.293991, 1104.554994)" fill="#000000">
                    <path d="M8.33333333,58 L8.33333333,55.1707317 C28.2860806,55.1707317 42.1940825,49.6814568 50.238253,38.750949 C58.414092,27.6415287 62.3148099,14.749802 61.9394576,0.0333165361 L65.0017908,-0.0333165361 C65.3918449,15.2595851 61.3154269,28.7319938 52.7715876,40.3414572 C44.0960798,52.129833 29.2230237,58 8.33333333,58 Z" id="Path-5" fill-rule="nonzero"></path>
                    <rect id="Rectangle-7" fill-rule="evenodd" x="0" y="0" width="8.33333333" height="58"></rect>
                </g>
                <g id="door" transform="translate(2012.156652, 1686.545667) scale(-1, -1) translate(-2012.156652, -1686.545667) translate(1979.806867, 1657.478430)" fill="#000000">
                    <path d="M8.33333333,58 L8.33333333,55.1707317 C28.2860806,55.1707317 42.1940825,49.6814568 50.238253,38.750949 C58.414092,27.6415287 62.3148099,14.749802 61.9394576,0.0333165361 L65.0017908,-0.0333165361 C65.3918449,15.2595851 61.3154269,28.7319938 52.7715876,40.3414572 C44.0960798,52.129833 29.2230237,58 8.33333333,58 Z" id="Path-5" fill-rule="nonzero"></path>
                    <rect id="Rectangle-7" fill-rule="evenodd" x="0" y="0" width="8.33333333" height="58"></rect>
                </g>
                <g id="door" transform="translate(3475.660944, 1686.545667) scale(-1, -1) translate(-3475.660944, -1686.545667) translate(3443.311159, 1657.478430)" fill="#000000">
                    <path d="M8.33333333,58 L8.33333333,55.1707317 C28.2860806,55.1707317 42.1940825,49.6814568 50.238253,38.750949 C58.414092,27.6415287 62.3148099,14.749802 61.9394576,0.0333165361 L65.0017908,-0.0333165361 C65.3918449,15.2595851 61.3154269,28.7319938 52.7715876,40.3414572 C44.0960798,52.129833 29.2230237,58 8.33333333,58 Z" id="Path-5" fill-rule="nonzero"></path>
                    <rect id="Rectangle-7" fill-rule="evenodd" x="0" y="0" width="8.33333333" height="58"></rect>
                </g>
                <g id="door" transform="translate(4319.343348, 1133.622231) scale(-1, -1) translate(-4319.343348, -1133.622231) translate(4286.993562, 1104.554994)" fill="#000000">
                    <path d="M8.33333333,58 L8.33333333,55.1707317 C28.2860806,55.1707317 42.1940825,49.6814568 50.238253,38.750949 C58.414092,27.6415287 62.3148099,14.749802 61.9394576,0.0333165361 L65.0017908,-0.0333165361 C65.3918449,15.2595851 61.3154269,28.7319938 52.7715876,40.3414572 C44.0960798,52.129833 29.2230237,58 8.33333333,58 Z" id="Path-5" fill-rule="nonzero"></path>
                    <rect id="Rectangle-7" fill-rule="evenodd" x="0" y="0" width="8.33333333" height="58"></rect>
                </g>
                <g id="door" transform="translate(1187.884120, 2242.052857) scale(1, -1) translate(-1187.884120, -2242.052857) translate(1155.534335, 2212.985620)" fill="#000000">
                    <path d="M8.33333333,58 L8.33333333,55.1707317 C28.2860806,55.1707317 42.1940825,49.6814568 50.238253,38.750949 C58.414092,27.6415287 62.3148099,14.749802 61.9394576,0.0333165361 L65.0017908,-0.0333165361 C65.3918449,15.2595851 61.3154269,28.7319938 52.7715876,40.3414572 C44.0960798,52.129833 29.2230237,58 8.33333333,58 Z" id="Path-5" fill-rule="nonzero"></path>
                    <rect id="Rectangle-7" fill-rule="evenodd" x="0" y="0" width="8.33333333" height="58"></rect>
                </g>
                <g id="door" transform="translate(227.742489, 2860.862029) scale(1, -1) translate(-227.742489, -2860.862029) translate(195.392704, 2831.794792)" fill="#000000">
                    <path d="M8.33333333,58 L8.33333333,55.1707317 C28.2860806,55.1707317 42.1940825,49.6814568 50.238253,38.750949 C58.414092,27.6415287 62.3148099,14.749802 61.9394576,0.0333165361 L65.0017908,-0.0333165361 C65.3918449,15.2595851 61.3154269,28.7319938 52.7715876,40.3414572 C44.0960798,52.129833 29.2230237,58 8.33333333,58 Z" id="Path-5" fill-rule="nonzero"></path>
                    <rect id="Rectangle-7" fill-rule="evenodd" x="0" y="0" width="8.33333333" height="58"></rect>
                </g>
                <g id="door" transform="translate(2036.742489, 2558.562767) scale(1, -1) translate(-2036.742489, -2558.562767) translate(2004.392704, 2529.495531)" fill="#000000">
                    <path d="M8.33333333,58 L8.33333333,55.1707317 C28.2860806,55.1707317 42.1940825,49.6814568 50.238253,38.750949 C58.414092,27.6415287 62.3148099,14.749802 61.9394576,0.0333165361 L65.0017908,-0.0333165361 C65.3918449,15.2595851 61.3154269,28.7319938 52.7715876,40.3414572 C44.0960798,52.129833 29.2230237,58 8.33333333,58 Z" id="Path-5" fill-rule="nonzero"></path>
                    <rect id="Rectangle-7" fill-rule="evenodd" x="0" y="0" width="8.33333333" height="58"></rect>
                </g>
                <g id="door" transform="translate(1295.285408, 2399.015935)" fill="#000000">
                    <path d="M8.33333333,58 L8.33333333,55.1707317 C28.2860806,55.1707317 42.1940825,49.6814568 50.238253,38.750949 C58.414092,27.6415287 62.3148099,14.749802 61.9394576,0.0333165361 L65.0017908,-0.0333165361 C65.3918449,15.2595851 61.3154269,28.7319938 52.7715876,40.3414572 C44.0960798,52.129833 29.2230237,58 8.33333333,58 Z" id="Path-5" fill-rule="nonzero"></path>
                    <rect id="Rectangle-7" fill-rule="evenodd" x="0" y="0" width="8.33333333" height="58"></rect>
                </g>
                <g id="door" transform="translate(1727.478541, 2321.503304)" fill="#000000">
                    <path d="M8.33333333,58 L8.33333333,55.1707317 C28.2860806,55.1707317 42.1940825,49.6814568 50.238253,38.750949 C58.414092,27.6415287 62.3148099,14.749802 61.9394576,0.0333165361 L65.0017908,-0.0333165361 C65.3918449,15.2595851 61.3154269,28.7319938 52.7715876,40.3414572 C44.0960798,52.129833 29.2230237,58 8.33333333,58 Z" id="Path-5" fill-rule="nonzero"></path>
                    <rect id="Rectangle-7" fill-rule="evenodd" x="0" y="0" width="8.33333333" height="58"></rect>
                </g>
                <g id="door" transform="translate(786.746781, 2931.915274) scale(1, -1) translate(-786.746781, -2931.915274) translate(754.396996, 2902.848037)" fill="#000000">
                    <path d="M8.33333333,58 L8.33333333,55.1707317 C28.2860806,55.1707317 42.1940825,49.6814568 50.238253,38.750949 C58.414092,27.6415287 62.3148099,14.749802 61.9394576,0.0333165361 L65.0017908,-0.0333165361 C65.3918449,15.2595851 61.3154269,28.7319938 52.7715876,40.3414572 C44.0960798,52.129833 29.2230237,58 8.33333333,58 Z" id="Path-5" fill-rule="nonzero"></path>
                    <rect id="Rectangle-7" fill-rule="evenodd" x="0" y="0" width="8.33333333" height="58"></rect>
                </g>
                <g id="door" transform="translate(1043.604077, 2663.850758) scale(1, -1) rotate(90.000000) translate(-1043.604077, -2663.850758) translate(1011.254292, 2634.783521)" fill="#000000">
                    <path d="M8.33333333,58 L8.33333333,55.1707317 C28.2860806,55.1707317 42.1940825,49.6814568 50.238253,38.750949 C58.414092,27.6415287 62.3148099,14.749802 61.9394576,0.0333165361 L65.0017908,-0.0333165361 C65.3918449,15.2595851 61.3154269,28.7319938 52.7715876,40.3414572 C44.0960798,52.129833 29.2230237,58 8.33333333,58 Z" id="Path-5" fill-rule="nonzero"></path>
                    <rect id="Rectangle-7" fill-rule="evenodd" x="0" y="0" width="8.33333333" height="58"></rect>
                </g>
                <g id="door" transform="translate(2244.428112, 2138.056743) scale(1, -1) rotate(90.000000) translate(-2244.428112, -2138.056743) translate(2212.078326, 2108.989506)" fill="#000000">
                    <path d="M8.33333333,58 L8.33333333,55.1707317 C28.2860806,55.1707317 42.1940825,49.6814568 50.238253,38.750949 C58.414092,27.6415287 62.3148099,14.749802 61.9394576,0.0333165361 L65.0017908,-0.0333165361 C65.3918449,15.2595851 61.3154269,28.7319938 52.7715876,40.3414572 C44.0960798,52.129833 29.2230237,58 8.33333333,58 Z" id="Path-5" fill-rule="nonzero"></path>
                    <rect id="Rectangle-7" fill-rule="evenodd" x="0" y="0" width="8.33333333" height="58"></rect>
                </g>
                <g id="door" transform="translate(2244.428112, 1995.950253) scale(1, -1) rotate(90.000000) translate(-2244.428112, -1995.950253) translate(2212.078326, 1966.883016)" fill="#000000">
                    <path d="M8.33333333,58 L8.33333333,55.1707317 C28.2860806,55.1707317 42.1940825,49.6814568 50.238253,38.750949 C58.414092,27.6415287 62.3148099,14.749802 61.9394576,0.0333165361 L65.0017908,-0.0333165361 C65.3918449,15.2595851 61.3154269,28.7319938 52.7715876,40.3414572 C44.0960798,52.129833 29.2230237,58 8.33333333,58 Z" id="Path-5" fill-rule="nonzero"></path>
                    <rect id="Rectangle-7" fill-rule="evenodd" x="0" y="0" width="8.33333333" height="58"></rect>
                </g>
                <g id="door" transform="translate(4150.477468, 1194.986397) scale(1, -1) rotate(90.000000) translate(-4150.477468, -1194.986397) translate(4118.127682, 1165.919161)" fill="#000000">
                    <path d="M8.33333333,58 L8.33333333,55.1707317 C28.2860806,55.1707317 42.1940825,49.6814568 50.238253,38.750949 C58.414092,27.6415287 62.3148099,14.749802 61.9394576,0.0333165361 L65.0017908,-0.0333165361 C65.3918449,15.2595851 61.3154269,28.7319938 52.7715876,40.3414572 C44.0960798,52.129833 29.2230237,58 8.33333333,58 Z" id="Path-5" fill-rule="nonzero"></path>
                    <rect id="Rectangle-7" fill-rule="evenodd" x="0" y="0" width="8.33333333" height="58"></rect>
                </g>
                <g id="door" transform="translate(4150.477468, 1391.351729) scale(1, -1) rotate(90.000000) translate(-4150.477468, -1391.351729) translate(4118.127682, 1362.284493)" fill="#000000">
                    <path d="M8.33333333,58 L8.33333333,55.1707317 C28.2860806,55.1707317 42.1940825,49.6814568 50.238253,38.750949 C58.414092,27.6415287 62.3148099,14.749802 61.9394576,0.0333165361 L65.0017908,-0.0333165361 C65.3918449,15.2595851 61.3154269,28.7319938 52.7715876,40.3414572 C44.0960798,52.129833 29.2230237,58 8.33333333,58 Z" id="Path-5" fill-rule="nonzero"></path>
                    <rect id="Rectangle-7" fill-rule="evenodd" x="0" y="0" width="8.33333333" height="58"></rect>
                </g>
                <g id="door" transform="translate(4600.786481, 1194.986397) scale(1, -1) rotate(90.000000) translate(-4600.786481, -1194.986397) translate(4568.436695, 1165.919161)" fill="#000000">
                    <path d="M8.33333333,58 L8.33333333,55.1707317 C28.2860806,55.1707317 42.1940825,49.6814568 50.238253,38.750949 C58.414092,27.6415287 62.3148099,14.749802 61.9394576,0.0333165361 L65.0017908,-0.0333165361 C65.3918449,15.2595851 61.3154269,28.7319938 52.7715876,40.3414572 C44.0960798,52.129833 29.2230237,58 8.33333333,58 Z" id="Path-5" fill-rule="nonzero"></path>
                    <rect id="Rectangle-7" fill-rule="evenodd" x="0" y="0" width="8.33333333" height="58"></rect>
                </g>
                <g id="door" transform="translate(1880.816524, 2064.419743) scale(-1, -1) rotate(90.000000) translate(-1880.816524, -2064.419743) translate(1848.466738, 2035.352507)" fill="#000000">
                    <path d="M8.33333333,58 L8.33333333,55.1707317 C28.2860806,55.1707317 42.1940825,49.6814568 50.238253,38.750949 C58.414092,27.6415287 62.3148099,14.749802 61.9394576,0.0333165361 L65.0017908,-0.0333165361 C65.3918449,15.2595851 61.3154269,28.7319938 52.7715876,40.3414572 C44.0960798,52.129833 29.2230237,58 8.33333333,58 Z" id="Path-5" fill-rule="nonzero"></path>
                    <rect id="Rectangle-7" fill-rule="evenodd" x="0" y="0" width="8.33333333" height="58"></rect>
                </g>
                <g id="door" transform="translate(1671.189914, 1558.003887) scale(-1, -1) rotate(90.000000) translate(-1671.189914, -1558.003887) translate(1638.840129, 1528.936650)" fill="#000000">
                    <path d="M8.33333333,58 L8.33333333,55.1707317 C28.2860806,55.1707317 42.1940825,49.6814568 50.238253,38.750949 C58.414092,27.6415287 62.3148099,14.749802 61.9394576,0.0333165361 L65.0017908,-0.0333165361 C65.3918449,15.2595851 61.3154269,28.7319938 52.7715876,40.3414572 C44.0960798,52.129833 29.2230237,58 8.33333333,58 Z" id="Path-5" fill-rule="nonzero"></path>
                    <rect id="Rectangle-7" fill-rule="evenodd" x="0" y="0" width="8.33333333" height="58"></rect>
                </g>
                <g id="door" transform="translate(3203.275751, 1795.709289) scale(-1, -1) rotate(90.000000) translate(-3203.275751, -1795.709289) translate(3170.925966, 1766.642052)" fill="#000000">
                    <path d="M8.33333333,58 L8.33333333,55.1707317 C28.2860806,55.1707317 42.1940825,49.6814568 50.238253,38.750949 C58.414092,27.6415287 62.3148099,14.749802 61.9394576,0.0333165361 L65.0017908,-0.0333165361 C65.3918449,15.2595851 61.3154269,28.7319938 52.7715876,40.3414572 C44.0960798,52.129833 29.2230237,58 8.33333333,58 Z" id="Path-5" fill-rule="nonzero"></path>
                    <rect id="Rectangle-7" fill-rule="evenodd" x="0" y="0" width="8.33333333" height="58"></rect>
                </g>
                <g id="door" transform="translate(3203.275751, 2079.922270) scale(-1, -1) rotate(90.000000) translate(-3203.275751, -2079.922270) translate(3170.925966, 2050.855033)" fill="#000000">
                    <path d="M8.33333333,58 L8.33333333,55.1707317 C28.2860806,55.1707317 42.1940825,49.6814568 50.238253,38.750949 C58.414092,27.6415287 62.3148099,14.749802 61.9394576,0.0333165361 L65.0017908,-0.0333165361 C65.3918449,15.2595851 61.3154269,28.7319938 52.7715876,40.3414572 C44.0960798,52.129833 29.2230237,58 8.33333333,58 Z" id="Path-5" fill-rule="nonzero"></path>
                    <rect id="Rectangle-7" fill-rule="evenodd" x="0" y="0" width="8.33333333" height="58"></rect>
                </g>
                <g id="door" transform="translate(3203.275751, 2361.551496) scale(-1, -1) rotate(90.000000) translate(-3203.275751, -2361.551496) translate(3170.925966, 2332.484260)" fill="#000000">
                    <path d="M8.33333333,58 L8.33333333,55.1707317 C28.2860806,55.1707317 42.1940825,49.6814568 50.238253,38.750949 C58.414092,27.6415287 62.3148099,14.749802 61.9394576,0.0333165361 L65.0017908,-0.0333165361 C65.3918449,15.2595851 61.3154269,28.7319938 52.7715876,40.3414572 C44.0960798,52.129833 29.2230237,58 8.33333333,58 Z" id="Path-5" fill-rule="nonzero"></path>
                    <rect id="Rectangle-7" fill-rule="evenodd" x="0" y="0" width="8.33333333" height="58"></rect>
                </g>
                <g id="door" transform="translate(813.273605, 2218.153129) scale(1, -1) rotate(90.000000) translate(-813.273605, -2218.153129) translate(780.923820, 2189.085892)" fill="#000000">
                    <path d="M8.33333333,58 L8.33333333,55.1707317 C28.2860806,55.1707317 42.1940825,49.6814568 50.238253,38.750949 C58.414092,27.6415287 62.3148099,14.749802 61.9394576,0.0333165361 L65.0017908,-0.0333165361 C65.3918449,15.2595851 61.3154269,28.7319938 52.7715876,40.3414572 C44.0960798,52.129833 29.2230237,58 8.33333333,58 Z" id="Path-5" fill-rule="nonzero"></path>
                    <rect id="Rectangle-7" fill-rule="evenodd" x="0" y="0" width="8.33333333" height="58"></rect>
                </g>
            </g>
            <g id="Group-3" transform="translate(2892.000000, 482.000000)">
                <mask id="mask-2" fill="white">
                    <use xlink:href="#path-1"></use>
                </mask>
                <use id="Combined-Shape" fill="#000000" xlink:href="#path-1"></use>
            </g>
            <g id="Group-3-Copy-2" transform="translate(1511.000000, 2789.000000)">
                <mask id="mask-4" fill="white">
                    <use xlink:href="#path-3"></use>
                </mask>
                <use id="Combined-Shape" fill="#000000" xlink:href="#path-3"></use>
            </g>
            <g id="Group-3-Copy" transform="translate(2660.000000, 543.000000)">
                <mask id="mask-6" fill="white">
                    <use xlink:href="#path-5"></use>
                </mask>
                <use id="Combined-Shape" fill="#000000" xlink:href="#path-5"></use>
            </g>
            <g id="Group-3-Copy-7" transform="translate(429.000000, 2776.000000)">
                <mask id="mask-8" fill="white">
                    <use xlink:href="#path-7"></use>
                </mask>
                <use id="Combined-Shape" fill="#000000" xlink:href="#path-7"></use>
            </g>
            <g id="Group-3-Copy-8" transform="translate(429.000000, 2255.000000)">
                <mask id="mask-10" fill="white">
                    <use xlink:href="#path-9"></use>
                </mask>
                <use id="Combined-Shape" fill="#000000" xlink:href="#path-9"></use>
            </g>
            <g id="Group-3-Copy-9" transform="translate(429.000000, 1661.000000)">
                <mask id="mask-12" fill="white">
                    <use xlink:href="#path-11"></use>
                </mask>
                <use id="Combined-Shape" fill="#000000" xlink:href="#path-11"></use>
            </g>
        </g>
    </g>
</svg>