<?xml version="1.0" encoding="UTF-8"?>
<svg width="3618px" height="2493px" viewBox="0 0 3618 2493" version="1.1" xmlns="http://www.w3.org/2000/svg" xmlns:xlink="http://www.w3.org/1999/xlink">
    <!-- Generator: Sketch 51.1 (57501) - http://www.bohemiancoding.com/sketch -->
    <title>Group 4 Copy</title>
    <desc>Created with Sketch.</desc>
    <defs>
        <path d="M30.8217879,129.75 L0.957589286,99.8858014 L0.957589286,87.649161 L43.0584282,129.75 L30.8217879,129.75 Z M25.3031651,129.75 L13.0665248,129.75 L0.957589286,117.641065 L0.957589286,105.404424 L25.3031651,129.75 Z M67.4933036,113.155726 L0.957589286,46.6200119 L0.957589286,34.3833716 L67.4933036,100.919086 L67.4933036,113.155726 Z M67.4933036,118.674349 L67.4933036,129.75 L66.3323142,129.75 L0.957589286,64.375275 L0.957589286,52.1386347 L67.4933036,118.674349 Z M48.5770511,129.75 L0.957589286,82.1305382 L0.957589286,69.8938979 L60.8136914,129.75 L48.5770511,129.75 Z M7.54790192,129.75 L0.957589286,129.75 L0.957589286,123.159687 L7.54790192,129.75 Z M67.4933036,24.3794104 L43.1138932,0 L55.3505335,0 L67.4933036,12.1427701 L67.4933036,24.3794104 Z M67.4933036,29.8980332 L67.4933036,42.1346735 L25.35863,-7.10542736e-15 L37.5952703,0 L67.4933036,29.8980332 Z M67.4933036,6.62414722 L60.8691563,-1.42108547e-14 L67.4933036,0 L67.4933036,6.62414722 Z M67.4933036,47.6532964 L67.4933036,59.8899367 L7.60336688,-3.55271368e-15 L19.8400072,0 L67.4933036,47.6532964 Z M67.4933036,65.4085595 L67.4933036,77.6451999 L0.957589286,11.1094856 L0.957589286,0 L2.08474403,0 L67.4933036,65.4085595 Z M67.4933036,83.1638227 L67.4933036,95.400463 L0.957589286,28.8647487 L0.957589286,16.6281084 L67.4933036,83.1638227 Z" id="path-1"></path>
        <path d="M19.5043644,60.75 L0,41.2456356 L0,26.5918644 L34.1581356,60.75 L19.5043644,60.75 Z M12.8956356,60.75 L0,60.75 L0,47.8543644 L12.8956356,60.75 Z M15.9331356,7.10542736e-15 L35.7772436,19.844108 L35.7772436,24.0266691 L39.9598047,24.0266691 L60,44.0668644 L60,58.7206356 L1.27936438,0 L15.9331356,0 Z M22.5418644,0 L35.7772436,0 L35.7772436,13.2353792 L22.5418644,0 Z M46.5685335,24.0266691 L60,24.0266691 L60,37.4581356 L46.5685335,24.0266691 Z M40.7668644,60.75 L0,19.9831356 L0,5.32936438 L55.4206356,60.75 L40.7668644,60.75 Z" id="path-3"></path>
        <path d="M0.960673309,12.1515255 L0.960673309,0 L1.20095581,0 L43.2009558,42 L30.9495111,42 L1.03085496,12.0813438 L0.960673309,12.1515255 Z M0.960673309,17.5364617 L25.4242116,42 L13.1727669,42 L1.03085496,29.858088 L0.960673309,29.9282697 L0.960673309,17.5364617 Z M42.2797437,0 L54.5311884,0 L66.6731004,12.141912 L66.743282,12.0717303 L66.743282,24.4635383 L42.2797437,0 Z M36.7544442,-3.55271368e-15 L66.6731004,29.9186562 L66.743282,29.8484745 L66.743282,42 L66.5029995,42 L24.5029995,0 L36.7544442,0 Z M6.72625531,0 L18.9777,0 L60.9777,42 L48.7262553,42 L6.72625531,0 Z M0.960673309,35.3132059 L7.64746744,42 L0.960673309,42 L0.960673309,35.3132059 Z M60.0564879,0 L66.743282,0 L66.743282,6.68679413 L60.0564879,7.10542736e-15 Z" id="path-5"></path>
        <path d="M41.2431796,16.1424529 L41.2431796,28.5326334 L12.7105461,-3.55271368e-15 L25.1007267,0 L41.2431796,16.1424529 Z M41.2431796,10.5545847 L30.6885949,0 L41.2431796,0 L41.2431796,10.5545847 Z M41.2431796,34.1205017 L41.2431796,40.5 L35.2324973,40.5 L0.975322421,6.24282509 L0.975322421,0 L7.12267789,0 L41.2431796,34.1205017 Z M29.6446291,40.5 L17.2544486,40.5 L0.975322421,24.2208739 L0.975322421,11.8306933 L29.6446291,40.5 Z M11.6665803,40.5 L0.975322421,40.5 L0.975322421,29.8087421 L11.6665803,40.5 Z" id="path-7"></path>
        <path d="M41.2431796,16.1424529 L41.2431796,28.5326334 L12.7105461,-3.55271368e-15 L25.1007267,0 L41.2431796,16.1424529 Z M41.2431796,10.5545847 L30.6885949,0 L41.2431796,0 L41.2431796,10.5545847 Z M41.2431796,34.1205017 L41.2431796,40.5 L35.2324973,40.5 L0.975322421,6.24282509 L0.975322421,0 L7.12267789,0 L41.2431796,34.1205017 Z M29.6446291,40.5 L17.2544486,40.5 L0.975322421,24.2208739 L0.975322421,11.8306933 L29.6446291,40.5 Z M11.6665803,40.5 L0.975322421,40.5 L0.975322421,29.8087421 L11.6665803,40.5 Z" id="path-9"></path>
        <path d="M41.2431796,16.1424529 L41.2431796,28.5326334 L12.7105461,-3.55271368e-15 L25.1007267,0 L41.2431796,16.1424529 Z M41.2431796,10.5545847 L30.6885949,0 L41.2431796,0 L41.2431796,10.5545847 Z M41.2431796,34.1205017 L41.2431796,40.5 L35.2324973,40.5 L0.975322421,6.24282509 L0.975322421,0 L7.12267789,0 L41.2431796,34.1205017 Z M29.6446291,40.5 L17.2544486,40.5 L0.975322421,24.2208739 L0.975322421,11.8306933 L29.6446291,40.5 Z M11.6665803,40.5 L0.975322421,40.5 L0.975322421,29.8087421 L11.6665803,40.5 Z" id="path-11"></path>
    </defs>
    <g id="floor-plans" stroke="none" stroke-width="1" fill="none" fill-rule="evenodd">
        <g id="Group-4-Copy">
            <g id="Group">
                <path d="M2906.62822,973.752429 L2906.62822,1169.47182 L2906.62822,1179.1609 L1500.38305,1179.1609 L1495.53058,1179.1609 L1495.53058,964.06335 L1500.38305,964.06335 L2906.62822,964.06335 L2906.62822,973.752429 Z M2896.92328,973.752429 L1505.23552,973.752429 L1505.23552,1169.47182 L2896.92328,1169.47182 L2896.92328,973.752429 Z M1715.8326,428.245915 L1706.1277,428.268659 L1705.1572,15.5138984 L1714.86211,15.4911541 L1715.8326,428.245915 Z M1289.78594,642.385931 L1280.08101,642.385931 L1280.08101,443.759813 L1289.78594,443.759813 L1289.78594,642.385931 Z M1289.78594,856.514574 L1280.08101,856.514574 L1280.08101,739.27672 L1289.78594,739.27672 L1289.78594,856.514574 Z M33.9672747,2167.44695 L33.9672747,2157.75787 L146.544528,2157.75787 L146.544528,2167.44695 L33.9672747,2167.44695 Z M2397.1191,2122.87719 L2387.41416,2122.87719 L2387.41416,1939.7536 L2397.1191,1939.7536 L2397.1191,2122.87719 Z M2465.05365,2099.6234 L2465.05365,2089.93432 L2809.57886,2089.93432 L2809.57886,2099.6234 L2465.05365,2099.6234 Z M2465.05365,1664.58375 L2465.05365,1654.89468 L2809.57886,1654.89468 L2809.57886,1664.58375 L2465.05365,1664.58375 Z M195.069206,2167.44695 L195.069206,2157.75787 L343.554721,2157.75787 L343.554721,2167.44695 L195.069206,2167.44695 Z M1241.26127,1277.0206 L1231.55633,1277.0206 L1231.55633,1192.72561 L1241.26127,1192.72561 L1241.26127,1277.0206 Z M1241.26127,1144.28022 L1231.55633,1144.28022 L1231.55633,1064.82977 L1241.26127,1064.82977 L1241.26127,1144.28022 Z" id="Combined-Shape" fill="#C2F3FE" fill-rule="nonzero"></path>
                <path d="M1832.29185,1940.7225 L1551.81921,1940.7225 L1551.81921,1925.21998 L2401.00107,1925.21998 L2401.00107,1940.7225 L2274.83691,1940.7225 L2274.83691,2110.28138 L2401.00107,2110.28138 L2401.00107,2125.78391 L2268.04345,2125.78391 L2259.30901,2125.78391 L2259.30901,1940.7225 L1847.81974,1940.7225 L1847.81974,2122.87719 L1834.23283,2122.87719 L1732.33101,2122.87719 L1732.33101,2477.39401 C1931.27925,2477.43194 2148.99331,2477.4597 2385.47318,2477.47728 L2385.47318,2172.29149 L2401.00107,2172.29149 L2401.00107,2477.47842 C2531.51693,2477.48785 2667.70953,2477.4942 2809.57886,2477.49747 L2809.57886,1286.70968 L2630.03755,1286.70968 L2630.03755,1271.20715 L2825.10676,1271.20715 L3119.16631,1271.20715 L3119.16631,1064.82977 L3134.69421,1064.82977 L3134.69421,1271.20715 L3456.89807,1271.20715 L3456.89807,996.037311 L3134.69421,996.037311 L3134.69421,1019.2911 L3119.16631,1019.2911 L3119.16631,917.555771 L3134.69421,917.555771 L3134.69421,980.534784 L3456.89807,980.534784 L3456.89807,916.586864 L3472.42597,916.586864 L3472.42597,1271.20715 L3602.4721,1271.20715 L3602.4721,440.85309 L3472.42597,440.85309 L3472.42597,523.21026 L3472.42597,529.023708 L3467.5735,529.023708 L3467.5735,632.696852 L3472.42597,632.696852 L3472.42597,648.199378 L3466.603,648.199378 L3466.603,751.872522 L3472.42597,751.872522 L3472.42597,767.375049 L3472.42597,872.017101 L3458.83906,872.017101 L3261.82886,872.017101 L3261.82886,856.514574 L3456.89807,856.514574 L3456.89807,767.375049 L3313.26502,767.375049 L3313.26502,751.872522 L3313.26502,529.023708 L3313.26502,513.521182 L3456.89807,513.521182 L3456.89807,440.85309 L3134.69421,440.85309 L3134.69421,856.514574 L3167.69099,856.514574 L3167.69099,872.017101 L3134.69421,872.017101 L3027.93991,872.017101 L3027.93991,856.514574 L3119.16631,856.514574 L3119.16631,15.5025262 L2692.14914,15.5025262 L2692.14914,413.723669 L2793.56572,413.723669 L2793.56572,423.412748 L2794.05097,423.412748 L2794.05097,856.514574 L2980.38573,856.514574 L2980.38573,872.017101 L2561.13251,872.017101 L2561.13251,856.514574 L2778.52307,856.514574 L2778.52307,429.226195 L2492.22747,429.226195 L2492.22747,856.514574 L2512.60783,856.514574 L2512.60783,872.017101 L2168.08262,872.017101 L2168.08262,856.514574 L2476.69957,856.514574 L2476.69957,429.226195 L2360.24034,429.226195 L2360.24034,413.723669 L2676.62124,413.723669 L2676.62124,15.5025262 L1487.76663,15.5025262 L1487.76663,252.884959 L1293.66792,252.884959 L1293.66792,443.759813 L965.641094,443.759813 L965.641094,856.514574 L1397.51073,856.514574 L1397.51073,1064.82977 L1381.98283,1064.82977 L1381.98283,872.017101 L965.641094,872.017101 L965.641094,1049.32724 L1286.87446,1049.32724 L1286.87446,1064.82977 L839.476931,1064.82977 L839.476931,1528.93665 L839.476931,1687.83754 L868.591738,1687.83754 L868.591738,1703.34007 L616.263412,1703.34007 L616.263412,1687.83754 L823.949034,1687.83754 L823.949034,1544.43918 L631.791309,1544.43918 L631.791309,1639.39215 L616.263412,1639.39215 L616.263412,1544.43918 L616.263412,1247.37395 L436.502665,1074.51885 L161.215675,1074.51885 L14.8693567,2321.23625 C54.9417088,2373.76313 87.0143759,2413.22558 111.040296,2439.57935 C123.107514,2452.81575 133.097111,2462.69048 140.937421,2469.16173 C144.679374,2472.25027 147.872248,2474.51233 150.453296,2475.93727 C151.0641,2476.20561 215.431242,2476.4394 343.554721,2476.63864 L343.554721,2157.75787 L359.082618,2157.75787 L359.082618,2205.23436 L462.925429,2205.23436 L462.925429,2220.73688 L359.082618,2220.73688 L359.082618,2476.66215 C407.567576,2476.73369 464.503199,2476.80065 529.889485,2476.86302 L529.889485,2220.73688 L509.50912,2220.73688 L509.50912,2205.23436 L567.738734,2205.23436 L567.738734,2220.73688 L545.417382,2220.73688 L545.417382,2476.8776 C597.251186,2476.92551 654.186808,2476.97065 716.224249,2477.01303 L716.224249,2220.73688 L614.322425,2220.73688 L614.322425,2205.23436 L731.752146,2205.23436 L731.752146,2212.01671 L731.752146,2477.02351 C932.013717,2477.15701 1184.01855,2477.26246 1487.76663,2477.33986 L1487.76663,1925.21998 L1503.29453,1925.21998 L1503.29453,2477.34379 C1571.85792,2477.36094 1643.02744,2477.37669 1716.80311,2477.39102 L1716.80311,2115.12592 L1716.80311,2107.37466 L1832.29185,2107.37466 L1832.29185,1940.7225 Z M3618,1275.08278 L3618,1286.70968 L2825.10676,1286.70968 L2825.10676,2493 L154.308476,2493 C142.941297,2493 125.990419,2479.00905 99.5568074,2450.01431 C74.788786,2422.84654 41.8241307,2382.23494 0.613519129,2328.13315 L147.401278,1059.01632 L442.764503,1059.01632 L631.791309,1240.78151 L631.791309,1528.93665 L823.949034,1528.93665 L823.949034,1064.82977 L823.949034,1049.32724 L950.113197,1049.32724 L950.113197,872.017101 L950.113197,428.257287 L1278.14002,428.257287 L1278.14002,237.382433 L1472.23873,237.382433 L1472.23873,0 L3134.69421,0 L3134.69421,425.350564 L3602.4721,425.350564 L3618,425.350564 L3618,1275.08278 Z M2396.14861,1286.70968 L2396.14861,1322.55927 L2380.62071,1322.55927 L2380.62071,1286.70968 L2054.53487,1286.70968 L2054.53487,1485.33579 L2380.62071,1485.33579 L2380.62071,1370.03576 L2396.14861,1370.03576 L2396.14861,1535.71901 L2380.62071,1535.71901 L2380.62071,1500.83832 L2054.53487,1500.83832 L2054.53487,1696.55771 L2380.62071,1696.55771 L2380.62071,1583.19549 L2396.14861,1583.19549 L2396.14861,1746.94092 L2380.62071,1746.94092 L2380.62071,1712.06024 L2054.53487,1712.06024 L2054.53487,1817.6712 L2380.62071,1817.6712 L2380.62071,1793.4485 L2396.14861,1793.4485 L2396.14861,1817.6712 L2396.14861,1833.17373 L1689.62929,1833.17373 L1689.62929,1817.6712 L1689.62929,1626.79635 L1705.15719,1626.79635 L1705.15719,1817.6712 L2039.00697,1817.6712 L2039.00697,1558.97279 L1705.15719,1558.97279 L1705.15719,1579.31986 L1689.62929,1579.31986 L1689.62929,1520.21648 L1705.15719,1520.21648 L1705.15719,1543.47027 L2039.00697,1543.47027 L2039.00697,1286.70968 L1705.15719,1286.70968 L1705.15719,1472.73999 L1689.62929,1472.73999 L1689.62929,1286.70968 L1531.43884,1286.70968 L1531.43884,1271.20715 L2536.87017,1271.20715 L2536.87017,1286.70968 L2396.14861,1286.70968 Z M1276.19903,1271.20715 L1291.72693,1271.20715 L1437.30097,1271.20715 L1437.30097,1286.70968 L1291.72693,1286.70968 L1291.72693,1508.58958 L1404.30418,1508.58958 L1404.30418,1524.09211 L1110.24464,1524.09211 L1110.24464,1619.04508 L1388.77629,1619.04508 L1388.77629,1571.5686 L1404.30418,1571.5686 L1404.30418,1752.75437 L1404.30418,1756.63 L1344.13358,1756.63 L1344.13358,1741.12748 L1388.77629,1741.12748 L1388.77629,1634.54761 L1229.61534,1634.54761 L1229.61534,1741.12748 L1297.54989,1741.12748 L1297.54989,1756.63 L1229.61534,1756.63 L1229.61534,1814.76448 L1214.08745,1814.76448 L1019.98873,1814.76448 L1019.98873,1799.26195 L1214.08745,1799.26195 L1214.08745,1634.54761 L1094.71674,1634.54761 L1094.71674,1622.92072 L1094.71674,1596.7602 L971.464056,1596.7602 L971.464056,1814.76448 L955.936159,1814.76448 L955.936159,1703.34007 L915.175429,1703.34007 L915.175429,1687.83754 L955.936159,1687.83754 L955.936159,1271.20715 L971.464056,1271.20715 L1276.19903,1271.20715 Z M1276.19903,1286.70968 L971.464056,1286.70968 L971.464056,1581.25768 L1094.71674,1581.25768 L1094.71674,1508.58958 L1110.24464,1508.58958 L1276.19903,1508.58958 L1276.19903,1286.70968 Z M3456.89807,751.872522 L3456.89807,648.199378 L3328.79292,648.199378 L3328.79292,751.872522 L3456.89807,751.872522 Z M3457.86856,529.023708 L3328.79292,529.023708 L3328.79292,632.696852 L3457.86856,632.696852 L3457.86856,529.023708 Z M975.34603,2108.34357 L975.34603,1948.47377 L804.539163,1948.47377 L804.539163,1973.66537 L789.011266,1973.66537 L789.011266,1932.97124 L804.539163,1932.97124 L990.873927,1932.97124 L990.873927,1938.78469 L990.873927,2123.84609 L975.34603,2123.84609 L789.011266,2123.84609 L789.011266,2121.90828 L789.011266,2020.17295 L804.539163,2020.17295 L804.539163,2108.34357 L975.34603,2108.34357 Z M1441.18294,872.017101 L1441.18294,856.514574 L2119.55794,856.514574 L2119.55794,872.017101 L1441.18294,872.017101 Z M1339.28112,443.759813 L1339.28112,428.257287 L1719.71459,428.257287 L1719.71459,443.759813 L1339.28112,443.759813 Z" id="Combined-Shape" fill="#000000" fill-rule="nonzero"></path>
                <g id="door" transform="translate(1285.903970, 1049.327244)" fill="#000000">
                    <path d="M6.28205128,44 L6.28205128,41.8536585 C21.3233531,41.8536585 31.8078468,37.689381 37.8719138,29.3972717 C44.0352385,20.9694356 46.9757798,11.189505 46.6928219,0.0252746136 L49.00135,-0.0252746136 C49.2953908,11.576237 46.2223988,21.796685 39.7816583,30.6038641 C33.2416602,39.5467699 22.029664,44 6.28205128,44 Z" id="Path-5" fill-rule="nonzero"></path>
                    <rect id="Rectangle-7" fill-rule="evenodd" x="0" y="0" width="6.28205128" height="44"></rect>
                </g>
                <g id="door" transform="translate(1301.917114, 715.054023) rotate(-90.000000) translate(-1301.917114, -715.054023) translate(1277.654775, 693.253595)" fill="#000000">
                    <path d="M6.28205128,44 L6.28205128,41.8536585 C21.3233531,41.8536585 31.8078468,37.689381 37.8719138,29.3972717 C44.0352385,20.9694356 46.9757798,11.189505 46.6928219,0.0252746136 L49.00135,-0.0252746136 C49.2953908,11.576237 46.2223988,21.796685 39.7816583,30.6038641 C33.2416602,39.5467699 22.029664,44 6.28205128,44 Z" id="Path-5" fill-rule="nonzero"></path>
                    <rect id="Rectangle-7" fill-rule="evenodd" x="0" y="0" width="6.28205128" height="44"></rect>
                </g>
                <g id="door" transform="translate(1358.690987, 1071.127672) scale(-1, 1) translate(-1358.690987, -1071.127672) translate(1334.428648, 1049.327244)" fill="#000000">
                    <path d="M6.28205128,44 L6.28205128,41.8536585 C21.3233531,41.8536585 31.8078468,37.689381 37.8719138,29.3972717 C44.0352385,20.9694356 46.9757798,11.189505 46.6928219,0.0252746136 L49.00135,-0.0252746136 C49.2953908,11.576237 46.2223988,21.796685 39.7816583,30.6038641 C33.2416602,39.5467699 22.029664,44 6.28205128,44 Z" id="Path-5" fill-rule="nonzero"></path>
                    <rect id="Rectangle-7" fill-rule="evenodd" x="0" y="0" width="6.28205128" height="44"></rect>
                </g>
                <g id="door" transform="translate(1301.917114, 666.608628) scale(1, -1) rotate(-90.000000) translate(-1301.917114, -666.608628) translate(1277.654775, 644.808201)" fill="#000000">
                    <path d="M6.28205128,44 L6.28205128,41.8536585 C21.3233531,41.8536585 31.8078468,37.689381 37.8719138,29.3972717 C44.0352385,20.9694356 46.9757798,11.189505 46.6928219,0.0252746136 L49.00135,-0.0252746136 C49.2953908,11.576237 46.2223988,21.796685 39.7816583,30.6038641 C33.2416602,39.5467699 22.029664,44 6.28205128,44 Z" id="Path-5" fill-rule="nonzero"></path>
                    <rect id="Rectangle-7" fill-rule="evenodd" x="0" y="0" width="6.28205128" height="44"></rect>
                </g>
                <g id="door" transform="translate(1420.802575, 878.315002) scale(-1, 1) translate(-1420.802575, -878.315002) translate(1396.540236, 856.514574)" fill="#000000">
                    <path d="M6.28205128,44 L6.28205128,41.8536585 C21.3233531,41.8536585 31.8078468,37.689381 37.8719138,29.3972717 C44.0352385,20.9694356 46.9757798,11.189505 46.6928219,0.0252746136 L49.00135,-0.0252746136 C49.2953908,11.576237 46.2223988,21.796685 39.7816583,30.6038641 C33.2416602,39.5467699 22.029664,44 6.28205128,44 Z" id="Path-5" fill-rule="nonzero"></path>
                    <rect id="Rectangle-7" fill-rule="evenodd" x="0" y="0" width="6.28205128" height="44"></rect>
                </g>
                <g id="door" transform="translate(1317.930258, 450.057715) scale(-1, 1) translate(-1317.930258, -450.057715) translate(1293.667918, 428.257287)" fill="#000000">
                    <path d="M6.28205128,44 L6.28205128,41.8536585 C21.3233531,41.8536585 31.8078468,37.689381 37.8719138,29.3972717 C44.0352385,20.9694356 46.9757798,11.189505 46.6928219,0.0252746136 L49.00135,-0.0252746136 C49.2953908,11.576237 46.2223988,21.796685 39.7816583,30.6038641 C33.2416602,39.5467699 22.029664,44 6.28205128,44 Z" id="Path-5" fill-rule="nonzero"></path>
                    <rect id="Rectangle-7" fill-rule="evenodd" x="0" y="0" width="6.28205128" height="44"></rect>
                </g>
                <g id="door" transform="translate(2143.820279, 878.315002) scale(-1, 1) translate(-2143.820279, -878.315002) translate(2119.557940, 856.514574)" fill="#000000">
                    <path d="M6.28205128,44 L6.28205128,41.8536585 C21.3233531,41.8536585 31.8078468,37.689381 37.8719138,29.3972717 C44.0352385,20.9694356 46.9757798,11.189505 46.6928219,0.0252746136 L49.00135,-0.0252746136 C49.2953908,11.576237 46.2223988,21.796685 39.7816583,30.6038641 C33.2416602,39.5467699 22.029664,44 6.28205128,44 Z" id="Path-5" fill-rule="nonzero"></path>
                    <rect id="Rectangle-7" fill-rule="evenodd" x="0" y="0" width="6.28205128" height="44"></rect>
                </g>
                <g id="door" transform="translate(2536.870172, 878.315002) scale(-1, 1) translate(-2536.870172, -878.315002) translate(2512.607833, 856.514574)" fill="#000000">
                    <path d="M6.28205128,44 L6.28205128,41.8536585 C21.3233531,41.8536585 31.8078468,37.689381 37.8719138,29.3972717 C44.0352385,20.9694356 46.9757798,11.189505 46.6928219,0.0252746136 L49.00135,-0.0252746136 C49.2953908,11.576237 46.2223988,21.796685 39.7816583,30.6038641 C33.2416602,39.5467699 22.029664,44 6.28205128,44 Z" id="Path-5" fill-rule="nonzero"></path>
                    <rect id="Rectangle-7" fill-rule="evenodd" x="0" y="0" width="6.28205128" height="44"></rect>
                </g>
                <g id="door" transform="translate(3004.648069, 878.315002) scale(-1, 1) translate(-3004.648069, -878.315002) translate(2980.385730, 856.514574)" fill="#000000">
                    <path d="M6.28205128,44 L6.28205128,41.8536585 C21.3233531,41.8536585 31.8078468,37.689381 37.8719138,29.3972717 C44.0352385,20.9694356 46.9757798,11.189505 46.6928219,0.0252746136 L49.00135,-0.0252746136 C49.2953908,11.576237 46.2223988,21.796685 39.7816583,30.6038641 C33.2416602,39.5467699 22.029664,44 6.28205128,44 Z" id="Path-5" fill-rule="nonzero"></path>
                    <rect id="Rectangle-7" fill-rule="evenodd" x="0" y="0" width="6.28205128" height="44"></rect>
                </g>
                <g id="door" transform="translate(2379.164968, 2150.006607) scale(1, -1) rotate(90.000000) translate(-2379.164968, -2150.006607) translate(2354.902629, 2128.206180)" fill="#000000">
                    <path d="M6.28205128,44 L6.28205128,41.8536585 C21.3233531,41.8536585 31.8078468,37.689381 37.8719138,29.3972717 C44.0352385,20.9694356 46.9757798,11.189505 46.6928219,0.0252746136 L49.00135,-0.0252746136 C49.2953908,11.576237 46.2223988,21.796685 39.7816583,30.6038641 C33.2416602,39.5467699 22.029664,44 6.28205128,44 Z" id="Path-5" fill-rule="nonzero"></path>
                    <rect id="Rectangle-7" fill-rule="evenodd" x="0" y="0" width="6.28205128" height="44"></rect>
                </g>
                <g id="door" transform="translate(485.246781, 2198.936455) scale(1, -1) translate(-485.246781, -2198.936455) translate(460.984442, 2177.136028)" fill="#000000">
                    <path d="M6.28205128,44 L6.28205128,41.8536585 C21.3233531,41.8536585 31.8078468,37.689381 37.8719138,29.3972717 C44.0352385,20.9694356 46.9757798,11.189505 46.6928219,0.0252746136 L49.00135,-0.0252746136 C49.2953908,11.576237 46.2223988,21.796685 39.7816583,30.6038641 C33.2416602,39.5467699 22.029664,44 6.28205128,44 Z" id="Path-5" fill-rule="nonzero"></path>
                    <rect id="Rectangle-7" fill-rule="evenodd" x="0" y="0" width="6.28205128" height="44"></rect>
                </g>
                <g id="door" transform="translate(1460.592811, 1264.909250) scale(1, -1) translate(-1460.592811, -1264.909250) translate(1436.330472, 1243.108822)" fill="#000000">
                    <path d="M6.28205128,44 L6.28205128,41.8536585 C21.3233531,41.8536585 31.8078468,37.689381 37.8719138,29.3972717 C44.0352385,20.9694356 46.9757798,11.189505 46.6928219,0.0252746136 L49.00135,-0.0252746136 C49.2953908,11.576237 46.2223988,21.796685 39.7816583,30.6038641 C33.2416602,39.5467699 22.029664,44 6.28205128,44 Z" id="Path-5" fill-rule="nonzero"></path>
                    <rect id="Rectangle-7" fill-rule="evenodd" x="0" y="0" width="6.28205128" height="44"></rect>
                </g>
                <g id="door" transform="translate(2558.221030, 1264.909250) scale(1, -1) translate(-2558.221030, -1264.909250) translate(2533.958691, 1243.108822)" fill="#000000">
                    <path d="M6.28205128,44 L6.28205128,41.8536585 C21.3233531,41.8536585 31.8078468,37.689381 37.8719138,29.3972717 C44.0352385,20.9694356 46.9757798,11.189505 46.6928219,0.0252746136 L49.00135,-0.0252746136 C49.2953908,11.576237 46.2223988,21.796685 39.7816583,30.6038641 C33.2416602,39.5467699 22.029664,44 6.28205128,44 Z" id="Path-5" fill-rule="nonzero"></path>
                    <rect id="Rectangle-7" fill-rule="evenodd" x="0" y="0" width="6.28205128" height="44"></rect>
                </g>
                <g id="door" transform="translate(3190.982833, 850.216673) scale(1, -1) translate(-3190.982833, -850.216673) translate(3166.720494, 828.416246)" fill="#000000">
                    <path d="M6.28205128,44 L6.28205128,41.8536585 C21.3233531,41.8536585 31.8078468,37.689381 37.8719138,29.3972717 C44.0352385,20.9694356 46.9757798,11.189505 46.6928219,0.0252746136 L49.00135,-0.0252746136 C49.2953908,11.576237 46.2223988,21.796685 39.7816583,30.6038641 C33.2416602,39.5467699 22.029664,44 6.28205128,44 Z" id="Path-5" fill-rule="nonzero"></path>
                    <rect id="Rectangle-7" fill-rule="evenodd" x="0" y="0" width="6.28205128" height="44"></rect>
                </g>
                <g id="door" transform="translate(1509.117489, 1264.909250) scale(-1, -1) translate(-1509.117489, -1264.909250) translate(1484.855150, 1243.108822)" fill="#000000">
                    <path d="M6.28205128,44 L6.28205128,41.8536585 C21.3233531,41.8536585 31.8078468,37.689381 37.8719138,29.3972717 C44.0352385,20.9694356 46.9757798,11.189505 46.6928219,0.0252746136 L49.00135,-0.0252746136 C49.2953908,11.576237 46.2223988,21.796685 39.7816583,30.6038641 C33.2416602,39.5467699 22.029664,44 6.28205128,44 Z" id="Path-5" fill-rule="nonzero"></path>
                    <rect id="Rectangle-7" fill-rule="evenodd" x="0" y="0" width="6.28205128" height="44"></rect>
                </g>
                <g id="door" transform="translate(2606.745708, 1264.909250) scale(-1, -1) translate(-2606.745708, -1264.909250) translate(2582.483369, 1243.108822)" fill="#000000">
                    <path d="M6.28205128,44 L6.28205128,41.8536585 C21.3233531,41.8536585 31.8078468,37.689381 37.8719138,29.3972717 C44.0352385,20.9694356 46.9757798,11.189505 46.6928219,0.0252746136 L49.00135,-0.0252746136 C49.2953908,11.576237 46.2223988,21.796685 39.7816583,30.6038641 C33.2416602,39.5467699 22.029664,44 6.28205128,44 Z" id="Path-5" fill-rule="nonzero"></path>
                    <rect id="Rectangle-7" fill-rule="evenodd" x="0" y="0" width="6.28205128" height="44"></rect>
                </g>
                <g id="door" transform="translate(3239.507511, 850.216673) scale(-1, -1) translate(-3239.507511, -850.216673) translate(3215.245172, 828.416246)" fill="#000000">
                    <path d="M6.28205128,44 L6.28205128,41.8536585 C21.3233531,41.8536585 31.8078468,37.689381 37.8719138,29.3972717 C44.0352385,20.9694356 46.9757798,11.189505 46.6928219,0.0252746136 L49.00135,-0.0252746136 C49.2953908,11.576237 46.2223988,21.796685 39.7816583,30.6038641 C33.2416602,39.5467699 22.029664,44 6.28205128,44 Z" id="Path-5" fill-rule="nonzero"></path>
                    <rect id="Rectangle-7" fill-rule="evenodd" x="0" y="0" width="6.28205128" height="44"></rect>
                </g>
                <g id="door" transform="translate(890.913090, 1681.539642) scale(1, -1) translate(-890.913090, -1681.539642) translate(866.650751, 1659.739215)" fill="#000000">
                    <path d="M6.28205128,44 L6.28205128,41.8536585 C21.3233531,41.8536585 31.8078468,37.689381 37.8719138,29.3972717 C44.0352385,20.9694356 46.9757798,11.189505 46.6928219,0.0252746136 L49.00135,-0.0252746136 C49.2953908,11.576237 46.2223988,21.796685 39.7816583,30.6038641 C33.2416602,39.5467699 22.029664,44 6.28205128,44 Z" id="Path-5" fill-rule="nonzero"></path>
                    <rect id="Rectangle-7" fill-rule="evenodd" x="0" y="0" width="6.28205128" height="44"></rect>
                </g>
                <g id="door" transform="translate(170.806867, 2145.646522) scale(1, -1) translate(-170.806867, -2145.646522) translate(146.544528, 2123.846094)" fill="#000000">
                    <path d="M6.28205128,44 L6.28205128,41.8536585 C21.3233531,41.8536585 31.8078468,37.689381 37.8719138,29.3972717 C44.0352385,20.9694356 46.9757798,11.189505 46.6928219,0.0252746136 L49.00135,-0.0252746136 C49.2953908,11.576237 46.2223988,21.796685 39.7816583,30.6038641 C33.2416602,39.5467699 22.029664,44 6.28205128,44 Z" id="Path-5" fill-rule="nonzero"></path>
                    <rect id="Rectangle-7" fill-rule="evenodd" x="0" y="0" width="6.28205128" height="44"></rect>
                </g>
                <g id="door" transform="translate(1527.556867, 1918.922075) scale(1, -1) translate(-1527.556867, -1918.922075) translate(1503.294528, 1897.121648)" fill="#000000">
                    <path d="M6.28205128,44 L6.28205128,41.8536585 C21.3233531,41.8536585 31.8078468,37.689381 37.8719138,29.3972717 C44.0352385,20.9694356 46.9757798,11.189505 46.6928219,0.0252746136 L49.00135,-0.0252746136 C49.2953908,11.576237 46.2223988,21.796685 39.7816583,30.6038641 C33.2416602,39.5467699 22.029664,44 6.28205128,44 Z" id="Path-5" fill-rule="nonzero"></path>
                    <rect id="Rectangle-7" fill-rule="evenodd" x="0" y="0" width="6.28205128" height="44"></rect>
                </g>
                <g id="door" transform="translate(971.464056, 1799.261951)" fill="#000000">
                    <path d="M6.28205128,44 L6.28205128,41.8536585 C21.3233531,41.8536585 31.8078468,37.689381 37.8719138,29.3972717 C44.0352385,20.9694356 46.9757798,11.189505 46.6928219,0.0252746136 L49.00135,-0.0252746136 C49.2953908,11.576237 46.2223988,21.796685 39.7816583,30.6038641 C33.2416602,39.5467699 22.029664,44 6.28205128,44 Z" id="Path-5" fill-rule="nonzero"></path>
                    <rect id="Rectangle-7" fill-rule="evenodd" x="0" y="0" width="6.28205128" height="44"></rect>
                </g>
                <g id="door" transform="translate(1295.608906, 1741.127478)" fill="#000000">
                    <path d="M6.28205128,44 L6.28205128,41.8536585 C21.3233531,41.8536585 31.8078468,37.689381 37.8719138,29.3972717 C44.0352385,20.9694356 46.9757798,11.189505 46.6928219,0.0252746136 L49.00135,-0.0252746136 C49.2953908,11.576237 46.2223988,21.796685 39.7816583,30.6038641 C33.2416602,39.5467699 22.029664,44 6.28205128,44 Z" id="Path-5" fill-rule="nonzero"></path>
                    <rect id="Rectangle-7" fill-rule="evenodd" x="0" y="0" width="6.28205128" height="44"></rect>
                </g>
                <g id="door" transform="translate(590.060086, 2198.936455) scale(1, -1) translate(-590.060086, -2198.936455) translate(565.797747, 2177.136028)" fill="#000000">
                    <path d="M6.28205128,44 L6.28205128,41.8536585 C21.3233531,41.8536585 31.8078468,37.689381 37.8719138,29.3972717 C44.0352385,20.9694356 46.9757798,11.189505 46.6928219,0.0252746136 L49.00135,-0.0252746136 C49.2953908,11.576237 46.2223988,21.796685 39.7816583,30.6038641 C33.2416602,39.5467699 22.029664,44 6.28205128,44 Z" id="Path-5" fill-rule="nonzero"></path>
                    <rect id="Rectangle-7" fill-rule="evenodd" x="0" y="0" width="6.28205128" height="44"></rect>
                </g>
                <g id="door" transform="translate(782.703058, 1997.888068) scale(1, -1) rotate(90.000000) translate(-782.703058, -1997.888068) translate(758.440719, 1976.087641)" fill="#000000">
                    <path d="M6.28205128,44 L6.28205128,41.8536585 C21.3233531,41.8536585 31.8078468,37.689381 37.8719138,29.3972717 C44.0352385,20.9694356 46.9757798,11.189505 46.6928219,0.0252746136 L49.00135,-0.0252746136 C49.2953908,11.576237 46.2223988,21.796685 39.7816583,30.6038641 C33.2416602,39.5467699 22.029664,44 6.28205128,44 Z" id="Path-5" fill-rule="nonzero"></path>
                    <rect id="Rectangle-7" fill-rule="evenodd" x="0" y="0" width="6.28205128" height="44"></rect>
                </g>
                <g id="door" transform="translate(1683.321084, 1603.542557) scale(1, -1) rotate(90.000000) translate(-1683.321084, -1603.542557) translate(1659.058745, 1581.742130)" fill="#000000">
                    <path d="M6.28205128,44 L6.28205128,41.8536585 C21.3233531,41.8536585 31.8078468,37.689381 37.8719138,29.3972717 C44.0352385,20.9694356 46.9757798,11.189505 46.6928219,0.0252746136 L49.00135,-0.0252746136 C49.2953908,11.576237 46.2223988,21.796685 39.7816583,30.6038641 C33.2416602,39.5467699 22.029664,44 6.28205128,44 Z" id="Path-5" fill-rule="nonzero"></path>
                    <rect id="Rectangle-7" fill-rule="evenodd" x="0" y="0" width="6.28205128" height="44"></rect>
                </g>
                <g id="door" transform="translate(1683.321084, 1496.962689) scale(1, -1) rotate(90.000000) translate(-1683.321084, -1496.962689) translate(1659.058745, 1475.162262)" fill="#000000">
                    <path d="M6.28205128,44 L6.28205128,41.8536585 C21.3233531,41.8536585 31.8078468,37.689381 37.8719138,29.3972717 C44.0352385,20.9694356 46.9757798,11.189505 46.6928219,0.0252746136 L49.00135,-0.0252746136 C49.2953908,11.576237 46.2223988,21.796685 39.7816583,30.6038641 C33.2416602,39.5467699 22.029664,44 6.28205128,44 Z" id="Path-5" fill-rule="nonzero"></path>
                    <rect id="Rectangle-7" fill-rule="evenodd" x="0" y="0" width="6.28205128" height="44"></rect>
                </g>
                <g id="door" transform="translate(3112.858101, 896.239798) scale(1, -1) rotate(90.000000) translate(-3112.858101, -896.239798) translate(3088.595762, 874.439370)" fill="#000000">
                    <path d="M6.28205128,44 L6.28205128,41.8536585 C21.3233531,41.8536585 31.8078468,37.689381 37.8719138,29.3972717 C44.0352385,20.9694356 46.9757798,11.189505 46.6928219,0.0252746136 L49.00135,-0.0252746136 C49.2953908,11.576237 46.2223988,21.796685 39.7816583,30.6038641 C33.2416602,39.5467699 22.029664,44 6.28205128,44 Z" id="Path-5" fill-rule="nonzero"></path>
                    <rect id="Rectangle-7" fill-rule="evenodd" x="0" y="0" width="6.28205128" height="44"></rect>
                </g>
                <g id="door" transform="translate(3112.858101, 1043.513797) scale(1, -1) rotate(90.000000) translate(-3112.858101, -1043.513797) translate(3088.595762, 1021.713370)" fill="#000000">
                    <path d="M6.28205128,44 L6.28205128,41.8536585 C21.3233531,41.8536585 31.8078468,37.689381 37.8719138,29.3972717 C44.0352385,20.9694356 46.9757798,11.189505 46.6928219,0.0252746136 L49.00135,-0.0252746136 C49.2953908,11.576237 46.2223988,21.796685 39.7816583,30.6038641 C33.2416602,39.5467699 22.029664,44 6.28205128,44 Z" id="Path-5" fill-rule="nonzero"></path>
                    <rect id="Rectangle-7" fill-rule="evenodd" x="0" y="0" width="6.28205128" height="44"></rect>
                </g>
                <g id="door" transform="translate(3450.589861, 896.239798) scale(1, -1) rotate(90.000000) translate(-3450.589861, -896.239798) translate(3426.327521, 874.439370)" fill="#000000">
                    <path d="M6.28205128,44 L6.28205128,41.8536585 C21.3233531,41.8536585 31.8078468,37.689381 37.8719138,29.3972717 C44.0352385,20.9694356 46.9757798,11.189505 46.6928219,0.0252746136 L49.00135,-0.0252746136 C49.2953908,11.576237 46.2223988,21.796685 39.7816583,30.6038641 C33.2416602,39.5467699 22.029664,44 6.28205128,44 Z" id="Path-5" fill-rule="nonzero"></path>
                    <rect id="Rectangle-7" fill-rule="evenodd" x="0" y="0" width="6.28205128" height="44"></rect>
                </g>
                <g id="door" transform="translate(1410.612393, 1548.314808) scale(-1, -1) rotate(90.000000) translate(-1410.612393, -1548.314808) translate(1386.350054, 1526.514380)" fill="#000000">
                    <path d="M6.28205128,44 L6.28205128,41.8536585 C21.3233531,41.8536585 31.8078468,37.689381 37.8719138,29.3972717 C44.0352385,20.9694356 46.9757798,11.189505 46.6928219,0.0252746136 L49.00135,-0.0252746136 C49.2953908,11.576237 46.2223988,21.796685 39.7816583,30.6038641 C33.2416602,39.5467699 22.029664,44 6.28205128,44 Z" id="Path-5" fill-rule="nonzero"></path>
                    <rect id="Rectangle-7" fill-rule="evenodd" x="0" y="0" width="6.28205128" height="44"></rect>
                </g>
                <g id="door" transform="translate(1253.392436, 1168.502915) scale(-1, -1) rotate(90.000000) translate(-1253.392436, -1168.502915) translate(1229.130097, 1146.702487)" fill="#000000">
                    <path d="M6.28205128,44 L6.28205128,41.8536585 C21.3233531,41.8536585 31.8078468,37.689381 37.8719138,29.3972717 C44.0352385,20.9694356 46.9757798,11.189505 46.6928219,0.0252746136 L49.00135,-0.0252746136 C49.2953908,11.576237 46.2223988,21.796685 39.7816583,30.6038641 C33.2416602,39.5467699 22.029664,44 6.28205128,44 Z" id="Path-5" fill-rule="nonzero"></path>
                    <rect id="Rectangle-7" fill-rule="evenodd" x="0" y="0" width="6.28205128" height="44"></rect>
                </g>
                <g id="door" transform="translate(2402.456813, 1346.781967) scale(-1, -1) rotate(90.000000) translate(-2402.456813, -1346.781967) translate(2378.194474, 1324.981539)" fill="#000000">
                    <path d="M6.28205128,44 L6.28205128,41.8536585 C21.3233531,41.8536585 31.8078468,37.689381 37.8719138,29.3972717 C44.0352385,20.9694356 46.9757798,11.189505 46.6928219,0.0252746136 L49.00135,-0.0252746136 C49.2953908,11.576237 46.2223988,21.796685 39.7816583,30.6038641 C33.2416602,39.5467699 22.029664,44 6.28205128,44 Z" id="Path-5" fill-rule="nonzero"></path>
                    <rect id="Rectangle-7" fill-rule="evenodd" x="0" y="0" width="6.28205128" height="44"></rect>
                </g>
                <g id="door" transform="translate(2402.456813, 1559.941702) scale(-1, -1) rotate(90.000000) translate(-2402.456813, -1559.941702) translate(2378.194474, 1538.141275)" fill="#000000">
                    <path d="M6.28205128,44 L6.28205128,41.8536585 C21.3233531,41.8536585 31.8078468,37.689381 37.8719138,29.3972717 C44.0352385,20.9694356 46.9757798,11.189505 46.6928219,0.0252746136 L49.00135,-0.0252746136 C49.2953908,11.576237 46.2223988,21.796685 39.7816583,30.6038641 C33.2416602,39.5467699 22.029664,44 6.28205128,44 Z" id="Path-5" fill-rule="nonzero"></path>
                    <rect id="Rectangle-7" fill-rule="evenodd" x="0" y="0" width="6.28205128" height="44"></rect>
                </g>
                <g id="door" transform="translate(2402.456813, 1771.163622) scale(-1, -1) rotate(90.000000) translate(-2402.456813, -1771.163622) translate(2378.194474, 1749.363195)" fill="#000000">
                    <path d="M6.28205128,44 L6.28205128,41.8536585 C21.3233531,41.8536585 31.8078468,37.689381 37.8719138,29.3972717 C44.0352385,20.9694356 46.9757798,11.189505 46.6928219,0.0252746136 L49.00135,-0.0252746136 C49.2953908,11.576237 46.2223988,21.796685 39.7816583,30.6038641 C33.2416602,39.5467699 22.029664,44 6.28205128,44 Z" id="Path-5" fill-rule="nonzero"></path>
                    <rect id="Rectangle-7" fill-rule="evenodd" x="0" y="0" width="6.28205128" height="44"></rect>
                </g>
                <g id="door" transform="translate(609.955204, 1663.614846) scale(1, -1) rotate(90.000000) translate(-609.955204, -1663.614846) translate(585.692865, 1641.814419)" fill="#000000">
                    <path d="M6.28205128,44 L6.28205128,41.8536585 C21.3233531,41.8536585 31.8078468,37.689381 37.8719138,29.3972717 C44.0352385,20.9694356 46.9757798,11.189505 46.6928219,0.0252746136 L49.00135,-0.0252746136 C49.2953908,11.576237 46.2223988,21.796685 39.7816583,30.6038641 C33.2416602,39.5467699 22.029664,44 6.28205128,44 Z" id="Path-5" fill-rule="nonzero"></path>
                    <rect id="Rectangle-7" fill-rule="evenodd" x="0" y="0" width="6.28205128" height="44"></rect>
                </g>
            </g>
            <g id="Group-3" transform="translate(2169.000000, 361.500000)">
                <mask id="mask-2" fill="white">
                    <use xlink:href="#path-1"></use>
                </mask>
                <use id="Combined-Shape" fill="#000000" xlink:href="#path-1"></use>
            </g>
            <g id="Group-3-Copy-2" transform="translate(1133.250000, 2091.750000)">
                <mask id="mask-4" fill="white">
                    <use xlink:href="#path-3"></use>
                </mask>
                <use id="Combined-Shape" fill="#000000" xlink:href="#path-3"></use>
            </g>
            <g id="Group-3-Copy" transform="translate(1995.000000, 407.250000)">
                <mask id="mask-6" fill="white">
                    <use xlink:href="#path-5"></use>
                </mask>
                <use id="Combined-Shape" fill="#000000" xlink:href="#path-5"></use>
            </g>
            <g id="Group-3-Copy-7" transform="translate(321.750000, 2082.000000)">
                <mask id="mask-8" fill="white">
                    <use xlink:href="#path-7"></use>
                </mask>
                <use id="Combined-Shape" fill="#000000" xlink:href="#path-7"></use>
            </g>
            <g id="Group-3-Copy-8" transform="translate(321.750000, 1691.250000)">
                <mask id="mask-10" fill="white">
                    <use xlink:href="#path-9"></use>
                </mask>
                <use id="Combined-Shape" fill="#000000" xlink:href="#path-9"></use>
            </g>
            <g id="Group-3-Copy-9" transform="translate(321.750000, 1245.750000)">
                <mask id="mask-12" fill="white">
                    <use xlink:href="#path-11"></use>
                </mask>
                <use id="Combined-Shape" fill="#000000" xlink:href="#path-11"></use>
            </g>
        </g>
    </g>
</svg>