<?xml version="1.0" encoding="UTF-8"?>
<svg width="2796px" height="1467px" viewBox="0 0 2796 1467" version="1.1" xmlns="http://www.w3.org/2000/svg" xmlns:xlink="http://www.w3.org/1999/xlink">
    <!-- Generator: Sketch 51.1 (57501) - http://www.bohemiancoding.com/sketch -->
    <title>Group 2 Copy</title>
    <desc>Created with Sketch.</desc>
    <defs>
        <path d="M14.9978588,35.7291667 L0,20.7313078 L0,8.79987801 L26.9292887,35.7291667 L14.9978588,35.7291667 Z M9.61688336,35.7291667 L0,35.7291667 L0,26.1122833 L9.61688336,35.7291667 Z M94.5,28.6692813 L66.7448285,0.914109848 L78.6762584,0.914109848 L94.5,16.7378515 L94.5,28.6692813 Z M94.5,34.0502568 L94.5,35.7291667 L84.24748,35.7291667 L49.4324232,0.914109848 L61.3638531,0.914109848 L94.5,34.0502568 Z M94.5,11.356876 L84.0572338,0.914109848 L94.5,0.914109848 L94.5,11.356876 Z M78.8665046,35.7291667 L66.9350747,35.7291667 L32.1200179,0.914109848 L44.0514478,0.914109848 L78.8665046,35.7291667 Z M61.5540993,35.7291667 L49.6226694,35.7291667 L14.8076126,0.914109848 L26.7390424,0.914109848 L61.5540993,35.7291667 Z M44.241694,35.7291667 L32.3102641,35.7291667 L0,3.41890254 L0,0.914109848 L9.42663714,0.914109848 L44.241694,35.7291667 Z" id="path-1"></path>
        <path d="M1.01078869,25.9332837 L1.01078869,13.2873252 L42.7429315,55.0194681 L42.7429315,61.5 L36.577505,61.5 L1.01078869,25.9332837 Z M1.01078869,31.6365056 L30.8742831,61.5 L18.2283247,61.5 L1.01078869,44.282464 L1.01078869,31.6365056 Z M24.4218241,-3.55271368e-15 L42.7429315,18.3211074 L42.7429315,30.9670659 L11.7758657,0 L24.4218241,0 Z M30.125046,0 L42.7429315,0 L42.7429315,12.6178855 L30.125046,-7.10542736e-15 Z M1.01078869,7.58410333 L1.01078869,0 L6.07264378,0 L42.7429315,36.6702878 L42.7429315,49.3162462 L1.01078869,7.58410333 Z M1.01078869,49.9856859 L12.5251028,61.5 L1.01078869,61.5 L1.01078869,49.9856859 Z" id="path-3"></path>
        <path d="M1.01078869,25.9332837 L1.01078869,13.2873252 L42.7429315,55.0194681 L42.7429315,61.5 L36.577505,61.5 L1.01078869,25.9332837 Z M1.01078869,31.6365056 L30.8742831,61.5 L18.2283247,61.5 L1.01078869,44.282464 L1.01078869,31.6365056 Z M24.4218241,-3.55271368e-15 L42.7429315,18.3211074 L42.7429315,30.9670659 L11.7758657,0 L24.4218241,0 Z M30.125046,0 L42.7429315,0 L42.7429315,12.6178855 L30.125046,-7.10542736e-15 Z M1.01078869,7.58410333 L1.01078869,0 L6.07264378,0 L42.7429315,36.6702878 L42.7429315,49.3162462 L1.01078869,7.58410333 Z M1.01078869,49.9856859 L12.5251028,61.5 L1.01078869,61.5 L1.01078869,49.9856859 Z" id="path-5"></path>
        <path d="M1.01078869,25.9332837 L1.01078869,13.2873252 L42.7429315,55.0194681 L42.7429315,61.5 L36.577505,61.5 L1.01078869,25.9332837 Z M1.01078869,31.6365056 L30.8742831,61.5 L18.2283247,61.5 L1.01078869,44.282464 L1.01078869,31.6365056 Z M24.4218241,-3.55271368e-15 L42.7429315,18.3211074 L42.7429315,30.9670659 L11.7758657,0 L24.4218241,0 Z M30.125046,0 L42.7429315,0 L42.7429315,12.6178855 L30.125046,-7.10542736e-15 Z M1.01078869,7.58410333 L1.01078869,0 L6.07264378,0 L42.7429315,36.6702878 L42.7429315,49.3162462 L1.01078869,7.58410333 Z M1.01078869,49.9856859 L12.5251028,61.5 L1.01078869,61.5 L1.01078869,49.9856859 Z" id="path-7"></path>
        <path d="M1.01078869,25.9332837 L1.01078869,13.2873252 L42.7429315,55.0194681 L42.7429315,61.5 L36.577505,61.5 L1.01078869,25.9332837 Z M1.01078869,31.6365056 L30.8742831,61.5 L18.2283247,61.5 L1.01078869,44.282464 L1.01078869,31.6365056 Z M24.4218241,-3.55271368e-15 L42.7429315,18.3211074 L42.7429315,30.9670659 L11.7758657,0 L24.4218241,0 Z M30.125046,0 L42.7429315,0 L42.7429315,12.6178855 L30.125046,-7.10542736e-15 Z M1.01078869,7.58410333 L1.01078869,0 L6.07264378,0 L42.7429315,36.6702878 L42.7429315,49.3162462 L1.01078869,7.58410333 Z M1.01078869,49.9856859 L12.5251028,61.5 L1.01078869,61.5 L1.01078869,49.9856859 Z" id="path-9"></path>
    </defs>
    <g id="floor-plans" stroke="none" stroke-width="1" fill="none" fill-rule="evenodd">
        <g id="Group-2-Copy">
            <g id="Group">
                <path d="M2212.24527,360.6992 L2209.34609,359.909396 L2210.91822,359.858352 L2212.24527,360.6992 Z M936.751639,356.865238 L936.763534,351.796144 L1372.55669,352.809965 L1372.5329,362.948155 L936.751639,361.934361 L936.751639,362.948169 L926.569556,362.948169 L926.569556,60.829302 L936.751639,60.829302 L936.751639,356.865238 Z M2534.32047,316.31237 L2780.72688,316.31237 L2780.72688,326.450587 L2542.46613,326.450587 L2542.46613,441.01244 L2532.28405,441.01244 L2532.28405,316.31237 L2534.32047,316.31237 Z M2536.35688,491.703525 L2782.76329,491.703525 L2782.76329,501.841742 L2542.46613,501.841742 L2542.46613,685.343469 L2532.28405,685.343469 L2532.28405,491.703525 L2536.35688,491.703525 Z M2303.02126,356.867931 L2303.35311,367.000763 L2208.10581,367.051807 L2148.40761,332.267175 L2149.44986,88.3936374 L2206.85729,53.4624587 L2212.16674,62.1132151 L2159.60768,94.0942687 L2158.61351,326.71693 L2210.91822,356.816887 L2303.02126,356.867931 Z M1822.59286,1038.15342 L1822.59286,1028.0152 L2089.36344,1028.0152 L2089.36344,1038.15342 L1822.59286,1038.15342 Z M1858.23015,60.829302 L1868.41224,60.829302 L1868.41224,518.062889 L1858.23015,518.062889 L1858.23015,60.829302 Z M2532.28405,736.034554 L2542.46613,736.034554 L2542.46613,787.739461 L2532.28405,787.739461 L2532.28405,736.034554 Z M2476.28259,78.2200453 L2476.28259,16.2211472 L2486.46468,16.2211472 L2486.46468,73.8532097 L2542.46613,126.571938 L2542.46613,265.621285 L2532.28405,265.621285 L2532.28405,130.938774 L2476.28259,78.2200453 Z" id="Combined-Shape" fill="#C2F3FE" fill-rule="nonzero"></path>
                <path d="M1372.54479,1134.46648 L939.806264,1134.46648 L939.806264,1231.17619 L99.8460741,1231.17619 L99.8460741,1135.22826 L0,1135.22826 L0,46.2399634 L91.8466856,46.2399634 L138.28672,0 L363.302973,0 L409.743008,46.2399634 L546.898467,46.2399634 L592.1775,0 L814.932308,0 L861.372343,46.2399634 L997.366801,46.2399634 L1042.64583,0 L1265.52362,0 L1309.64166,46.2399634 L1447.83514,46.2399634 L1493.11417,0 L1719.35198,0 L1765.79201,46.2399634 L1899.52503,46.2399634 L1945.96506,0 L2169.76156,0 L2217.36259,46.2399634 L2351.27014,46.2399634 L2400.03218,0 L2622.67121,0 L2667.95024,46.2399634 L2744.64336,46.2399634 L2744.64336,125.028226 L2795.7274,177.048185 L2795.7274,334.616934 L2744.64336,373.920903 L2744.64336,434.671714 L2795.7274,483.223676 L2795.7274,702.926403 L2744.64336,750.322365 L2744.64336,1145.5533 L2795.7274,1192.94926 L2795.7274,1410.17572 L2739.92547,1467 L1813.48335,1467 L1813.48335,1247.00069 L1813.42899,1247.00069 L1813.42899,1231.17619 L1388.83613,1231.17619 L1388.83613,1231.79337 L1372.54479,1231.79337 L1372.54479,1134.46648 Z M1372.54479,1118.24534 L1372.54479,774.559779 L1313.48871,774.559779 L1313.48871,758.338632 L1372.54479,758.338632 L1372.54479,705.619903 L1372.54479,689.398756 L1430.58267,689.398756 L1430.58267,655.94264 L1446.874,655.94264 L1446.874,689.398756 L1547.67662,689.398756 L1547.67662,705.619903 L1388.83613,705.619903 L1388.83613,919.536282 L1596.04151,919.536282 L1596.04151,689.398756 L1612.33285,689.398756 L1612.33285,919.536282 L1820.04734,919.536282 L1820.04734,705.619903 L1656.62491,705.619903 L1656.62491,689.398756 L1877.57611,689.398756 L1877.57611,705.619903 L1836.33867,705.619903 L1836.33867,919.536282 L1993.14275,919.536282 L1993.14275,705.619903 L1928.48653,705.619903 L1928.48653,689.398756 L2148.41952,689.398756 L2148.41952,705.619903 L2148.41952,868.845197 L2132.12819,868.845197 L2132.12819,705.619903 L2009.43409,705.619903 L2009.43409,919.536282 L2148.41952,919.536282 L2148.41952,935.757429 L1388.83613,935.757429 L1388.83613,1214.95504 L1813.42899,1214.95504 L1813.42899,986.448514 L1829.72032,986.448514 L1829.72032,1214.95504 L1829.77468,1214.95504 L1829.77468,1450.77885 L2140.27385,1450.77885 L2140.27385,1023.95992 L2156.56519,1023.95992 L2156.56519,1450.77885 L2733.06991,1450.77885 L2779.43606,1403.56322 L2779.43606,1200.00601 L2728.35203,1152.61005 L2728.35203,1013.8217 L2272.64093,1013.8217 L2272.64093,997.600553 L2272.64093,950.964755 L2288.93227,950.964755 L2288.93227,997.600553 L2728.35203,997.600553 L2728.35203,803.960608 L2288.93227,803.960608 L2288.93227,850.596406 L2272.64093,850.596406 L2272.64093,803.960608 L2272.64093,787.739461 L2728.35203,787.739461 L2728.35203,743.265614 L2779.43606,695.869651 L2779.43606,490.164714 L2728.35203,441.612753 L2728.35203,365.955672 L2779.43606,326.651703 L2779.43606,183.66069 L2728.35203,131.640731 L2728.35203,62.4611106 L2661.08104,62.4611106 L2615.802,16.2211472 L2406.54871,16.2211472 L2357.78667,62.4611106 L2210.73201,62.4611106 L2163.13098,16.2211472 L1952.71315,16.2211472 L1906.27312,62.4611106 L1759.04392,62.4611106 L1712.60389,16.2211472 L1499.98337,16.2211472 L1454.70434,62.4611106 L1302.6476,62.4611106 L1258.52957,16.2211472 L1049.51504,16.2211472 L1004.23601,62.4611106 L854.624252,62.4611106 L808.184217,16.2211472 L599.046705,16.2211472 L553.767671,62.4611106 L402.994917,62.4611106 L356.554882,16.2211472 L145.034811,16.2211472 L98.5947766,62.4611106 L16.2913328,62.4611106 L16.2913328,315.80546 L206.696286,315.80546 L206.696286,332.026607 L206.696286,365.989634 L478.557902,365.989634 L478.557902,382.210781 L478.557902,667.094679 L462.26657,667.094679 L462.26657,382.210781 L206.696286,382.210781 L206.696286,717.785764 L477.539694,717.785764 L477.539694,734.006911 L190.404953,734.006911 L190.404953,732.993089 L190.404953,332.026607 L16.2913328,332.026607 L16.2913328,840.458189 L190.404953,840.458189 L190.404953,783.684174 L206.696286,783.684174 L206.696286,856.679337 L16.2913328,856.679337 L16.2913328,1119.00712 L116.137407,1119.00712 L116.137407,1214.95504 L773.83831,1214.95504 L773.83831,928.660677 L773.83831,912.43953 L836.967225,912.43953 L836.967225,928.660677 L790.129643,928.660677 L790.129643,1214.95504 L923.514931,1214.95504 L923.514931,928.660677 L884.823015,928.660677 L884.823015,912.43953 L923.514931,912.43953 L923.514931,639.721493 L939.806264,639.721493 L939.806264,762.393918 L1048.24545,762.393918 L1048.24545,757.32481 L1064.53678,757.32481 L1064.53678,762.393918 L1173.99417,762.393918 L1173.99417,758.338632 L1190.28551,758.338632 L1216.49071,758.338632 L1216.49071,774.559779 L1190.28551,774.559779 L1190.28551,928.660677 L1178.06701,928.660677 L939.806264,928.660677 L939.806264,1118.24534 L1372.54479,1118.24534 Z M939.806264,772.532135 L939.806264,912.43953 L1048.24545,912.43953 L1048.24545,772.532135 L939.806264,772.532135 Z M1064.53678,772.532135 L1064.53678,912.43953 L1173.99417,912.43953 L1173.99417,772.532135 L1064.53678,772.532135 Z M923.514931,348.754665 L939.806264,348.754665 L939.806264,589.030408 L923.514931,589.030408 L923.514931,348.754665 Z M1430.58267,574.836904 L1364.39913,574.836904 L1364.39913,349.768487 L1380.69046,349.768487 L1380.69046,558.615757 L1446.874,558.615757 L1446.874,606.265377 L1430.58267,606.265377 L1430.58267,574.836904 Z" id="Combined-Shape" fill="#000000" fill-rule="nonzero"></path>
                <g id="door" transform="translate(213.314639, 759.352453) scale(-1, -1) rotate(90.000000) translate(-213.314639, -759.352453) translate(187.859432, 736.541465)" fill="#000000">
                    <path d="M6.53846154,46 L6.53846154,43.7560976 C22.193694,43.7560976 33.1061263,39.4025347 39.4177062,30.7335113 C45.8325952,21.9225917 48.8931585,11.6981188 48.5986514,0.0264234597 L51.0014051,-0.0264234597 C51.3074475,12.1024296 48.1090273,22.7874434 41.4053995,31.9949488 C34.5984626,41.3443503 22.928834,46 6.53846154,46 Z" id="Path-5" fill-rule="nonzero"></path>
                    <rect id="Rectangle-7" fill-rule="evenodd" x="0" y="0" width="6.53846154" height="46"></rect>
                </g>
                <g id="door" transform="translate(485.176256, 692.440221) scale(-1, -1) rotate(90.000000) translate(-485.176256, -692.440221) translate(459.721049, 669.629233)" fill="#000000">
                    <path d="M6.53846154,46 L6.53846154,43.7560976 C22.193694,43.7560976 33.1061263,39.4025347 39.4177062,30.7335113 C45.8325952,21.9225917 48.8931585,11.6981188 48.5986514,0.0264234597 L51.0014051,-0.0264234597 C51.3074475,12.1024296 48.1090273,22.7874434 41.4053995,31.9949488 C34.5984626,41.3443503 22.928834,46 6.53846154,46 Z" id="Path-5" fill-rule="nonzero"></path>
                    <rect id="Rectangle-7" fill-rule="evenodd" x="0" y="0" width="6.53846154" height="46"></rect>
                </g>
                <g id="door" transform="translate(1836.338674, 961.102972) scale(-1, -1) rotate(90.000000) translate(-1836.338674, -961.102972) translate(1810.883467, 938.291983)" fill="#000000">
                    <path d="M6.53846154,46 L6.53846154,43.7560976 C22.193694,43.7560976 33.1061263,39.4025347 39.4177062,30.7335113 C45.8325952,21.9225917 48.8931585,11.6981188 48.5986514,0.0264234597 L51.0014051,-0.0264234597 C51.3074475,12.1024296 48.1090273,22.7874434 41.4053995,31.9949488 C34.5984626,41.3443503 22.928834,46 6.53846154,46 Z" id="Path-5" fill-rule="nonzero"></path>
                    <rect id="Rectangle-7" fill-rule="evenodd" x="0" y="0" width="6.53846154" height="46"></rect>
                </g>
                <g id="door" transform="translate(946.424618, 614.375950) scale(-1, -1) rotate(90.000000) translate(-946.424618, -614.375950) translate(920.969410, 591.564962)" fill="#000000">
                    <path d="M6.53846154,46 L6.53846154,43.7560976 C22.193694,43.7560976 33.1061263,39.4025347 39.4177062,30.7335113 C45.8325952,21.9225917 48.8931585,11.6981188 48.5986514,0.0264234597 L51.0014051,-0.0264234597 C51.3074475,12.1024296 48.1090273,22.7874434 41.4053995,31.9949488 C34.5984626,41.3443503 22.928834,46 6.53846154,46 Z" id="Path-5" fill-rule="nonzero"></path>
                    <rect id="Rectangle-7" fill-rule="evenodd" x="0" y="0" width="6.53846154" height="46"></rect>
                </g>
                <g id="door" transform="translate(2155.037873, 894.190739) scale(-1, -1) rotate(90.000000) translate(-2155.037873, -894.190739) translate(2129.582666, 871.379751)" fill="#000000">
                    <path d="M6.53846154,46 L6.53846154,43.7560976 C22.193694,43.7560976 33.1061263,39.4025347 39.4177062,30.7335113 C45.8325952,21.9225917 48.8931585,11.6981188 48.5986514,0.0264234597 L51.0014051,-0.0264234597 C51.3074475,12.1024296 48.1090273,22.7874434 41.4053995,31.9949488 C34.5984626,41.3443503 22.928834,46 6.53846154,46 Z" id="Path-5" fill-rule="nonzero"></path>
                    <rect id="Rectangle-7" fill-rule="evenodd" x="0" y="0" width="6.53846154" height="46"></rect>
                </g>
                <g id="door" transform="translate(1453.492353, 631.610919) scale(-1, -1) rotate(90.000000) translate(-1453.492353, -631.610919) translate(1428.037145, 608.799931)" fill="#000000">
                    <path d="M6.53846154,46 L6.53846154,43.7560976 C22.193694,43.7560976 33.1061263,39.4025347 39.4177062,30.7335113 C45.8325952,21.9225917 48.8931585,11.6981188 48.5986514,0.0264234597 L51.0014051,-0.0264234597 C51.3074475,12.1024296 48.1090273,22.7874434 41.4053995,31.9949488 C34.5984626,41.3443503 22.928834,46 6.53846154,46 Z" id="Path-5" fill-rule="nonzero"></path>
                    <rect id="Rectangle-7" fill-rule="evenodd" x="0" y="0" width="6.53846154" height="46"></rect>
                </g>
                <g id="door" transform="translate(2295.550619, 926.633034) scale(-1, -1) rotate(90.000000) translate(-2295.550619, -926.633034) translate(2270.095412, 903.822046)" fill="#000000">
                    <path d="M6.53846154,46 L6.53846154,43.7560976 C22.193694,43.7560976 33.1061263,39.4025347 39.4177062,30.7335113 C45.8325952,21.9225917 48.8931585,11.6981188 48.5986514,0.0264234597 L51.0014051,-0.0264234597 C51.3074475,12.1024296 48.1090273,22.7874434 41.4053995,31.9949488 C34.5984626,41.3443503 22.928834,46 6.53846154,46 Z" id="Path-5" fill-rule="nonzero"></path>
                    <rect id="Rectangle-7" fill-rule="evenodd" x="0" y="0" width="6.53846154" height="46"></rect>
                </g>
                <g id="door" transform="translate(2295.550619, 875.941949) scale(-1, 1) rotate(90.000000) translate(-2295.550619, -875.941949) translate(2270.095412, 853.130961)" fill="#000000">
                    <path d="M6.53846154,46 L6.53846154,43.7560976 C22.193694,43.7560976 33.1061263,39.4025347 39.4177062,30.7335113 C45.8325952,21.9225917 48.8931585,11.6981188 48.5986514,0.0264234597 L51.0014051,-0.0264234597 C51.3074475,12.1024296 48.1090273,22.7874434 41.4053995,31.9949488 C34.5984626,41.3443503 22.928834,46 6.53846154,46 Z" id="Path-5" fill-rule="nonzero"></path>
                    <rect id="Rectangle-7" fill-rule="evenodd" x="0" y="0" width="6.53846154" height="46"></rect>
                </g>
                <g id="door" transform="translate(2519.556446, 710.689012) rotate(90.000000) translate(-2519.556446, -710.689012) translate(2494.101238, 687.878023)" fill="#000000">
                    <path d="M6.53846154,46 L6.53846154,43.7560976 C22.193694,43.7560976 33.1061263,39.4025347 39.4177062,30.7335113 C45.8325952,21.9225917 48.8931585,11.6981188 48.5986514,0.0264234597 L51.0014051,-0.0264234597 C51.3074475,12.1024296 48.1090273,22.7874434 41.4053995,31.9949488 C34.5984626,41.3443503 22.928834,46 6.53846154,46 Z" id="Path-5" fill-rule="nonzero"></path>
                    <rect id="Rectangle-7" fill-rule="evenodd" x="0" y="0" width="6.53846154" height="46"></rect>
                </g>
                <g id="door" transform="translate(2519.556446, 466.357982) rotate(90.000000) translate(-2519.556446, -466.357982) translate(2494.101238, 443.546994)" fill="#000000">
                    <path d="M6.53846154,46 L6.53846154,43.7560976 C22.193694,43.7560976 33.1061263,39.4025347 39.4177062,30.7335113 C45.8325952,21.9225917 48.8931585,11.6981188 48.5986514,0.0264234597 L51.0014051,-0.0264234597 C51.3074475,12.1024296 48.1090273,22.7874434 41.4053995,31.9949488 C34.5984626,41.3443503 22.928834,46 6.53846154,46 Z" id="Path-5" fill-rule="nonzero"></path>
                    <rect id="Rectangle-7" fill-rule="evenodd" x="0" y="0" width="6.53846154" height="46"></rect>
                </g>
                <g id="door" transform="translate(2519.556446, 289.953006) rotate(90.000000) translate(-2519.556446, -289.953006) translate(2494.101238, 267.142018)" fill="#000000">
                    <path d="M6.53846154,46 L6.53846154,43.7560976 C22.193694,43.7560976 33.1061263,39.4025347 39.4177062,30.7335113 C45.8325952,21.9225917 48.8931585,11.6981188 48.5986514,0.0264234597 L51.0014051,-0.0264234597 C51.3074475,12.1024296 48.1090273,22.7874434 41.4053995,31.9949488 C34.5984626,41.3443503 22.928834,46 6.53846154,46 Z" id="Path-5" fill-rule="nonzero"></path>
                    <rect id="Rectangle-7" fill-rule="evenodd" x="0" y="0" width="6.53846154" height="46"></rect>
                </g>
                <g id="door" transform="translate(1241.195921, 751.748791) scale(1, -1) translate(-1241.195921, -751.748791) translate(1215.740714, 728.937802)" fill="#000000">
                    <path d="M6.53846154,46 L6.53846154,43.7560976 C22.193694,43.7560976 33.1061263,39.4025347 39.4177062,30.7335113 C45.8325952,21.9225917 48.8931585,11.6981188 48.5986514,0.0264234597 L51.0014051,-0.0264234597 C51.3074475,12.1024296 48.1090273,22.7874434 41.4053995,31.9949488 C34.5984626,41.3443503 22.928834,46 6.53846154,46 Z" id="Path-5" fill-rule="nonzero"></path>
                    <rect id="Rectangle-7" fill-rule="evenodd" x="0" y="0" width="6.53846154" height="46"></rect>
                </g>
                <g id="door" transform="translate(1292.106336, 751.748791) scale(-1, -1) translate(-1292.106336, -751.748791) translate(1266.651129, 728.937802)" fill="#000000">
                    <path d="M6.53846154,46 L6.53846154,43.7560976 C22.193694,43.7560976 33.1061263,39.4025347 39.4177062,30.7335113 C45.8325952,21.9225917 48.8931585,11.6981188 48.5986514,0.0264234597 L51.0014051,-0.0264234597 C51.3074475,12.1024296 48.1090273,22.7874434 41.4053995,31.9949488 C34.5984626,41.3443503 22.928834,46 6.53846154,46 Z" id="Path-5" fill-rule="nonzero"></path>
                    <rect id="Rectangle-7" fill-rule="evenodd" x="0" y="0" width="6.53846154" height="46"></rect>
                </g>
                <g id="door" transform="translate(2114.818645, 1015.342433) scale(-1, -1) translate(-2114.818645, -1015.342433) translate(2089.363438, 992.531444)" fill="#000000">
                    <path d="M6.53846154,46 L6.53846154,43.7560976 C22.193694,43.7560976 33.1061263,39.4025347 39.4177062,30.7335113 C45.8325952,21.9225917 48.8931585,11.6981188 48.5986514,0.0264234597 L51.0014051,-0.0264234597 C51.3074475,12.1024296 48.1090273,22.7874434 41.4053995,31.9949488 C34.5984626,41.3443503 22.928834,46 6.53846154,46 Z" id="Path-5" fill-rule="nonzero"></path>
                    <rect id="Rectangle-7" fill-rule="evenodd" x="0" y="0" width="6.53846154" height="46"></rect>
                </g>
                <g id="door" transform="translate(861.404224, 905.849689) scale(-1, -1) translate(-861.404224, -905.849689) translate(835.949017, 883.038701)" fill="#000000">
                    <path d="M6.53846154,46 L6.53846154,43.7560976 C22.193694,43.7560976 33.1061263,39.4025347 39.4177062,30.7335113 C45.8325952,21.9225917 48.8931585,11.6981188 48.5986514,0.0264234597 L51.0014051,-0.0264234597 C51.3074475,12.1024296 48.1090273,22.7874434 41.4053995,31.9949488 C34.5984626,41.3443503 22.928834,46 6.53846154,46 Z" id="Path-5" fill-rule="nonzero"></path>
                    <rect id="Rectangle-7" fill-rule="evenodd" x="0" y="0" width="6.53846154" height="46"></rect>
                </g>
                <g id="door" transform="translate(1545.640204, 689.398756)" fill="#000000">
                    <path d="M6.53846154,46 L6.53846154,43.7560976 C22.193694,43.7560976 33.1061263,39.4025347 39.4177062,30.7335113 C45.8325952,21.9225917 48.8931585,11.6981188 48.5986514,0.0264234597 L51.0014051,-0.0264234597 C51.3074475,12.1024296 48.1090273,22.7874434 41.4053995,31.9949488 C34.5984626,41.3443503 22.928834,46 6.53846154,46 Z" id="Path-5" fill-rule="nonzero"></path>
                    <rect id="Rectangle-7" fill-rule="evenodd" x="0" y="0" width="6.53846154" height="46"></rect>
                </g>
                <g id="door" transform="translate(1637.278951, 712.209744) scale(-1, 1) translate(-1637.278951, -712.209744) translate(1611.823744, 689.398756)" fill="#000000">
                    <path d="M6.53846154,46 L6.53846154,43.7560976 C22.193694,43.7560976 33.1061263,39.4025347 39.4177062,30.7335113 C45.8325952,21.9225917 48.8931585,11.6981188 48.5986514,0.0264234597 L51.0014051,-0.0264234597 C51.3074475,12.1024296 48.1090273,22.7874434 41.4053995,31.9949488 C34.5984626,41.3443503 22.928834,46 6.53846154,46 Z" id="Path-5" fill-rule="nonzero"></path>
                    <rect id="Rectangle-7" fill-rule="evenodd" x="0" y="0" width="6.53846154" height="46"></rect>
                </g>
                <g id="door" transform="translate(1903.031318, 712.209744) scale(-1, 1) translate(-1903.031318, -712.209744) translate(1877.576111, 689.398756)" fill="#000000">
                    <path d="M6.53846154,46 L6.53846154,43.7560976 C22.193694,43.7560976 33.1061263,39.4025347 39.4177062,30.7335113 C45.8325952,21.9225917 48.8931585,11.6981188 48.5986514,0.0264234597 L51.0014051,-0.0264234597 C51.3074475,12.1024296 48.1090273,22.7874434 41.4053995,31.9949488 C34.5984626,41.3443503 22.928834,46 6.53846154,46 Z" id="Path-5" fill-rule="nonzero"></path>
                    <rect id="Rectangle-7" fill-rule="evenodd" x="0" y="0" width="6.53846154" height="46"></rect>
                </g>
            </g>
            <g id="Group-3-Copy" transform="translate(2178.000000, 537.750000)">
                <mask id="mask-2" fill="white">
                    <use xlink:href="#path-1"></use>
                </mask>
                <use id="Combined-Shape" fill="#000000" xlink:href="#path-1"></use>
            </g>
            <g id="Group-3-Copy" transform="translate(462.750000, 766.500000)">
                <mask id="mask-4" fill="white">
                    <use xlink:href="#path-3"></use>
                </mask>
                <use id="Combined-Shape" fill="#000000" xlink:href="#path-3"></use>
            </g>
            <g id="Group-3-Copy-2" transform="translate(1832.250000, 513.000000)">
                <mask id="mask-6" fill="white">
                    <use xlink:href="#path-5"></use>
                </mask>
                <use id="Combined-Shape" fill="#000000" xlink:href="#path-5"></use>
            </g>
            <g id="Group-3-Copy-3" transform="translate(465.750000, 1067.250000)">
                <mask id="mask-8" fill="white">
                    <use xlink:href="#path-7"></use>
                </mask>
                <use id="Combined-Shape" fill="#000000" xlink:href="#path-7"></use>
            </g>
            <g id="Group-3-Copy-4" transform="translate(2259.750000, 366.000000)">
                <mask id="mask-10" fill="white">
                    <use xlink:href="#path-9"></use>
                </mask>
                <use id="Combined-Shape" fill="#000000" xlink:href="#path-9"></use>
            </g>
        </g>
    </g>
</svg>