<?xml version="1.0" encoding="UTF-8"?>
<svg width="1864px" height="978px" viewBox="0 0 1864 978" version="1.1" xmlns="http://www.w3.org/2000/svg" xmlns:xlink="http://www.w3.org/1999/xlink">
    <!-- Generator: Sketch 51.1 (57501) - http://www.bohemiancoding.com/sketch -->
    <title>Group 2 Copy 2</title>
    <desc>Created with Sketch.</desc>
    <defs>
        <path d="M9.99857255,23.8194444 L-8.8817842e-16,13.8208719 L0,5.86658534 L17.9528591,23.8194444 L9.99857255,23.8194444 Z M6.41125557,23.8194444 L0,23.8194444 L0,17.4081889 L6.41125557,23.8194444 Z M63,19.1128542 L44.4965523,0.609406566 L52.4508389,0.609406566 L63,11.1585677 L63,19.1128542 Z M63,22.7001712 L63,23.8194444 L56.1649867,23.8194444 L32.9549488,0.609406566 L40.9092354,0.609406566 L63,22.7001712 Z M63,7.57125068 L56.0381559,0.609406566 L63,0.609406566 L63,7.57125068 Z M52.5776697,23.8194444 L44.6233832,23.8194444 L21.4133453,0.609406566 L29.3676318,0.609406566 L52.5776697,23.8194444 Z M41.0360662,23.8194444 L33.0817796,23.8194444 L9.87174174,0.609406566 L17.8260283,0.609406566 L41.0360662,23.8194444 Z M29.4944626,23.8194444 L21.5401761,23.8194444 L0,2.27926836 L0,0.609406566 L6.28442476,0.609406566 L29.4944626,23.8194444 Z" id="path-1"></path>
        <path d="M0.673859127,17.2888558 L0.673859127,8.85821683 L28.4952877,36.6796454 L28.4952877,41 L24.3850034,41 L0.673859127,17.2888558 Z M0.673859127,21.0910037 L20.5828554,41 L12.1522165,41 L0.673859127,29.5216427 L0.673859127,21.0910037 Z M16.2812161,1.77635684e-15 L28.4952877,12.2140716 L28.4952877,20.6447106 L7.85057712,3.55271368e-15 L16.2812161,0 Z M20.083364,0 L28.4952877,0 L28.4952877,8.41192369 L20.083364,-3.55271368e-15 Z M0.673859127,5.05606889 L0.673859127,0 L4.04842919,0 L28.4952877,24.4468585 L28.4952877,32.8774975 L0.673859127,5.05606889 Z M0.673859127,33.3237906 L8.35006853,41 L0.673859127,41 L0.673859127,33.3237906 Z" id="path-3"></path>
        <path d="M0.673859127,17.2888558 L0.673859127,8.85821683 L28.4952877,36.6796454 L28.4952877,41 L24.3850034,41 L0.673859127,17.2888558 Z M0.673859127,21.0910037 L20.5828554,41 L12.1522165,41 L0.673859127,29.5216427 L0.673859127,21.0910037 Z M16.2812161,1.77635684e-15 L28.4952877,12.2140716 L28.4952877,20.6447106 L7.85057712,3.55271368e-15 L16.2812161,0 Z M20.083364,0 L28.4952877,0 L28.4952877,8.41192369 L20.083364,-3.55271368e-15 Z M0.673859127,5.05606889 L0.673859127,0 L4.04842919,0 L28.4952877,24.4468585 L28.4952877,32.8774975 L0.673859127,5.05606889 Z M0.673859127,33.3237906 L8.35006853,41 L0.673859127,41 L0.673859127,33.3237906 Z" id="path-5"></path>
        <path d="M0.673859127,17.2888558 L0.673859127,8.85821683 L28.4952877,36.6796454 L28.4952877,41 L24.3850034,41 L0.673859127,17.2888558 Z M0.673859127,21.0910037 L20.5828554,41 L12.1522165,41 L0.673859127,29.5216427 L0.673859127,21.0910037 Z M16.2812161,1.77635684e-15 L28.4952877,12.2140716 L28.4952877,20.6447106 L7.85057712,3.55271368e-15 L16.2812161,0 Z M20.083364,0 L28.4952877,0 L28.4952877,8.41192369 L20.083364,-3.55271368e-15 Z M0.673859127,5.05606889 L0.673859127,0 L4.04842919,0 L28.4952877,24.4468585 L28.4952877,32.8774975 L0.673859127,5.05606889 Z M0.673859127,33.3237906 L8.35006853,41 L0.673859127,41 L0.673859127,33.3237906 Z" id="path-7"></path>
        <path d="M0.673859127,17.2888558 L0.673859127,8.85821683 L28.4952877,36.6796454 L28.4952877,41 L24.3850034,41 L0.673859127,17.2888558 Z M0.673859127,21.0910037 L20.5828554,41 L12.1522165,41 L0.673859127,29.5216427 L0.673859127,21.0910037 Z M16.2812161,1.77635684e-15 L28.4952877,12.2140716 L28.4952877,20.6447106 L7.85057712,3.55271368e-15 L16.2812161,0 Z M20.083364,0 L28.4952877,0 L28.4952877,8.41192369 L20.083364,-3.55271368e-15 Z M0.673859127,5.05606889 L0.673859127,0 L4.04842919,0 L28.4952877,24.4468585 L28.4952877,32.8774975 L0.673859127,5.05606889 Z M0.673859127,33.3237906 L8.35006853,41 L0.673859127,41 L0.673859127,33.3237906 Z" id="path-9"></path>
    </defs>
    <g id="floor-plans" stroke="none" stroke-width="1" fill="none" fill-rule="evenodd">
        <g id="Group-2-Copy-2">
            <g id="Group">
                <path d="M1474.83018,240.466134 L1472.8974,239.939598 L1473.94548,239.905568 L1474.83018,240.466134 Z M624.501092,237.910159 L624.509022,234.530763 L915.037792,235.206644 L915.021932,241.965437 L624.501092,241.289574 L624.501092,241.965446 L617.713037,241.965446 L617.713037,40.552868 L624.501092,40.552868 L624.501092,237.910159 Z M1689.54698,210.874914 L1853.81792,210.874914 L1853.81792,217.633725 L1694.97742,217.633725 L1694.97742,294.008293 L1688.18937,294.008293 L1688.18937,210.874914 L1689.54698,210.874914 Z M1690.90459,327.80235 L1855.17553,327.80235 L1855.17553,334.561161 L1694.97742,334.561161 L1694.97742,456.895646 L1688.18937,456.895646 L1688.18937,327.80235 L1690.90459,327.80235 Z M1535.3475,237.911954 L1535.56874,244.667175 L1472.07054,244.701204 L1432.27174,221.51145 L1432.96658,58.9290916 L1471.2382,35.6416391 L1474.77783,41.4088101 L1439.73845,62.7295124 L1439.07567,217.811287 L1473.94548,237.877925 L1535.3475,237.911954 Z M1215.06191,692.102281 L1215.06191,685.343469 L1392.90896,685.343469 L1392.90896,692.102281 L1215.06191,692.102281 Z M1238.8201,40.552868 L1245.60816,40.552868 L1245.60816,345.375259 L1238.8201,345.375259 L1238.8201,40.552868 Z M1688.18937,490.689703 L1694.97742,490.689703 L1694.97742,525.159641 L1688.18937,525.159641 L1688.18937,490.689703 Z M1650.85506,52.1466969 L1650.85506,10.8140981 L1657.64312,10.8140981 L1657.64312,49.2354731 L1694.97742,84.3812921 L1694.97742,177.080857 L1688.18937,177.080857 L1688.18937,87.2925158 L1650.85506,52.1466969 Z" id="Combined-Shape" fill="#C2F3FE" fill-rule="nonzero"></path>
                <path d="M915.029862,756.310988 L626.537509,756.310988 L626.537509,820.784124 L66.5640494,820.784124 L66.5640494,756.818842 L0,756.818842 L0,30.8266423 L61.2311237,30.8266423 L92.1911467,0 L242.201982,0 L273.162005,30.8266423 L364.598978,30.8266423 L394.785,0 L543.288206,0 L574.248229,30.8266423 L664.911201,30.8266423 L695.097223,0 L843.682417,0 L873.094438,30.8266423 L965.223424,30.8266423 L995.409446,0 L1146.23465,0 L1177.19468,30.8266423 L1266.35002,30.8266423 L1297.31004,0 L1446.50771,0 L1478.24173,30.8266423 L1567.51343,30.8266423 L1600.02145,0 L1748.44747,0 L1778.63349,30.8266423 L1829.76224,30.8266423 L1829.76224,83.3521507 L1863.81826,118.032123 L1863.81826,223.077956 L1829.76224,249.280602 L1829.76224,289.781143 L1863.81826,322.149117 L1863.81826,468.617602 L1829.76224,500.21491 L1829.76224,763.702197 L1863.81826,795.299505 L1863.81826,940.117147 L1826.61698,978 L1208.9889,978 L1208.9889,831.333794 L1208.95266,831.333794 L1208.95266,820.784124 L925.89075,820.784124 L925.89075,821.195577 L915.029862,821.195577 L915.029862,756.310988 Z M915.029862,745.49689 L915.029862,516.373186 L875.659141,516.373186 L875.659141,505.559088 L915.029862,505.559088 L915.029862,470.413269 L915.029862,459.599171 L953.721777,459.599171 L953.721777,437.295093 L964.582666,437.295093 L964.582666,459.599171 L1031.78441,459.599171 L1031.78441,470.413269 L925.89075,470.413269 L925.89075,613.024188 L1064.02768,613.024188 L1064.02768,459.599171 L1074.88857,459.599171 L1074.88857,613.024188 L1213.36489,613.024188 L1213.36489,470.413269 L1104.41661,470.413269 L1104.41661,459.599171 L1251.71741,459.599171 L1251.71741,470.413269 L1224.22578,470.413269 L1224.22578,613.024188 L1328.76184,613.024188 L1328.76184,470.413269 L1285.65768,470.413269 L1285.65768,459.599171 L1432.27968,459.599171 L1432.27968,470.413269 L1432.27968,579.230131 L1421.41879,579.230131 L1421.41879,470.413269 L1339.62272,470.413269 L1339.62272,613.024188 L1432.27968,613.024188 L1432.27968,623.838286 L925.89075,623.838286 L925.89075,809.970026 L1208.95266,809.970026 L1208.95266,657.632343 L1219.81355,657.632343 L1219.81355,809.970026 L1219.84979,809.970026 L1219.84979,967.185902 L1426.84924,967.185902 L1426.84924,682.639945 L1437.71012,682.639945 L1437.71012,967.185902 L1822.04661,967.185902 L1852.95738,935.70881 L1852.95738,800.004007 L1818.90135,768.406698 L1818.90135,675.881133 L1515.09395,675.881133 L1515.09395,665.067035 L1515.09395,633.976503 L1525.95484,633.976503 L1525.95484,665.067035 L1818.90135,665.067035 L1818.90135,535.973739 L1525.95484,535.973739 L1525.95484,567.064271 L1515.09395,567.064271 L1515.09395,535.973739 L1515.09395,525.159641 L1818.90135,525.159641 L1818.90135,495.510409 L1852.95738,463.913101 L1852.95738,326.776476 L1818.90135,294.408502 L1818.90135,243.970448 L1852.95738,217.767802 L1852.95738,122.44046 L1818.90135,87.7604873 L1818.90135,41.6407404 L1774.05402,41.6407404 L1743.868,10.8140981 L1604.36581,10.8140981 L1571.85778,41.6407404 L1473.82134,41.6407404 L1442.08732,10.8140981 L1301.80877,10.8140981 L1270.84875,41.6407404 L1172.69595,41.6407404 L1141.73593,10.8140981 L999.988916,10.8140981 L969.802893,41.6407404 L868.431735,41.6407404 L839.019713,10.8140981 L699.676693,10.8140981 L669.49067,41.6407404 L569.749501,41.6407404 L538.789478,10.8140981 L399.36447,10.8140981 L369.178447,41.6407404 L268.663278,41.6407404 L237.703255,10.8140981 L96.689874,10.8140981 L65.729851,41.6407404 L10.8608886,41.6407404 L10.8608886,210.536973 L137.797524,210.536973 L137.797524,221.351071 L137.797524,243.993089 L319.038602,243.993089 L319.038602,254.807187 L319.038602,444.729786 L308.177713,444.729786 L308.177713,254.807187 L137.797524,254.807187 L137.797524,478.523842 L318.359796,478.523842 L318.359796,489.337941 L126.936635,489.337941 L126.936635,488.662059 L126.936635,221.351071 L10.8608886,221.351071 L10.8608886,560.30546 L126.936635,560.30546 L126.936635,522.456116 L137.797524,522.456116 L137.797524,571.119558 L10.8608886,571.119558 L10.8608886,746.004743 L77.424938,746.004743 L77.424938,809.970026 L515.892207,809.970026 L515.892207,619.107118 L515.892207,608.29302 L557.97815,608.29302 L557.97815,619.107118 L526.753095,619.107118 L526.753095,809.970026 L615.676621,809.970026 L615.676621,619.107118 L589.88201,619.107118 L589.88201,608.29302 L615.676621,608.29302 L615.676621,426.480995 L626.537509,426.480995 L626.537509,508.262612 L698.830299,508.262612 L698.830299,504.883207 L709.691187,504.883207 L709.691187,508.262612 L782.662782,508.262612 L782.662782,505.559088 L793.523671,505.559088 L810.993809,505.559088 L810.993809,516.373186 L793.523671,516.373186 L793.523671,619.107118 L785.378004,619.107118 L626.537509,619.107118 L626.537509,745.49689 L915.029862,745.49689 Z M626.537509,515.021424 L626.537509,608.29302 L698.830299,608.29302 L698.830299,515.021424 L626.537509,515.021424 Z M709.691187,515.021424 L709.691187,608.29302 L782.662782,608.29302 L782.662782,515.021424 L709.691187,515.021424 Z M615.676621,232.50311 L626.537509,232.50311 L626.537509,392.686938 L615.676621,392.686938 L615.676621,232.50311 Z M953.721777,383.224603 L909.599417,383.224603 L909.599417,233.178991 L920.460306,233.178991 L920.460306,372.410504 L964.582666,372.410504 L964.582666,404.176918 L953.721777,404.176918 L953.721777,383.224603 Z" id="Combined-Shape" fill="#000000" fill-rule="nonzero"></path>
                <g id="door" transform="translate(142.209760, 506.234969) scale(-1, -1) rotate(90.000000) translate(-142.209760, -506.234969) translate(125.239621, 491.027643)" fill="#000000">
                    <path d="M4.35897436,30 L4.35897436,28.5365854 C14.795796,28.5365854 22.0707509,25.6973053 26.2784708,20.0435943 C30.5550635,14.2973424 32.595439,7.62920793 32.3991009,0.0172326911 L34.0009367,-0.0172326911 C34.204965,7.89288886 32.0726849,14.8613761 27.6035997,20.866271 C23.0656417,26.9637067 15.2858893,30 4.35897436,30 Z" id="Path-5" fill-rule="nonzero"></path>
                    <rect id="Rectangle-7" fill-rule="evenodd" x="0" y="0" width="4.35897436" height="30"></rect>
                </g>
                <g id="door" transform="translate(323.450838, 461.626814) scale(-1, -1) rotate(90.000000) translate(-323.450838, -461.626814) translate(306.480699, 446.419489)" fill="#000000">
                    <path d="M4.35897436,30 L4.35897436,28.5365854 C14.795796,28.5365854 22.0707509,25.6973053 26.2784708,20.0435943 C30.5550635,14.2973424 32.595439,7.62920793 32.3991009,0.0172326911 L34.0009367,-0.0172326911 C34.204965,7.89288886 32.0726849,14.8613761 27.6035997,20.866271 C23.0656417,26.9637067 15.2858893,30 4.35897436,30 Z" id="Path-5" fill-rule="nonzero"></path>
                    <rect id="Rectangle-7" fill-rule="evenodd" x="0" y="0" width="4.35897436" height="30"></rect>
                </g>
                <g id="door" transform="translate(1224.225783, 640.735314) scale(-1, -1) rotate(90.000000) translate(-1224.225783, -640.735314) translate(1207.255645, 625.527989)" fill="#000000">
                    <path d="M4.35897436,30 L4.35897436,28.5365854 C14.795796,28.5365854 22.0707509,25.6973053 26.2784708,20.0435943 C30.5550635,14.2973424 32.595439,7.62920793 32.3991009,0.0172326911 L34.0009367,-0.0172326911 C34.204965,7.89288886 32.0726849,14.8613761 27.6035997,20.866271 C23.0656417,26.9637067 15.2858893,30 4.35897436,30 Z" id="Path-5" fill-rule="nonzero"></path>
                    <rect id="Rectangle-7" fill-rule="evenodd" x="0" y="0" width="4.35897436" height="30"></rect>
                </g>
                <g id="door" transform="translate(630.949745, 409.583967) scale(-1, -1) rotate(90.000000) translate(-630.949745, -409.583967) translate(613.979607, 394.376641)" fill="#000000">
                    <path d="M4.35897436,30 L4.35897436,28.5365854 C14.795796,28.5365854 22.0707509,25.6973053 26.2784708,20.0435943 C30.5550635,14.2973424 32.595439,7.62920793 32.3991009,0.0172326911 L34.0009367,-0.0172326911 C34.204965,7.89288886 32.0726849,14.8613761 27.6035997,20.866271 C23.0656417,26.9637067 15.2858893,30 4.35897436,30 Z" id="Path-5" fill-rule="nonzero"></path>
                    <rect id="Rectangle-7" fill-rule="evenodd" x="0" y="0" width="4.35897436" height="30"></rect>
                </g>
                <g id="door" transform="translate(1436.691916, 596.127160) scale(-1, -1) rotate(90.000000) translate(-1436.691916, -596.127160) translate(1419.721777, 580.919834)" fill="#000000">
                    <path d="M4.35897436,30 L4.35897436,28.5365854 C14.795796,28.5365854 22.0707509,25.6973053 26.2784708,20.0435943 C30.5550635,14.2973424 32.595439,7.62920793 32.3991009,0.0172326911 L34.0009367,-0.0172326911 C34.204965,7.89288886 32.0726849,14.8613761 27.6035997,20.866271 C23.0656417,26.9637067 15.2858893,30 4.35897436,30 Z" id="Path-5" fill-rule="nonzero"></path>
                    <rect id="Rectangle-7" fill-rule="evenodd" x="0" y="0" width="4.35897436" height="30"></rect>
                </g>
                <g id="door" transform="translate(968.994902, 421.073946) scale(-1, -1) rotate(90.000000) translate(-968.994902, -421.073946) translate(952.024763, 405.866621)" fill="#000000">
                    <path d="M4.35897436,30 L4.35897436,28.5365854 C14.795796,28.5365854 22.0707509,25.6973053 26.2784708,20.0435943 C30.5550635,14.2973424 32.595439,7.62920793 32.3991009,0.0172326911 L34.0009367,-0.0172326911 C34.204965,7.89288886 32.0726849,14.8613761 27.6035997,20.866271 C23.0656417,26.9637067 15.2858893,30 4.35897436,30 Z" id="Path-5" fill-rule="nonzero"></path>
                    <rect id="Rectangle-7" fill-rule="evenodd" x="0" y="0" width="4.35897436" height="30"></rect>
                </g>
                <g id="door" transform="translate(1530.367079, 617.755356) scale(-1, -1) rotate(90.000000) translate(-1530.367079, -617.755356) translate(1513.396941, 602.548030)" fill="#000000">
                    <path d="M4.35897436,30 L4.35897436,28.5365854 C14.795796,28.5365854 22.0707509,25.6973053 26.2784708,20.0435943 C30.5550635,14.2973424 32.595439,7.62920793 32.3991009,0.0172326911 L34.0009367,-0.0172326911 C34.204965,7.89288886 32.0726849,14.8613761 27.6035997,20.866271 C23.0656417,26.9637067 15.2858893,30 4.35897436,30 Z" id="Path-5" fill-rule="nonzero"></path>
                    <rect id="Rectangle-7" fill-rule="evenodd" x="0" y="0" width="4.35897436" height="30"></rect>
                </g>
                <g id="door" transform="translate(1530.367079, 583.961299) scale(-1, 1) rotate(90.000000) translate(-1530.367079, -583.961299) translate(1513.396941, 568.753974)" fill="#000000">
                    <path d="M4.35897436,30 L4.35897436,28.5365854 C14.795796,28.5365854 22.0707509,25.6973053 26.2784708,20.0435943 C30.5550635,14.2973424 32.595439,7.62920793 32.3991009,0.0172326911 L34.0009367,-0.0172326911 C34.204965,7.89288886 32.0726849,14.8613761 27.6035997,20.866271 C23.0656417,26.9637067 15.2858893,30 4.35897436,30 Z" id="Path-5" fill-rule="nonzero"></path>
                    <rect id="Rectangle-7" fill-rule="evenodd" x="0" y="0" width="4.35897436" height="30"></rect>
                </g>
                <g id="door" transform="translate(1679.704297, 473.792674) rotate(90.000000) translate(-1679.704297, -473.792674) translate(1662.734159, 458.585349)" fill="#000000">
                    <path d="M4.35897436,30 L4.35897436,28.5365854 C14.795796,28.5365854 22.0707509,25.6973053 26.2784708,20.0435943 C30.5550635,14.2973424 32.595439,7.62920793 32.3991009,0.0172326911 L34.0009367,-0.0172326911 C34.204965,7.89288886 32.0726849,14.8613761 27.6035997,20.866271 C23.0656417,26.9637067 15.2858893,30 4.35897436,30 Z" id="Path-5" fill-rule="nonzero"></path>
                    <rect id="Rectangle-7" fill-rule="evenodd" x="0" y="0" width="4.35897436" height="30"></rect>
                </g>
                <g id="door" transform="translate(1679.704297, 310.905321) rotate(90.000000) translate(-1679.704297, -310.905321) translate(1662.734159, 295.697996)" fill="#000000">
                    <path d="M4.35897436,30 L4.35897436,28.5365854 C14.795796,28.5365854 22.0707509,25.6973053 26.2784708,20.0435943 C30.5550635,14.2973424 32.595439,7.62920793 32.3991009,0.0172326911 L34.0009367,-0.0172326911 C34.204965,7.89288886 32.0726849,14.8613761 27.6035997,20.866271 C23.0656417,26.9637067 15.2858893,30 4.35897436,30 Z" id="Path-5" fill-rule="nonzero"></path>
                    <rect id="Rectangle-7" fill-rule="evenodd" x="0" y="0" width="4.35897436" height="30"></rect>
                </g>
                <g id="door" transform="translate(1679.704297, 193.302004) rotate(90.000000) translate(-1679.704297, -193.302004) translate(1662.734159, 178.094679)" fill="#000000">
                    <path d="M4.35897436,30 L4.35897436,28.5365854 C14.795796,28.5365854 22.0707509,25.6973053 26.2784708,20.0435943 C30.5550635,14.2973424 32.595439,7.62920793 32.3991009,0.0172326911 L34.0009367,-0.0172326911 C34.204965,7.89288886 32.0726849,14.8613761 27.6035997,20.866271 C23.0656417,26.9637067 15.2858893,30 4.35897436,30 Z" id="Path-5" fill-rule="nonzero"></path>
                    <rect id="Rectangle-7" fill-rule="evenodd" x="0" y="0" width="4.35897436" height="30"></rect>
                </g>
                <g id="door" transform="translate(827.463948, 501.165860) scale(1, -1) translate(-827.463948, -501.165860) translate(810.493809, 485.958535)" fill="#000000">
                    <path d="M4.35897436,30 L4.35897436,28.5365854 C14.795796,28.5365854 22.0707509,25.6973053 26.2784708,20.0435943 C30.5550635,14.2973424 32.595439,7.62920793 32.3991009,0.0172326911 L34.0009367,-0.0172326911 C34.204965,7.89288886 32.0726849,14.8613761 27.6035997,20.866271 C23.0656417,26.9637067 15.2858893,30 4.35897436,30 Z" id="Path-5" fill-rule="nonzero"></path>
                    <rect id="Rectangle-7" fill-rule="evenodd" x="0" y="0" width="4.35897436" height="30"></rect>
                </g>
                <g id="door" transform="translate(861.404224, 501.165860) scale(-1, -1) translate(-861.404224, -501.165860) translate(844.434086, 485.958535)" fill="#000000">
                    <path d="M4.35897436,30 L4.35897436,28.5365854 C14.795796,28.5365854 22.0707509,25.6973053 26.2784708,20.0435943 C30.5550635,14.2973424 32.595439,7.62920793 32.3991009,0.0172326911 L34.0009367,-0.0172326911 C34.204965,7.89288886 32.0726849,14.8613761 27.6035997,20.866271 C23.0656417,26.9637067 15.2858893,30 4.35897436,30 Z" id="Path-5" fill-rule="nonzero"></path>
                    <rect id="Rectangle-7" fill-rule="evenodd" x="0" y="0" width="4.35897436" height="30"></rect>
                </g>
                <g id="door" transform="translate(1409.879097, 676.894955) scale(-1, -1) translate(-1409.879097, -676.894955) translate(1392.908958, 661.687630)" fill="#000000">
                    <path d="M4.35897436,30 L4.35897436,28.5365854 C14.795796,28.5365854 22.0707509,25.6973053 26.2784708,20.0435943 C30.5550635,14.2973424 32.595439,7.62920793 32.3991009,0.0172326911 L34.0009367,-0.0172326911 C34.204965,7.89288886 32.0726849,14.8613761 27.6035997,20.866271 C23.0656417,26.9637067 15.2858893,30 4.35897436,30 Z" id="Path-5" fill-rule="nonzero"></path>
                    <rect id="Rectangle-7" fill-rule="evenodd" x="0" y="0" width="4.35897436" height="30"></rect>
                </g>
                <g id="door" transform="translate(574.269483, 603.899793) scale(-1, -1) translate(-574.269483, -603.899793) translate(557.299345, 588.692467)" fill="#000000">
                    <path d="M4.35897436,30 L4.35897436,28.5365854 C14.795796,28.5365854 22.0707509,25.6973053 26.2784708,20.0435943 C30.5550635,14.2973424 32.595439,7.62920793 32.3991009,0.0172326911 L34.0009367,-0.0172326911 C34.204965,7.89288886 32.0726849,14.8613761 27.6035997,20.866271 C23.0656417,26.9637067 15.2858893,30 4.35897436,30 Z" id="Path-5" fill-rule="nonzero"></path>
                    <rect id="Rectangle-7" fill-rule="evenodd" x="0" y="0" width="4.35897436" height="30"></rect>
                </g>
                <g id="door" transform="translate(1030.426803, 459.599171)" fill="#000000">
                    <path d="M4.35897436,30 L4.35897436,28.5365854 C14.795796,28.5365854 22.0707509,25.6973053 26.2784708,20.0435943 C30.5550635,14.2973424 32.595439,7.62920793 32.3991009,0.0172326911 L34.0009367,-0.0172326911 C34.204965,7.89288886 32.0726849,14.8613761 27.6035997,20.866271 C23.0656417,26.9637067 15.2858893,30 4.35897436,30 Z" id="Path-5" fill-rule="nonzero"></path>
                    <rect id="Rectangle-7" fill-rule="evenodd" x="0" y="0" width="4.35897436" height="30"></rect>
                </g>
                <g id="door" transform="translate(1091.519301, 474.806496) scale(-1, 1) translate(-1091.519301, -474.806496) translate(1074.549162, 459.599171)" fill="#000000">
                    <path d="M4.35897436,30 L4.35897436,28.5365854 C14.795796,28.5365854 22.0707509,25.6973053 26.2784708,20.0435943 C30.5550635,14.2973424 32.595439,7.62920793 32.3991009,0.0172326911 L34.0009367,-0.0172326911 C34.204965,7.89288886 32.0726849,14.8613761 27.6035997,20.866271 C23.0656417,26.9637067 15.2858893,30 4.35897436,30 Z" id="Path-5" fill-rule="nonzero"></path>
                    <rect id="Rectangle-7" fill-rule="evenodd" x="0" y="0" width="4.35897436" height="30"></rect>
                </g>
                <g id="door" transform="translate(1268.687546, 474.806496) scale(-1, 1) translate(-1268.687546, -474.806496) translate(1251.717407, 459.599171)" fill="#000000">
                    <path d="M4.35897436,30 L4.35897436,28.5365854 C14.795796,28.5365854 22.0707509,25.6973053 26.2784708,20.0435943 C30.5550635,14.2973424 32.595439,7.62920793 32.3991009,0.0172326911 L34.0009367,-0.0172326911 C34.204965,7.89288886 32.0726849,14.8613761 27.6035997,20.866271 C23.0656417,26.9637067 15.2858893,30 4.35897436,30 Z" id="Path-5" fill-rule="nonzero"></path>
                    <rect id="Rectangle-7" fill-rule="evenodd" x="0" y="0" width="4.35897436" height="30"></rect>
                </g>
            </g>
            <g id="Group-3-Copy" transform="translate(1452.000000, 358.500000)">
                <mask id="mask-2" fill="white">
                    <use xlink:href="#path-1"></use>
                </mask>
                <use id="Combined-Shape" fill="#000000" xlink:href="#path-1"></use>
            </g>
            <g id="Group-3-Copy" transform="translate(308.500000, 511.000000)">
                <mask id="mask-4" fill="white">
                    <use xlink:href="#path-3"></use>
                </mask>
                <use id="Combined-Shape" fill="#000000" xlink:href="#path-3"></use>
            </g>
            <g id="Group-3-Copy-2" transform="translate(1221.500000, 342.000000)">
                <mask id="mask-6" fill="white">
                    <use xlink:href="#path-5"></use>
                </mask>
                <use id="Combined-Shape" fill="#000000" xlink:href="#path-5"></use>
            </g>
            <g id="Group-3-Copy-3" transform="translate(310.500000, 711.500000)">
                <mask id="mask-8" fill="white">
                    <use xlink:href="#path-7"></use>
                </mask>
                <use id="Combined-Shape" fill="#000000" xlink:href="#path-7"></use>
            </g>
            <g id="Group-3-Copy-4" transform="translate(1506.500000, 244.000000)">
                <mask id="mask-10" fill="white">
                    <use xlink:href="#path-9"></use>
                </mask>
                <use id="Combined-Shape" fill="#000000" xlink:href="#path-9"></use>
            </g>
        </g>
    </g>
</svg>