<?xml version="1.0" encoding="UTF-8"?>
<svg width="2412px" height="1662px" viewBox="0 0 2412 1662" version="1.1" xmlns="http://www.w3.org/2000/svg" xmlns:xlink="http://www.w3.org/1999/xlink">
    <!-- Generator: Sketch 51.1 (57501) - http://www.bohemiancoding.com/sketch -->
    <title>Group 4 Copy 2</title>
    <desc>Created with Sketch.</desc>
    <defs>
        <path d="M20.5478586,86.5 L0.638392857,66.5905342 L0.638392857,58.432774 L28.7056188,86.5 L20.5478586,86.5 Z M16.8687767,86.5 L8.71101651,86.5 L0.638392857,78.4273763 L0.638392857,70.2696161 L16.8687767,86.5 Z M44.9955357,75.4371508 L0.638392857,31.0800079 L0.638392857,22.9222477 L44.9955357,67.2793906 L44.9955357,75.4371508 Z M44.9955357,79.1162327 L44.9955357,86.5 L44.2215428,86.5 L0.638392857,42.91685 L0.638392857,34.7590898 L44.9955357,79.1162327 Z M32.3847007,86.5 L0.638392857,54.7536921 L0.638392857,46.5959319 L40.5424609,86.5 L32.3847007,86.5 Z M5.03193461,86.5 L0.638392857,86.5 L0.638392857,82.1064582 L5.03193461,86.5 Z M44.9955357,16.2529403 L28.7425955,0 L36.9003557,0 L44.9955357,8.09518005 L44.9955357,16.2529403 Z M44.9955357,19.9320222 L44.9955357,28.0897824 L16.9057534,-3.55271368e-15 L25.0635136,0 L44.9955357,19.9320222 Z M44.9955357,4.41609815 L40.5794376,0 L44.9955357,0 L44.9955357,4.41609815 Z M44.9955357,31.7688643 L44.9955357,39.9266245 L5.06891125,1.77635684e-15 L13.2266715,0 L44.9955357,31.7688643 Z M44.9955357,43.6057064 L44.9955357,51.7634666 L0.638392857,7.40632371 L0.638392857,0 L1.38982935,0 L44.9955357,43.6057064 Z M44.9955357,55.4425485 L44.9955357,63.6003087 L0.638392857,19.2431658 L0.638392857,11.0854056 L44.9955357,55.4425485 Z" id="path-1"></path>
        <path d="M13.0029096,40.5 L0,27.4970904 L0,17.7279096 L22.7720904,40.5 L13.0029096,40.5 Z M8.59709041,40.5 L0,40.5 L0,31.9029096 L8.59709041,40.5 Z M10.6220904,0 L23.8514957,13.2294053 L23.8514957,16.0177794 L26.6398698,16.0177794 L40,29.3779096 L40,39.1470904 L0.852909588,8.8817842e-16 L10.6220904,0 Z M15.0279096,0 L23.8514957,0 L23.8514957,8.82358614 L15.0279096,0 Z M31.045689,16.0177794 L40,16.0177794 L40,24.9720904 L31.045689,16.0177794 Z M27.1779096,40.5 L0,13.3220904 L0,3.55290959 L36.9470904,40.5 L27.1779096,40.5 Z" id="path-3"></path>
        <path d="M0.640448873,8.10101699 L0.640448873,0 L0.800637209,0 L28.8006372,28 L20.6330074,28 L0.687236642,8.05422922 L0.640448873,8.10101699 Z M0.640448873,11.6909745 L16.9494744,28 L8.78184463,28 L0.687236642,19.905392 L0.640448873,19.9521798 L0.640448873,11.6909745 Z M28.1864958,0 L36.3541256,0 L44.4487336,8.09460799 L44.4955213,8.04782022 L44.4955213,16.3090255 L28.1864958,3.55271368e-15 Z M24.5029628,3.55271368e-15 L44.4487336,19.9457708 L44.4955213,19.898983 L44.4955213,28 L44.335333,28 L16.335333,0 L24.5029628,0 Z M4.48417021,0 L12.6518,0 L40.6518,28 L32.4841702,28 L4.48417021,0 Z M0.640448873,23.5421372 L5.09831163,28 L0.640448873,28 L0.640448873,23.5421372 Z M40.0376586,0 L44.4955213,0 L44.4955213,4.45786276 L40.0376586,0 Z" id="path-5"></path>
        <path d="M27.495453,10.7616353 L27.495453,19.0217556 L8.47369741,1.77635684e-15 L16.7338178,0 L27.495453,10.7616353 Z M27.495453,7.03638978 L20.4590633,-3.55271368e-15 L27.495453,0 L27.495453,7.03638978 Z M27.495453,22.7470011 L27.495453,27 L23.4883316,27 L0.650214947,4.16188339 L0.650214947,0 L4.74845193,0 L27.495453,22.7470011 Z M19.7630861,27 L11.5029657,27 L0.650214947,16.1472492 L0.650214947,7.88712887 L19.7630861,27 Z M7.77772022,27 L0.650214947,27 L0.650214947,19.8724947 L7.77772022,27 Z" id="path-7"></path>
        <path d="M27.495453,10.7616353 L27.495453,19.0217556 L8.47369741,3.55271368e-15 L16.7338178,0 L27.495453,10.7616353 Z M27.495453,7.03638978 L20.4590633,-7.10542736e-15 L27.495453,0 L27.495453,7.03638978 Z M27.495453,22.7470011 L27.495453,27 L23.4883316,27 L0.650214947,4.16188339 L0.650214947,0 L4.74845193,0 L27.495453,22.7470011 Z M19.7630861,27 L11.5029657,27 L0.650214947,16.1472492 L0.650214947,7.88712887 L19.7630861,27 Z M7.77772022,27 L0.650214947,27 L0.650214947,19.8724947 L7.77772022,27 Z" id="path-9"></path>
        <path d="M27.495453,10.7616353 L27.495453,19.0217556 L8.47369741,3.55271368e-15 L16.7338178,0 L27.495453,10.7616353 Z M27.495453,7.03638978 L20.4590633,-7.10542736e-15 L27.495453,0 L27.495453,7.03638978 Z M27.495453,22.7470011 L27.495453,27 L23.4883316,27 L0.650214947,4.16188339 L0.650214947,0 L4.74845193,0 L27.495453,22.7470011 Z M19.7630861,27 L11.5029657,27 L0.650214947,16.1472492 L0.650214947,7.88712887 L19.7630861,27 Z M7.77772022,27 L0.650214947,27 L0.650214947,19.8724947 L7.77772022,27 Z" id="path-11"></path>
    </defs>
    <g id="floor-plans" stroke="none" stroke-width="1" fill="none" fill-rule="evenodd">
        <g id="Group-4-Copy-2">
            <g id="Group">
                <path d="M1937.75215,649.168286 L1937.75215,779.647882 L1937.75215,786.107268 L1000.25536,786.107268 L997.020386,786.107268 L997.020386,642.7089 L1000.25536,642.7089 L1937.75215,642.7089 L1937.75215,649.168286 Z M1931.28219,649.168286 L1003.49034,649.168286 L1003.49034,779.647882 L1931.28219,779.647882 L1931.28219,649.168286 Z M1143.8884,285.497277 L1137.41846,285.51244 L1136.77147,10.3425989 L1143.24141,10.3274361 L1143.8884,285.497277 Z M859.857296,428.257287 L853.387339,428.257287 L853.387339,295.839876 L859.857296,295.839876 L859.857296,428.257287 Z M859.857296,571.009716 L853.387339,571.009716 L853.387339,492.851147 L859.857296,492.851147 L859.857296,571.009716 Z M22.6448498,1444.96463 L22.6448498,1438.50525 L97.6963519,1438.50525 L97.6963519,1444.96463 L22.6448498,1444.96463 Z M1598.0794,1415.25146 L1591.60944,1415.25146 L1591.60944,1293.16906 L1598.0794,1293.16906 L1598.0794,1415.25146 Z M1643.3691,1399.74893 L1643.3691,1393.28955 L1873.05258,1393.28955 L1873.05258,1399.74893 L1643.3691,1399.74893 Z M1643.3691,1109.7225 L1643.3691,1103.26312 L1873.05258,1103.26312 L1873.05258,1109.7225 L1643.3691,1109.7225 Z M130.046137,1444.96463 L130.046137,1438.50525 L229.036481,1438.50525 L229.036481,1444.96463 L130.046137,1444.96463 Z M827.507511,851.347066 L821.037554,851.347066 L821.037554,795.150408 L827.507511,795.150408 L827.507511,851.347066 Z M827.507511,762.853478 L821.037554,762.853478 L821.037554,709.886514 L827.507511,709.886514 L827.507511,762.853478 Z" id="Combined-Shape" fill="#C2F3FE" fill-rule="nonzero"></path>
                <path d="M1221.5279,1293.815 L1034.54614,1293.815 L1034.54614,1283.47998 L1600.66738,1283.47998 L1600.66738,1293.815 L1516.55794,1293.815 L1516.55794,1406.85426 L1600.66738,1406.85426 L1600.66738,1417.18927 L1512.02897,1417.18927 L1506.20601,1417.18927 L1506.20601,1293.815 L1231.87983,1293.815 L1231.87983,1415.25146 L1222.82189,1415.25146 L1154.88734,1415.25146 L1154.88734,1651.59601 C1287.5195,1651.62129 1432.66221,1651.6398 1590.31545,1651.65152 L1590.31545,1448.19433 L1600.66738,1448.19433 L1600.66738,1651.65228 C1687.67796,1651.65857 1778.47302,1651.6628 1873.05258,1651.66498 L1873.05258,857.806452 L1753.35837,857.806452 L1753.35837,847.471434 L1883.40451,847.471434 L2079.44421,847.471434 L2079.44421,709.886514 L2089.79614,709.886514 L2089.79614,847.471434 L2304.59871,847.471434 L2304.59871,664.024874 L2089.79614,664.024874 L2089.79614,679.5274 L2079.44421,679.5274 L2079.44421,611.703848 L2089.79614,611.703848 L2089.79614,653.689856 L2304.59871,653.689856 L2304.59871,611.057909 L2314.95064,611.057909 L2314.95064,847.471434 L2401.64807,847.471434 L2401.64807,293.90206 L2314.95064,293.90206 L2314.95064,348.80684 L2314.95064,352.682472 L2311.71567,352.682472 L2311.71567,421.797901 L2314.95064,421.797901 L2314.95064,432.132919 L2311.06867,432.132919 L2311.06867,501.248348 L2314.95064,501.248348 L2314.95064,511.583366 L2314.95064,581.344734 L2305.8927,581.344734 L2174.55258,581.344734 L2174.55258,571.009716 L2304.59871,571.009716 L2304.59871,511.583366 L2208.84335,511.583366 L2208.84335,501.248348 L2208.84335,352.682472 L2208.84335,342.347454 L2304.59871,342.347454 L2304.59871,293.90206 L2089.79614,293.90206 L2089.79614,571.009716 L2111.79399,571.009716 L2111.79399,581.344734 L2089.79614,581.344734 L2018.62661,581.344734 L2018.62661,571.009716 L2079.44421,571.009716 L2079.44421,10.3350175 L1794.76609,10.3350175 L1794.76609,275.815779 L1862.37715,275.815779 L1862.37715,282.275165 L1862.70064,282.275165 L1862.70064,571.009716 L1986.92382,571.009716 L1986.92382,581.344734 L1707.42167,581.344734 L1707.42167,571.009716 L1852.34871,571.009716 L1852.34871,286.150797 L1661.48498,286.150797 L1661.48498,571.009716 L1675.07189,571.009716 L1675.07189,581.344734 L1445.38841,581.344734 L1445.38841,571.009716 L1651.13305,571.009716 L1651.13305,286.150797 L1573.49356,286.150797 L1573.49356,275.815779 L1784.41416,275.815779 L1784.41416,10.3350175 L991.844421,10.3350175 L991.844421,168.589973 L862.445279,168.589973 L862.445279,295.839876 L643.76073,295.839876 L643.76073,571.009716 L931.67382,571.009716 L931.67382,709.886514 L921.321888,709.886514 L921.321888,581.344734 L643.76073,581.344734 L643.76073,699.551496 L857.916309,699.551496 L857.916309,709.886514 L559.651288,709.886514 L559.651288,1019.2911 L559.651288,1125.22503 L579.061159,1125.22503 L579.061159,1135.56005 L410.842275,1135.56005 L410.842275,1125.22503 L549.299356,1125.22503 L549.299356,1029.62612 L421.194206,1029.62612 L421.194206,1092.9281 L410.842275,1092.9281 L410.842275,1029.62612 L410.842275,831.58263 L291.001776,716.3459 L107.477117,716.3459 L9.91290449,1547.49084 C36.6278059,1582.50875 58.009584,1608.81706 74.0268638,1626.38624 C82.0716757,1635.2105 88.7314073,1641.79365 93.9582809,1646.10782 C96.452916,1648.16685 98.5814987,1649.67489 100.302197,1650.62484 C100.7094,1650.80374 143.620828,1650.9596 229.036481,1651.09242 L229.036481,1438.50525 L239.388412,1438.50525 L239.388412,1470.15624 L308.616953,1470.15624 L308.616953,1480.49126 L239.388412,1480.49126 L239.388412,1651.1081 C271.711718,1651.15579 309.668799,1651.20043 353.259657,1651.24202 L353.259657,1480.49126 L339.672747,1480.49126 L339.672747,1470.15624 L378.492489,1470.15624 L378.492489,1480.49126 L363.611588,1480.49126 L363.611588,1651.25174 C398.167457,1651.28367 436.124539,1651.31377 477.482833,1651.34202 L477.482833,1480.49126 L409.548283,1480.49126 L409.548283,1470.15624 L487.834764,1470.15624 L487.834764,1474.67781 L487.834764,1651.34901 C621.342478,1651.43801 789.345697,1651.50831 991.844421,1651.55991 L991.844421,1283.47998 L1002.19635,1283.47998 L1002.19635,1651.56252 C1047.90528,1651.57396 1095.35163,1651.58446 1144.53541,1651.59401 L1144.53541,1410.08395 L1144.53541,1404.91644 L1221.5279,1404.91644 L1221.5279,1293.815 Z M2412,850.055188 L2412,857.806452 L1883.40451,857.806452 L1883.40451,1662 L102.872318,1662 C95.2941977,1662 83.9936128,1652.6727 66.3712049,1633.34287 C49.8591907,1615.23103 27.8827538,1588.15663 0.409012753,1552.08877 L98.2675186,706.010882 L295.176335,706.010882 L421.194206,827.187677 L421.194206,1019.2911 L549.299356,1019.2911 L549.299356,709.886514 L549.299356,699.551496 L633.408798,699.551496 L633.408798,581.344734 L633.408798,285.504858 L852.093348,285.504858 L852.093348,158.254955 L981.492489,158.254955 L981.492489,0 L2089.79614,0 L2089.79614,283.567042 L2401.64807,283.567042 L2412,283.567042 L2412,850.055188 Z M1597.4324,857.806452 L1597.4324,881.70618 L1587.08047,881.70618 L1587.08047,857.806452 L1369.68991,857.806452 L1369.68991,990.223863 L1587.08047,990.223863 L1587.08047,913.357171 L1597.4324,913.357171 L1597.4324,1023.81267 L1587.08047,1023.81267 L1587.08047,1000.55888 L1369.68991,1000.55888 L1369.68991,1131.03848 L1587.08047,1131.03848 L1587.08047,1055.46366 L1597.4324,1055.46366 L1597.4324,1164.62728 L1587.08047,1164.62728 L1587.08047,1141.37349 L1369.68991,1141.37349 L1369.68991,1211.7808 L1587.08047,1211.7808 L1587.08047,1195.63234 L1597.4324,1195.63234 L1597.4324,1211.7808 L1597.4324,1222.11582 L1126.41953,1222.11582 L1126.41953,1211.7808 L1126.41953,1084.5309 L1136.77146,1084.5309 L1136.77146,1211.7808 L1359.33798,1211.7808 L1359.33798,1039.3152 L1136.77146,1039.3152 L1136.77146,1052.87991 L1126.41953,1052.87991 L1126.41953,1013.47765 L1136.77146,1013.47765 L1136.77146,1028.98018 L1359.33798,1028.98018 L1359.33798,857.806452 L1136.77146,857.806452 L1136.77146,981.826661 L1126.41953,981.826661 L1126.41953,857.806452 L1020.95923,857.806452 L1020.95923,847.471434 L1691.24678,847.471434 L1691.24678,857.806452 L1597.4324,857.806452 Z M850.799356,847.471434 L861.151288,847.471434 L958.200644,847.471434 L958.200644,857.806452 L861.151288,857.806452 L861.151288,1005.72639 L936.20279,1005.72639 L936.20279,1016.06141 L740.16309,1016.06141 L740.16309,1079.36339 L925.850858,1079.36339 L925.850858,1047.7124 L936.20279,1047.7124 L936.20279,1168.50291 L936.20279,1171.08667 L896.089056,1171.08667 L896.089056,1160.75165 L925.850858,1160.75165 L925.850858,1089.69841 L819.743562,1089.69841 L819.743562,1160.75165 L865.033262,1160.75165 L865.033262,1171.08667 L819.743562,1171.08667 L819.743562,1209.84298 L809.391631,1209.84298 L679.992489,1209.84298 L679.992489,1199.50797 L809.391631,1199.50797 L809.391631,1089.69841 L729.811159,1089.69841 L729.811159,1081.94714 L729.811159,1064.5068 L647.642704,1064.5068 L647.642704,1209.84298 L637.290773,1209.84298 L637.290773,1135.56005 L610.116953,1135.56005 L610.116953,1125.22503 L637.290773,1125.22503 L637.290773,847.471434 L647.642704,847.471434 L850.799356,847.471434 Z M850.799356,857.806452 L647.642704,857.806452 L647.642704,1054.17178 L729.811159,1054.17178 L729.811159,1005.72639 L740.16309,1005.72639 L850.799356,1005.72639 L850.799356,857.806452 Z M2304.59871,501.248348 L2304.59871,432.132919 L2219.19528,432.132919 L2219.19528,501.248348 L2304.59871,501.248348 Z M2305.24571,352.682472 L2219.19528,352.682472 L2219.19528,421.797901 L2305.24571,421.797901 L2305.24571,352.682472 Z M650.230687,1405.56238 L650.230687,1298.98251 L536.359442,1298.98251 L536.359442,1315.77691 L526.007511,1315.77691 L526.007511,1288.64749 L536.359442,1288.64749 L660.582618,1288.64749 L660.582618,1292.52312 L660.582618,1415.8974 L650.230687,1415.8974 L526.007511,1415.8974 L526.007511,1414.60552 L526.007511,1346.78197 L536.359442,1346.78197 L536.359442,1405.56238 L650.230687,1405.56238 Z M960.788627,581.344734 L960.788627,571.009716 L1413.03863,571.009716 L1413.03863,581.344734 L960.788627,581.344734 Z M892.854077,295.839876 L892.854077,285.504858 L1146.47639,285.504858 L1146.47639,295.839876 L892.854077,295.839876 Z" id="Combined-Shape" fill="#000000" fill-rule="nonzero"></path>
                <g id="door" transform="translate(857.269313, 699.551496)" fill="#000000">
                    <path d="M4.1025641,29 L4.1025641,27.5853659 C13.9254551,27.5853659 20.7724714,24.8407284 24.7326784,19.3754745 C28.7577068,13.8207644 30.6780603,7.374901 30.4932714,0.0166582681 L32.0008816,-0.0166582681 C32.1929083,7.62979256 30.1860563,14.3659969 25.9798585,20.1707286 C21.7088393,26.0649165 14.3867194,29 4.1025641,29 Z" id="Path-5" fill-rule="nonzero"></path>
                    <rect id="Rectangle-7" fill-rule="evenodd" x="0" y="0" width="4.1025641" height="29"></rect>
                </g>
                <g id="door" transform="translate(867.944742, 476.702682) rotate(-90.000000) translate(-867.944742, -476.702682) translate(851.769850, 462.169063)" fill="#000000">
                    <path d="M4.1025641,29 L4.1025641,27.5853659 C13.9254551,27.5853659 20.7724714,24.8407284 24.7326784,19.3754745 C28.7577068,13.8207644 30.6780603,7.374901 30.4932714,0.0166582681 L32.0008816,-0.0166582681 C32.1929083,7.62979256 30.1860563,14.3659969 25.9798585,20.1707286 C21.7088393,26.0649165 14.3867194,29 4.1025641,29 Z" id="Path-5" fill-rule="nonzero"></path>
                    <rect id="Rectangle-7" fill-rule="evenodd" x="0" y="0" width="4.1025641" height="29"></rect>
                </g>
                <g id="door" transform="translate(905.793991, 714.085115) scale(-1, 1) translate(-905.793991, -714.085115) translate(889.619099, 699.551496)" fill="#000000">
                    <path d="M4.1025641,29 L4.1025641,27.5853659 C13.9254551,27.5853659 20.7724714,24.8407284 24.7326784,19.3754745 C28.7577068,13.8207644 30.6780603,7.374901 30.4932714,0.0166582681 L32.0008816,-0.0166582681 C32.1929083,7.62979256 30.1860563,14.3659969 25.9798585,20.1707286 C21.7088393,26.0649165 14.3867194,29 4.1025641,29 Z" id="Path-5" fill-rule="nonzero"></path>
                    <rect id="Rectangle-7" fill-rule="evenodd" x="0" y="0" width="4.1025641" height="29"></rect>
                </g>
                <g id="door" transform="translate(867.944742, 444.405752) scale(1, -1) rotate(-90.000000) translate(-867.944742, -444.405752) translate(851.769850, 429.872134)" fill="#000000">
                    <path d="M4.1025641,29 L4.1025641,27.5853659 C13.9254551,27.5853659 20.7724714,24.8407284 24.7326784,19.3754745 C28.7577068,13.8207644 30.6780603,7.374901 30.4932714,0.0166582681 L32.0008816,-0.0166582681 C32.1929083,7.62979256 30.1860563,14.3659969 25.9798585,20.1707286 C21.7088393,26.0649165 14.3867194,29 4.1025641,29 Z" id="Path-5" fill-rule="nonzero"></path>
                    <rect id="Rectangle-7" fill-rule="evenodd" x="0" y="0" width="4.1025641" height="29"></rect>
                </g>
                <g id="door" transform="translate(947.201717, 585.543335) scale(-1, 1) translate(-947.201717, -585.543335) translate(931.026824, 571.009716)" fill="#000000">
                    <path d="M4.1025641,29 L4.1025641,27.5853659 C13.9254551,27.5853659 20.7724714,24.8407284 24.7326784,19.3754745 C28.7577068,13.8207644 30.6780603,7.374901 30.4932714,0.0166582681 L32.0008816,-0.0166582681 C32.1929083,7.62979256 30.1860563,14.3659969 25.9798585,20.1707286 C21.7088393,26.0649165 14.3867194,29 4.1025641,29 Z" id="Path-5" fill-rule="nonzero"></path>
                    <rect id="Rectangle-7" fill-rule="evenodd" x="0" y="0" width="4.1025641" height="29"></rect>
                </g>
                <g id="door" transform="translate(878.620172, 300.038476) scale(-1, 1) translate(-878.620172, -300.038476) translate(862.445279, 285.504858)" fill="#000000">
                    <path d="M4.1025641,29 L4.1025641,27.5853659 C13.9254551,27.5853659 20.7724714,24.8407284 24.7326784,19.3754745 C28.7577068,13.8207644 30.6780603,7.374901 30.4932714,0.0166582681 L32.0008816,-0.0166582681 C32.1929083,7.62979256 30.1860563,14.3659969 25.9798585,20.1707286 C21.7088393,26.0649165 14.3867194,29 4.1025641,29 Z" id="Path-5" fill-rule="nonzero"></path>
                    <rect id="Rectangle-7" fill-rule="evenodd" x="0" y="0" width="4.1025641" height="29"></rect>
                </g>
                <g id="door" transform="translate(1429.213519, 585.543335) scale(-1, 1) translate(-1429.213519, -585.543335) translate(1413.038627, 571.009716)" fill="#000000">
                    <path d="M4.1025641,29 L4.1025641,27.5853659 C13.9254551,27.5853659 20.7724714,24.8407284 24.7326784,19.3754745 C28.7577068,13.8207644 30.6780603,7.374901 30.4932714,0.0166582681 L32.0008816,-0.0166582681 C32.1929083,7.62979256 30.1860563,14.3659969 25.9798585,20.1707286 C21.7088393,26.0649165 14.3867194,29 4.1025641,29 Z" id="Path-5" fill-rule="nonzero"></path>
                    <rect id="Rectangle-7" fill-rule="evenodd" x="0" y="0" width="4.1025641" height="29"></rect>
                </g>
                <g id="door" transform="translate(1691.246781, 585.543335) scale(-1, 1) translate(-1691.246781, -585.543335) translate(1675.071888, 571.009716)" fill="#000000">
                    <path d="M4.1025641,29 L4.1025641,27.5853659 C13.9254551,27.5853659 20.7724714,24.8407284 24.7326784,19.3754745 C28.7577068,13.8207644 30.6780603,7.374901 30.4932714,0.0166582681 L32.0008816,-0.0166582681 C32.1929083,7.62979256 30.1860563,14.3659969 25.9798585,20.1707286 C21.7088393,26.0649165 14.3867194,29 4.1025641,29 Z" id="Path-5" fill-rule="nonzero"></path>
                    <rect id="Rectangle-7" fill-rule="evenodd" x="0" y="0" width="4.1025641" height="29"></rect>
                </g>
                <g id="door" transform="translate(2003.098712, 585.543335) scale(-1, 1) translate(-2003.098712, -585.543335) translate(1986.923820, 571.009716)" fill="#000000">
                    <path d="M4.1025641,29 L4.1025641,27.5853659 C13.9254551,27.5853659 20.7724714,24.8407284 24.7326784,19.3754745 C28.7577068,13.8207644 30.6780603,7.374901 30.4932714,0.0166582681 L32.0008816,-0.0166582681 C32.1929083,7.62979256 30.1860563,14.3659969 25.9798585,20.1707286 C21.7088393,26.0649165 14.3867194,29 4.1025641,29 Z" id="Path-5" fill-rule="nonzero"></path>
                    <rect id="Rectangle-7" fill-rule="evenodd" x="0" y="0" width="4.1025641" height="29"></rect>
                </g>
                <g id="door" transform="translate(1586.109979, 1433.337738) scale(1, -1) rotate(90.000000) translate(-1586.109979, -1433.337738) translate(1569.935086, 1418.804120)" fill="#000000">
                    <path d="M4.1025641,29 L4.1025641,27.5853659 C13.9254551,27.5853659 20.7724714,24.8407284 24.7326784,19.3754745 C28.7577068,13.8207644 30.6780603,7.374901 30.4932714,0.0166582681 L32.0008816,-0.0166582681 C32.1929083,7.62979256 30.1860563,14.3659969 25.9798585,20.1707286 C21.7088393,26.0649165 14.3867194,29 4.1025641,29 Z" id="Path-5" fill-rule="nonzero"></path>
                    <rect id="Rectangle-7" fill-rule="evenodd" x="0" y="0" width="4.1025641" height="29"></rect>
                </g>
                <g id="door" transform="translate(323.497854, 1465.957637) scale(1, -1) translate(-323.497854, -1465.957637) translate(307.322961, 1451.424019)" fill="#000000">
                    <path d="M4.1025641,29 L4.1025641,27.5853659 C13.9254551,27.5853659 20.7724714,24.8407284 24.7326784,19.3754745 C28.7577068,13.8207644 30.6780603,7.374901 30.4932714,0.0166582681 L32.0008816,-0.0166582681 C32.1929083,7.62979256 30.1860563,14.3659969 25.9798585,20.1707286 C21.7088393,26.0649165 14.3867194,29 4.1025641,29 Z" id="Path-5" fill-rule="nonzero"></path>
                    <rect id="Rectangle-7" fill-rule="evenodd" x="0" y="0" width="4.1025641" height="29"></rect>
                </g>
                <g id="door" transform="translate(973.728541, 843.272833) scale(1, -1) translate(-973.728541, -843.272833) translate(957.553648, 828.739215)" fill="#000000">
                    <path d="M4.1025641,29 L4.1025641,27.5853659 C13.9254551,27.5853659 20.7724714,24.8407284 24.7326784,19.3754745 C28.7577068,13.8207644 30.6780603,7.374901 30.4932714,0.0166582681 L32.0008816,-0.0166582681 C32.1929083,7.62979256 30.1860563,14.3659969 25.9798585,20.1707286 C21.7088393,26.0649165 14.3867194,29 4.1025641,29 Z" id="Path-5" fill-rule="nonzero"></path>
                    <rect id="Rectangle-7" fill-rule="evenodd" x="0" y="0" width="4.1025641" height="29"></rect>
                </g>
                <g id="door" transform="translate(1705.480687, 843.272833) scale(1, -1) translate(-1705.480687, -843.272833) translate(1689.305794, 828.739215)" fill="#000000">
                    <path d="M4.1025641,29 L4.1025641,27.5853659 C13.9254551,27.5853659 20.7724714,24.8407284 24.7326784,19.3754745 C28.7577068,13.8207644 30.6780603,7.374901 30.4932714,0.0166582681 L32.0008816,-0.0166582681 C32.1929083,7.62979256 30.1860563,14.3659969 25.9798585,20.1707286 C21.7088393,26.0649165 14.3867194,29 4.1025641,29 Z" id="Path-5" fill-rule="nonzero"></path>
                    <rect id="Rectangle-7" fill-rule="evenodd" x="0" y="0" width="4.1025641" height="29"></rect>
                </g>
                <g id="door" transform="translate(2127.321888, 566.811115) scale(1, -1) translate(-2127.321888, -566.811115) translate(2111.146996, 552.277497)" fill="#000000">
                    <path d="M4.1025641,29 L4.1025641,27.5853659 C13.9254551,27.5853659 20.7724714,24.8407284 24.7326784,19.3754745 C28.7577068,13.8207644 30.6780603,7.374901 30.4932714,0.0166582681 L32.0008816,-0.0166582681 C32.1929083,7.62979256 30.1860563,14.3659969 25.9798585,20.1707286 C21.7088393,26.0649165 14.3867194,29 4.1025641,29 Z" id="Path-5" fill-rule="nonzero"></path>
                    <rect id="Rectangle-7" fill-rule="evenodd" x="0" y="0" width="4.1025641" height="29"></rect>
                </g>
                <g id="door" transform="translate(1006.078326, 843.272833) scale(-1, -1) translate(-1006.078326, -843.272833) translate(989.903433, 828.739215)" fill="#000000">
                    <path d="M4.1025641,29 L4.1025641,27.5853659 C13.9254551,27.5853659 20.7724714,24.8407284 24.7326784,19.3754745 C28.7577068,13.8207644 30.6780603,7.374901 30.4932714,0.0166582681 L32.0008816,-0.0166582681 C32.1929083,7.62979256 30.1860563,14.3659969 25.9798585,20.1707286 C21.7088393,26.0649165 14.3867194,29 4.1025641,29 Z" id="Path-5" fill-rule="nonzero"></path>
                    <rect id="Rectangle-7" fill-rule="evenodd" x="0" y="0" width="4.1025641" height="29"></rect>
                </g>
                <g id="door" transform="translate(1737.830472, 843.272833) scale(-1, -1) translate(-1737.830472, -843.272833) translate(1721.655579, 828.739215)" fill="#000000">
                    <path d="M4.1025641,29 L4.1025641,27.5853659 C13.9254551,27.5853659 20.7724714,24.8407284 24.7326784,19.3754745 C28.7577068,13.8207644 30.6780603,7.374901 30.4932714,0.0166582681 L32.0008816,-0.0166582681 C32.1929083,7.62979256 30.1860563,14.3659969 25.9798585,20.1707286 C21.7088393,26.0649165 14.3867194,29 4.1025641,29 Z" id="Path-5" fill-rule="nonzero"></path>
                    <rect id="Rectangle-7" fill-rule="evenodd" x="0" y="0" width="4.1025641" height="29"></rect>
                </g>
                <g id="door" transform="translate(2159.671674, 566.811115) scale(-1, -1) translate(-2159.671674, -566.811115) translate(2143.496781, 552.277497)" fill="#000000">
                    <path d="M4.1025641,29 L4.1025641,27.5853659 C13.9254551,27.5853659 20.7724714,24.8407284 24.7326784,19.3754745 C28.7577068,13.8207644 30.6780603,7.374901 30.4932714,0.0166582681 L32.0008816,-0.0166582681 C32.1929083,7.62979256 30.1860563,14.3659969 25.9798585,20.1707286 C21.7088393,26.0649165 14.3867194,29 4.1025641,29 Z" id="Path-5" fill-rule="nonzero"></path>
                    <rect id="Rectangle-7" fill-rule="evenodd" x="0" y="0" width="4.1025641" height="29"></rect>
                </g>
                <g id="door" transform="translate(593.942060, 1121.026428) scale(1, -1) translate(-593.942060, -1121.026428) translate(577.767167, 1106.492810)" fill="#000000">
                    <path d="M4.1025641,29 L4.1025641,27.5853659 C13.9254551,27.5853659 20.7724714,24.8407284 24.7326784,19.3754745 C28.7577068,13.8207644 30.6780603,7.374901 30.4932714,0.0166582681 L32.0008816,-0.0166582681 C32.1929083,7.62979256 30.1860563,14.3659969 25.9798585,20.1707286 C21.7088393,26.0649165 14.3867194,29 4.1025641,29 Z" id="Path-5" fill-rule="nonzero"></path>
                    <rect id="Rectangle-7" fill-rule="evenodd" x="0" y="0" width="4.1025641" height="29"></rect>
                </g>
                <g id="door" transform="translate(113.871245, 1430.431014) scale(1, -1) translate(-113.871245, -1430.431014) translate(97.696352, 1415.897396)" fill="#000000">
                    <path d="M4.1025641,29 L4.1025641,27.5853659 C13.9254551,27.5853659 20.7724714,24.8407284 24.7326784,19.3754745 C28.7577068,13.8207644 30.6780603,7.374901 30.4932714,0.0166582681 L32.0008816,-0.0166582681 C32.1929083,7.62979256 30.1860563,14.3659969 25.9798585,20.1707286 C21.7088393,26.0649165 14.3867194,29 4.1025641,29 Z" id="Path-5" fill-rule="nonzero"></path>
                    <rect id="Rectangle-7" fill-rule="evenodd" x="0" y="0" width="4.1025641" height="29"></rect>
                </g>
                <g id="door" transform="translate(1018.371245, 1279.281384) scale(1, -1) translate(-1018.371245, -1279.281384) translate(1002.196352, 1264.747765)" fill="#000000">
                    <path d="M4.1025641,29 L4.1025641,27.5853659 C13.9254551,27.5853659 20.7724714,24.8407284 24.7326784,19.3754745 C28.7577068,13.8207644 30.6780603,7.374901 30.4932714,0.0166582681 L32.0008816,-0.0166582681 C32.1929083,7.62979256 30.1860563,14.3659969 25.9798585,20.1707286 C21.7088393,26.0649165 14.3867194,29 4.1025641,29 Z" id="Path-5" fill-rule="nonzero"></path>
                    <rect id="Rectangle-7" fill-rule="evenodd" x="0" y="0" width="4.1025641" height="29"></rect>
                </g>
                <g id="door" transform="translate(647.642704, 1199.507967)" fill="#000000">
                    <path d="M4.1025641,29 L4.1025641,27.5853659 C13.9254551,27.5853659 20.7724714,24.8407284 24.7326784,19.3754745 C28.7577068,13.8207644 30.6780603,7.374901 30.4932714,0.0166582681 L32.0008816,-0.0166582681 C32.1929083,7.62979256 30.1860563,14.3659969 25.9798585,20.1707286 C21.7088393,26.0649165 14.3867194,29 4.1025641,29 Z" id="Path-5" fill-rule="nonzero"></path>
                    <rect id="Rectangle-7" fill-rule="evenodd" x="0" y="0" width="4.1025641" height="29"></rect>
                </g>
                <g id="door" transform="translate(863.739270, 1160.751652)" fill="#000000">
                    <path d="M4.1025641,29 L4.1025641,27.5853659 C13.9254551,27.5853659 20.7724714,24.8407284 24.7326784,19.3754745 C28.7577068,13.8207644 30.6780603,7.374901 30.4932714,0.0166582681 L32.0008816,-0.0166582681 C32.1929083,7.62979256 30.1860563,14.3659969 25.9798585,20.1707286 C21.7088393,26.0649165 14.3867194,29 4.1025641,29 Z" id="Path-5" fill-rule="nonzero"></path>
                    <rect id="Rectangle-7" fill-rule="evenodd" x="0" y="0" width="4.1025641" height="29"></rect>
                </g>
                <g id="door" transform="translate(393.373391, 1465.957637) scale(1, -1) translate(-393.373391, -1465.957637) translate(377.198498, 1451.424019)" fill="#000000">
                    <path d="M4.1025641,29 L4.1025641,27.5853659 C13.9254551,27.5853659 20.7724714,24.8407284 24.7326784,19.3754745 C28.7577068,13.8207644 30.6780603,7.374901 30.4932714,0.0166582681 L32.0008816,-0.0166582681 C32.1929083,7.62979256 30.1860563,14.3659969 25.9798585,20.1707286 C21.7088393,26.0649165 14.3867194,29 4.1025641,29 Z" id="Path-5" fill-rule="nonzero"></path>
                    <rect id="Rectangle-7" fill-rule="evenodd" x="0" y="0" width="4.1025641" height="29"></rect>
                </g>
                <g id="door" transform="translate(521.802039, 1331.925379) scale(1, -1) rotate(90.000000) translate(-521.802039, -1331.925379) translate(505.627146, 1317.391761)" fill="#000000">
                    <path d="M4.1025641,29 L4.1025641,27.5853659 C13.9254551,27.5853659 20.7724714,24.8407284 24.7326784,19.3754745 C28.7577068,13.8207644 30.6780603,7.374901 30.4932714,0.0166582681 L32.0008816,-0.0166582681 C32.1929083,7.62979256 30.1860563,14.3659969 25.9798585,20.1707286 C21.7088393,26.0649165 14.3867194,29 4.1025641,29 Z" id="Path-5" fill-rule="nonzero"></path>
                    <rect id="Rectangle-7" fill-rule="evenodd" x="0" y="0" width="4.1025641" height="29"></rect>
                </g>
                <g id="door" transform="translate(1122.214056, 1069.028372) scale(1, -1) rotate(90.000000) translate(-1122.214056, -1069.028372) translate(1106.039163, 1054.494753)" fill="#000000">
                    <path d="M4.1025641,29 L4.1025641,27.5853659 C13.9254551,27.5853659 20.7724714,24.8407284 24.7326784,19.3754745 C28.7577068,13.8207644 30.6780603,7.374901 30.4932714,0.0166582681 L32.0008816,-0.0166582681 C32.1929083,7.62979256 30.1860563,14.3659969 25.9798585,20.1707286 C21.7088393,26.0649165 14.3867194,29 4.1025641,29 Z" id="Path-5" fill-rule="nonzero"></path>
                    <rect id="Rectangle-7" fill-rule="evenodd" x="0" y="0" width="4.1025641" height="29"></rect>
                </g>
                <g id="door" transform="translate(1122.214056, 997.975126) scale(1, -1) rotate(90.000000) translate(-1122.214056, -997.975126) translate(1106.039163, 983.441508)" fill="#000000">
                    <path d="M4.1025641,29 L4.1025641,27.5853659 C13.9254551,27.5853659 20.7724714,24.8407284 24.7326784,19.3754745 C28.7577068,13.8207644 30.6780603,7.374901 30.4932714,0.0166582681 L32.0008816,-0.0166582681 C32.1929083,7.62979256 30.1860563,14.3659969 25.9798585,20.1707286 C21.7088393,26.0649165 14.3867194,29 4.1025641,29 Z" id="Path-5" fill-rule="nonzero"></path>
                    <rect id="Rectangle-7" fill-rule="evenodd" x="0" y="0" width="4.1025641" height="29"></rect>
                </g>
                <g id="door" transform="translate(2075.238734, 597.493199) scale(1, -1) rotate(90.000000) translate(-2075.238734, -597.493199) translate(2059.063841, 582.959580)" fill="#000000">
                    <path d="M4.1025641,29 L4.1025641,27.5853659 C13.9254551,27.5853659 20.7724714,24.8407284 24.7326784,19.3754745 C28.7577068,13.8207644 30.6780603,7.374901 30.4932714,0.0166582681 L32.0008816,-0.0166582681 C32.1929083,7.62979256 30.1860563,14.3659969 25.9798585,20.1707286 C21.7088393,26.0649165 14.3867194,29 4.1025641,29 Z" id="Path-5" fill-rule="nonzero"></path>
                    <rect id="Rectangle-7" fill-rule="evenodd" x="0" y="0" width="4.1025641" height="29"></rect>
                </g>
                <g id="door" transform="translate(2075.238734, 695.675865) scale(1, -1) rotate(90.000000) translate(-2075.238734, -695.675865) translate(2059.063841, 681.142246)" fill="#000000">
                    <path d="M4.1025641,29 L4.1025641,27.5853659 C13.9254551,27.5853659 20.7724714,24.8407284 24.7326784,19.3754745 C28.7577068,13.8207644 30.6780603,7.374901 30.4932714,0.0166582681 L32.0008816,-0.0166582681 C32.1929083,7.62979256 30.1860563,14.3659969 25.9798585,20.1707286 C21.7088393,26.0649165 14.3867194,29 4.1025641,29 Z" id="Path-5" fill-rule="nonzero"></path>
                    <rect id="Rectangle-7" fill-rule="evenodd" x="0" y="0" width="4.1025641" height="29"></rect>
                </g>
                <g id="door" transform="translate(2300.393240, 597.493199) scale(1, -1) rotate(90.000000) translate(-2300.393240, -597.493199) translate(2284.218348, 582.959580)" fill="#000000">
                    <path d="M4.1025641,29 L4.1025641,27.5853659 C13.9254551,27.5853659 20.7724714,24.8407284 24.7326784,19.3754745 C28.7577068,13.8207644 30.6780603,7.374901 30.4932714,0.0166582681 L32.0008816,-0.0166582681 C32.1929083,7.62979256 30.1860563,14.3659969 25.9798585,20.1707286 C21.7088393,26.0649165 14.3867194,29 4.1025641,29 Z" id="Path-5" fill-rule="nonzero"></path>
                    <rect id="Rectangle-7" fill-rule="evenodd" x="0" y="0" width="4.1025641" height="29"></rect>
                </g>
                <g id="door" transform="translate(940.408262, 1032.209872) scale(-1, -1) rotate(90.000000) translate(-940.408262, -1032.209872) translate(924.233369, 1017.676253)" fill="#000000">
                    <path d="M4.1025641,29 L4.1025641,27.5853659 C13.9254551,27.5853659 20.7724714,24.8407284 24.7326784,19.3754745 C28.7577068,13.8207644 30.6780603,7.374901 30.4932714,0.0166582681 L32.0008816,-0.0166582681 C32.1929083,7.62979256 30.1860563,14.3659969 25.9798585,20.1707286 C21.7088393,26.0649165 14.3867194,29 4.1025641,29 Z" id="Path-5" fill-rule="nonzero"></path>
                    <rect id="Rectangle-7" fill-rule="evenodd" x="0" y="0" width="4.1025641" height="29"></rect>
                </g>
                <g id="door" transform="translate(835.594957, 779.001943) scale(-1, -1) rotate(90.000000) translate(-835.594957, -779.001943) translate(819.420064, 764.468325)" fill="#000000">
                    <path d="M4.1025641,29 L4.1025641,27.5853659 C13.9254551,27.5853659 20.7724714,24.8407284 24.7326784,19.3754745 C28.7577068,13.8207644 30.6780603,7.374901 30.4932714,0.0166582681 L32.0008816,-0.0166582681 C32.1929083,7.62979256 30.1860563,14.3659969 25.9798585,20.1707286 C21.7088393,26.0649165 14.3867194,29 4.1025641,29 Z" id="Path-5" fill-rule="nonzero"></path>
                    <rect id="Rectangle-7" fill-rule="evenodd" x="0" y="0" width="4.1025641" height="29"></rect>
                </g>
                <g id="door" transform="translate(1601.637876, 897.854644) scale(-1, -1) rotate(90.000000) translate(-1601.637876, -897.854644) translate(1585.462983, 883.321026)" fill="#000000">
                    <path d="M4.1025641,29 L4.1025641,27.5853659 C13.9254551,27.5853659 20.7724714,24.8407284 24.7326784,19.3754745 C28.7577068,13.8207644 30.6780603,7.374901 30.4932714,0.0166582681 L32.0008816,-0.0166582681 C32.1929083,7.62979256 30.1860563,14.3659969 25.9798585,20.1707286 C21.7088393,26.0649165 14.3867194,29 4.1025641,29 Z" id="Path-5" fill-rule="nonzero"></path>
                    <rect id="Rectangle-7" fill-rule="evenodd" x="0" y="0" width="4.1025641" height="29"></rect>
                </g>
                <g id="door" transform="translate(1601.637876, 1039.961135) scale(-1, -1) rotate(90.000000) translate(-1601.637876, -1039.961135) translate(1585.462983, 1025.427517)" fill="#000000">
                    <path d="M4.1025641,29 L4.1025641,27.5853659 C13.9254551,27.5853659 20.7724714,24.8407284 24.7326784,19.3754745 C28.7577068,13.8207644 30.6780603,7.374901 30.4932714,0.0166582681 L32.0008816,-0.0166582681 C32.1929083,7.62979256 30.1860563,14.3659969 25.9798585,20.1707286 C21.7088393,26.0649165 14.3867194,29 4.1025641,29 Z" id="Path-5" fill-rule="nonzero"></path>
                    <rect id="Rectangle-7" fill-rule="evenodd" x="0" y="0" width="4.1025641" height="29"></rect>
                </g>
                <g id="door" transform="translate(1601.637876, 1180.775748) scale(-1, -1) rotate(90.000000) translate(-1601.637876, -1180.775748) translate(1585.462983, 1166.242130)" fill="#000000">
                    <path d="M4.1025641,29 L4.1025641,27.5853659 C13.9254551,27.5853659 20.7724714,24.8407284 24.7326784,19.3754745 C28.7577068,13.8207644 30.6780603,7.374901 30.4932714,0.0166582681 L32.0008816,-0.0166582681 C32.1929083,7.62979256 30.1860563,14.3659969 25.9798585,20.1707286 C21.7088393,26.0649165 14.3867194,29 4.1025641,29 Z" id="Path-5" fill-rule="nonzero"></path>
                    <rect id="Rectangle-7" fill-rule="evenodd" x="0" y="0" width="4.1025641" height="29"></rect>
                </g>
                <g id="door" transform="translate(406.636803, 1109.076564) scale(1, -1) rotate(90.000000) translate(-406.636803, -1109.076564) translate(390.461910, 1094.542946)" fill="#000000">
                    <path d="M4.1025641,29 L4.1025641,27.5853659 C13.9254551,27.5853659 20.7724714,24.8407284 24.7326784,19.3754745 C28.7577068,13.8207644 30.6780603,7.374901 30.4932714,0.0166582681 L32.0008816,-0.0166582681 C32.1929083,7.62979256 30.1860563,14.3659969 25.9798585,20.1707286 C21.7088393,26.0649165 14.3867194,29 4.1025641,29 Z" id="Path-5" fill-rule="nonzero"></path>
                    <rect id="Rectangle-7" fill-rule="evenodd" x="0" y="0" width="4.1025641" height="29"></rect>
                </g>
            </g>
            <g id="Group-3" transform="translate(1446.000000, 241.000000)">
                <mask id="mask-2" fill="white">
                    <use xlink:href="#path-1"></use>
                </mask>
                <use id="Combined-Shape" fill="#000000" xlink:href="#path-1"></use>
            </g>
            <g id="Group-3-Copy-2" transform="translate(755.500000, 1394.500000)">
                <mask id="mask-4" fill="white">
                    <use xlink:href="#path-3"></use>
                </mask>
                <use id="Combined-Shape" fill="#000000" xlink:href="#path-3"></use>
            </g>
            <g id="Group-3-Copy" transform="translate(1330.000000, 271.500000)">
                <mask id="mask-6" fill="white">
                    <use xlink:href="#path-5"></use>
                </mask>
                <use id="Combined-Shape" fill="#000000" xlink:href="#path-5"></use>
            </g>
            <g id="Group-3-Copy-7" transform="translate(214.500000, 1388.000000)">
                <mask id="mask-8" fill="white">
                    <use xlink:href="#path-7"></use>
                </mask>
                <use id="Combined-Shape" fill="#000000" xlink:href="#path-7"></use>
            </g>
            <g id="Group-3-Copy-8" transform="translate(214.500000, 1127.500000)">
                <mask id="mask-10" fill="white">
                    <use xlink:href="#path-9"></use>
                </mask>
                <use id="Combined-Shape" fill="#000000" xlink:href="#path-9"></use>
            </g>
            <g id="Group-3-Copy-9" transform="translate(214.500000, 830.500000)">
                <mask id="mask-12" fill="white">
                    <use xlink:href="#path-11"></use>
                </mask>
                <use id="Combined-Shape" fill="#000000" xlink:href="#path-11"></use>
            </g>
        </g>
    </g>
</svg>