<?xml version="1.0" encoding="UTF-8"?>
<svg width="932px" height="489px" viewBox="0 0 932 489" version="1.1" xmlns="http://www.w3.org/2000/svg" xmlns:xlink="http://www.w3.org/1999/xlink">
    <!-- Generator: Sketch 51.1 (57501) - http://www.bohemiancoding.com/sketch -->
    <title>Group 2 Copy 3</title>
    <desc>Created with Sketch.</desc>
    <defs>
        <path d="M4.99928627,11.9097222 L-4.4408921e-16,6.91043595 L0,2.93329267 L8.97642955,11.9097222 L4.99928627,11.9097222 Z M3.20562779,11.9097222 L0,11.9097222 L0,8.70409444 L3.20562779,11.9097222 Z M31.5,9.55642711 L22.2482762,0.304703283 L26.2254195,0.304703283 L31.5,5.57928383 L31.5,9.55642711 Z M31.5,11.3500856 L31.5,11.9097222 L28.0824933,11.9097222 L16.4774744,0.304703283 L20.4546177,0.304703283 L31.5,11.3500856 Z M31.5,3.78562534 L28.0190779,0.304703283 L31.5,0.304703283 L31.5,3.78562534 Z M26.2888349,11.9097222 L22.3116916,11.9097222 L10.7066726,0.304703283 L14.6838159,0.304703283 L26.2888349,11.9097222 Z M20.5180331,11.9097222 L16.5408898,11.9097222 L4.93587087,0.304703283 L8.91301415,0.304703283 L20.5180331,11.9097222 Z M14.7472313,11.9097222 L10.770088,11.9097222 L0,1.13963418 L0,0.304703283 L3.14221238,0.304703283 L14.7472313,11.9097222 Z" id="path-1"></path>
        <path d="M0.336929563,8.64442789 L0.336929563,4.42910841 L14.2476438,18.3398227 L14.2476438,20.5 L12.1925017,20.5 L0.336929563,8.64442789 Z M0.336929563,10.5455019 L10.2914277,20.5 L6.07610823,20.5 L0.336929563,14.7608213 L0.336929563,10.5455019 Z M8.14060804,8.8817842e-16 L14.2476438,6.10703581 L14.2476438,10.3223553 L3.92528856,1.77635684e-15 L8.14060804,0 Z M10.041682,0 L14.2476438,0 L14.2476438,4.20596184 L10.041682,-1.77635684e-15 Z M0.336929563,2.52803444 L0.336929563,0 L2.02421459,0 L14.2476438,12.2234293 L14.2476438,16.4387487 L0.336929563,2.52803444 Z M0.336929563,16.6618953 L4.17503427,20.5 L0.336929563,20.5 L0.336929563,16.6618953 Z" id="path-3"></path>
        <path d="M0.336929563,8.64442789 L0.336929563,4.42910841 L14.2476438,18.3398227 L14.2476438,20.5 L12.1925017,20.5 L0.336929563,8.64442789 Z M0.336929563,10.5455019 L10.2914277,20.5 L6.07610823,20.5 L0.336929563,14.7608213 L0.336929563,10.5455019 Z M8.14060804,8.8817842e-16 L14.2476438,6.10703581 L14.2476438,10.3223553 L3.92528856,1.77635684e-15 L8.14060804,0 Z M10.041682,0 L14.2476438,0 L14.2476438,4.20596184 L10.041682,-1.77635684e-15 Z M0.336929563,2.52803444 L0.336929563,0 L2.02421459,0 L14.2476438,12.2234293 L14.2476438,16.4387487 L0.336929563,2.52803444 Z M0.336929563,16.6618953 L4.17503427,20.5 L0.336929563,20.5 L0.336929563,16.6618953 Z" id="path-5"></path>
        <path d="M0.336929563,8.64442789 L0.336929563,4.42910841 L14.2476438,18.3398227 L14.2476438,20.5 L12.1925017,20.5 L0.336929563,8.64442789 Z M0.336929563,10.5455019 L10.2914277,20.5 L6.07610823,20.5 L0.336929563,14.7608213 L0.336929563,10.5455019 Z M8.14060804,8.8817842e-16 L14.2476438,6.10703581 L14.2476438,10.3223553 L3.92528856,1.77635684e-15 L8.14060804,0 Z M10.041682,0 L14.2476438,0 L14.2476438,4.20596184 L10.041682,-1.77635684e-15 Z M0.336929563,2.52803444 L0.336929563,0 L2.02421459,0 L14.2476438,12.2234293 L14.2476438,16.4387487 L0.336929563,2.52803444 Z M0.336929563,16.6618953 L4.17503427,20.5 L0.336929563,20.5 L0.336929563,16.6618953 Z" id="path-7"></path>
        <path d="M0.336929563,8.64442789 L0.336929563,4.42910841 L14.2476438,18.3398227 L14.2476438,20.5 L12.1925017,20.5 L0.336929563,8.64442789 Z M0.336929563,10.5455019 L10.2914277,20.5 L6.07610823,20.5 L0.336929563,14.7608213 L0.336929563,10.5455019 Z M8.14060804,8.8817842e-16 L14.2476438,6.10703581 L14.2476438,10.3223553 L3.92528856,1.77635684e-15 L8.14060804,0 Z M10.041682,0 L14.2476438,0 L14.2476438,4.20596184 L10.041682,-1.77635684e-15 Z M0.336929563,2.52803444 L0.336929563,0 L2.02421459,0 L14.2476438,12.2234293 L14.2476438,16.4387487 L0.336929563,2.52803444 Z M0.336929563,16.6618953 L4.17503427,20.5 L0.336929563,20.5 L0.336929563,16.6618953 Z" id="path-9"></path>
    </defs>
    <g id="floor-plans" stroke="none" stroke-width="1" fill="none" fill-rule="evenodd">
        <g id="Group-2-Copy-3">
            <g id="Group">
                <path d="M737.415091,120.233067 L736.448698,119.969799 L736.972741,119.952784 L737.415091,120.233067 Z M312.250546,118.955079 L312.254511,117.265381 L457.518896,117.603322 L457.510966,120.982718 L312.250546,120.644787 L312.250546,120.982723 L308.856519,120.982723 L308.856519,20.276434 L312.250546,20.276434 L312.250546,118.955079 Z M844.773489,105.437457 L926.908958,105.437457 L926.908958,108.816862 L847.488711,108.816862 L847.488711,147.004147 L844.094683,147.004147 L844.094683,105.437457 L844.773489,105.437457 Z M845.452294,163.901175 L927.587764,163.901175 L927.587764,167.280581 L847.488711,167.280581 L847.488711,228.447823 L844.094683,228.447823 L844.094683,163.901175 L845.452294,163.901175 Z M767.673752,118.955977 L767.784368,122.333588 L736.035271,122.350602 L716.135871,110.755725 L716.483288,29.4645458 L735.619098,17.8208196 L737.388914,20.704405 L719.869225,31.3647562 L719.537836,108.905643 L736.972741,118.938962 L767.673752,118.955977 Z M607.530954,346.05114 L607.530954,342.671735 L696.454479,342.671735 L696.454479,346.05114 L607.530954,346.05114 Z M619.410051,20.276434 L622.804079,20.276434 L622.804079,172.68763 L619.410051,172.68763 L619.410051,20.276434 Z M844.094683,245.344851 L847.488711,245.344851 L847.488711,262.57982 L844.094683,262.57982 L844.094683,245.344851 Z M825.427531,26.0733484 L825.427531,5.40704907 L828.821559,5.40704907 L828.821559,24.6177366 L847.488711,42.190646 L847.488711,88.5404285 L844.094683,88.5404285 L844.094683,43.6462579 L825.427531,26.0733484 Z" id="Combined-Shape" fill="#C2F3FE" fill-rule="nonzero"></path>
                <path d="M457.514931,378.155494 L313.268755,378.155494 L313.268755,410.392062 L33.2820247,410.392062 L33.2820247,378.409421 L0,378.409421 L0,15.4133211 L30.6155619,15.4133211 L46.0955733,0 L121.100991,0 L136.581003,15.4133211 L182.299489,15.4133211 L197.3925,0 L271.644103,0 L287.124114,15.4133211 L332.4556,15.4133211 L347.548612,0 L421.841208,0 L436.547219,15.4133211 L482.611712,15.4133211 L497.704723,0 L573.117327,0 L588.597338,15.4133211 L633.175009,15.4133211 L648.655021,0 L723.253853,0 L739.120864,15.4133211 L783.756714,15.4133211 L800.010726,0 L874.223736,0 L889.316747,15.4133211 L914.881119,15.4133211 L914.881119,41.6760754 L931.909132,59.0160616 L931.909132,111.538978 L914.881119,124.640301 L914.881119,144.890571 L931.909132,161.074559 L931.909132,234.308801 L914.881119,250.107455 L914.881119,381.851098 L931.909132,397.649753 L931.909132,470.058573 L913.308491,489 L604.494449,489 L604.494449,415.666897 L604.476329,415.666897 L604.476329,410.392062 L462.945375,410.392062 L462.945375,410.597789 L457.514931,410.597789 L457.514931,378.155494 Z M457.514931,372.748445 L457.514931,258.186593 L437.82957,258.186593 L437.82957,252.779544 L457.514931,252.779544 L457.514931,235.206634 L457.514931,229.799585 L476.860889,229.799585 L476.860889,218.647547 L482.291333,218.647547 L482.291333,229.799585 L515.892207,229.799585 L515.892207,235.206634 L462.945375,235.206634 L462.945375,306.512094 L532.013838,306.512094 L532.013838,229.799585 L537.444283,229.799585 L537.444283,306.512094 L606.682447,306.512094 L606.682447,235.206634 L552.208303,235.206634 L552.208303,229.799585 L625.858704,229.799585 L625.858704,235.206634 L612.112891,235.206634 L612.112891,306.512094 L664.380918,306.512094 L664.380918,235.206634 L642.828842,235.206634 L642.828842,229.799585 L716.13984,229.799585 L716.13984,235.206634 L716.13984,289.615066 L710.709395,289.615066 L710.709395,235.206634 L669.811362,235.206634 L669.811362,306.512094 L716.13984,306.512094 L716.13984,311.919143 L462.945375,311.919143 L462.945375,404.985013 L604.476329,404.985013 L604.476329,328.816171 L609.906773,328.816171 L609.906773,404.985013 L609.924893,404.985013 L609.924893,483.592951 L713.424618,483.592951 L713.424618,341.319972 L718.855062,341.319972 L718.855062,483.592951 L911.023303,483.592951 L926.478688,467.854405 L926.478688,400.002003 L909.450675,384.203349 L909.450675,337.940567 L757.546977,337.940567 L757.546977,332.533518 L757.546977,316.988252 L762.977422,316.988252 L762.977422,332.533518 L909.450675,332.533518 L909.450675,267.986869 L762.977422,267.986869 L762.977422,283.532135 L757.546977,283.532135 L757.546977,267.986869 L757.546977,262.57982 L909.450675,262.57982 L909.450675,247.755205 L926.478688,231.95655 L926.478688,163.388238 L909.450675,147.204251 L909.450675,121.985224 L926.478688,108.883901 L926.478688,61.22023 L909.450675,43.8802437 L909.450675,20.8203702 L887.027012,20.8203702 L871.934001,5.40704907 L802.182904,5.40704907 L785.928892,20.8203702 L736.910672,20.8203702 L721.04366,5.40704907 L650.904384,5.40704907 L635.424373,20.8203702 L586.347974,20.8203702 L570.867963,5.40704907 L499.994458,5.40704907 L484.901447,20.8203702 L434.215867,20.8203702 L419.509857,5.40704907 L349.838346,5.40704907 L334.745335,20.8203702 L284.874751,20.8203702 L269.394739,5.40704907 L199.682235,5.40704907 L184.589224,20.8203702 L134.331639,20.8203702 L118.851627,5.40704907 L48.344937,5.40704907 L32.8649255,20.8203702 L5.43044428,20.8203702 L5.43044428,105.268487 L68.8987618,105.268487 L68.8987618,110.675536 L68.8987618,121.996545 L159.519301,121.996545 L159.519301,127.403594 L159.519301,222.364893 L154.088857,222.364893 L154.088857,127.403594 L68.8987618,127.403594 L68.8987618,239.261921 L159.179898,239.261921 L159.179898,244.66897 L63.4683176,244.66897 L63.4683176,244.33103 L63.4683176,110.675536 L5.43044428,110.675536 L5.43044428,280.15273 L63.4683176,280.15273 L63.4683176,261.228058 L68.8987618,261.228058 L68.8987618,285.559779 L5.43044428,285.559779 L5.43044428,373.002372 L38.712469,373.002372 L38.712469,404.985013 L257.946103,404.985013 L257.946103,309.553559 L257.946103,304.14651 L278.989075,304.14651 L278.989075,309.553559 L263.376548,309.553559 L263.376548,404.985013 L307.83831,404.985013 L307.83831,309.553559 L294.941005,309.553559 L294.941005,304.14651 L307.83831,304.14651 L307.83831,213.240498 L313.268755,213.240498 L313.268755,254.131306 L349.415149,254.131306 L349.415149,252.441603 L354.845594,252.441603 L354.845594,254.131306 L391.331391,254.131306 L391.331391,252.779544 L396.761835,252.779544 L405.496905,252.779544 L405.496905,258.186593 L396.761835,258.186593 L396.761835,309.553559 L392.689002,309.553559 L313.268755,309.553559 L313.268755,372.748445 L457.514931,372.748445 Z M313.268755,257.510712 L313.268755,304.14651 L349.415149,304.14651 L349.415149,257.510712 L313.268755,257.510712 Z M354.845594,257.510712 L354.845594,304.14651 L391.331391,304.14651 L391.331391,257.510712 L354.845594,257.510712 Z M307.83831,116.251555 L313.268755,116.251555 L313.268755,196.343469 L307.83831,196.343469 L307.83831,116.251555 Z M476.860889,191.612301 L454.799709,191.612301 L454.799709,116.589496 L460.230153,116.589496 L460.230153,186.205252 L482.291333,186.205252 L482.291333,202.088459 L476.860889,202.088459 L476.860889,191.612301 Z" id="Combined-Shape" fill="#000000" fill-rule="nonzero"></path>
                <g id="door" transform="translate(71.104880, 253.117484) scale(-1, -1) rotate(90.000000) translate(-71.104880, -253.117484) translate(62.619811, 245.513822)" fill="#000000">
                    <path d="M2.17948718,15 L2.17948718,14.2682927 C7.39789801,14.2682927 11.0353754,12.8486526 13.1392354,10.0217972 C15.2775317,7.14867122 16.2977195,3.81460396 16.1995505,0.00861634555 L17.0004684,-0.00861634555 C17.1024825,3.94644443 16.0363424,7.43068805 13.8017998,10.4331355 C11.5328209,13.4818534 7.64294467,15 2.17948718,15 Z" id="Path-5" fill-rule="nonzero"></path>
                    <rect id="Rectangle-7" fill-rule="evenodd" x="0" y="0" width="2.17948718" height="15"></rect>
                </g>
                <g id="door" transform="translate(161.725419, 230.813407) scale(-1, -1) rotate(90.000000) translate(-161.725419, -230.813407) translate(153.240350, 223.209744)" fill="#000000">
                    <path d="M2.17948718,15 L2.17948718,14.2682927 C7.39789801,14.2682927 11.0353754,12.8486526 13.1392354,10.0217972 C15.2775317,7.14867122 16.2977195,3.81460396 16.1995505,0.00861634555 L17.0004684,-0.00861634555 C17.1024825,3.94644443 16.0363424,7.43068805 13.8017998,10.4331355 C11.5328209,13.4818534 7.64294467,15 2.17948718,15 Z" id="Path-5" fill-rule="nonzero"></path>
                    <rect id="Rectangle-7" fill-rule="evenodd" x="0" y="0" width="2.17948718" height="15"></rect>
                </g>
                <g id="door" transform="translate(612.112891, 320.367657) scale(-1, -1) rotate(90.000000) translate(-612.112891, -320.367657) translate(603.627822, 312.763994)" fill="#000000">
                    <path d="M2.17948718,15 L2.17948718,14.2682927 C7.39789801,14.2682927 11.0353754,12.8486526 13.1392354,10.0217972 C15.2775317,7.14867122 16.2977195,3.81460396 16.1995505,0.00861634555 L17.0004684,-0.00861634555 C17.1024825,3.94644443 16.0363424,7.43068805 13.8017998,10.4331355 C11.5328209,13.4818534 7.64294467,15 2.17948718,15 Z" id="Path-5" fill-rule="nonzero"></path>
                    <rect id="Rectangle-7" fill-rule="evenodd" x="0" y="0" width="2.17948718" height="15"></rect>
                </g>
                <g id="door" transform="translate(315.474873, 204.791983) scale(-1, -1) rotate(90.000000) translate(-315.474873, -204.791983) translate(306.989803, 197.188321)" fill="#000000">
                    <path d="M2.17948718,15 L2.17948718,14.2682927 C7.39789801,14.2682927 11.0353754,12.8486526 13.1392354,10.0217972 C15.2775317,7.14867122 16.2977195,3.81460396 16.1995505,0.00861634555 L17.0004684,-0.00861634555 C17.1024825,3.94644443 16.0363424,7.43068805 13.8017998,10.4331355 C11.5328209,13.4818534 7.64294467,15 2.17948718,15 Z" id="Path-5" fill-rule="nonzero"></path>
                    <rect id="Rectangle-7" fill-rule="evenodd" x="0" y="0" width="2.17948718" height="15"></rect>
                </g>
                <g id="door" transform="translate(718.345958, 298.063580) scale(-1, -1) rotate(90.000000) translate(-718.345958, -298.063580) translate(709.860889, 290.459917)" fill="#000000">
                    <path d="M2.17948718,15 L2.17948718,14.2682927 C7.39789801,14.2682927 11.0353754,12.8486526 13.1392354,10.0217972 C15.2775317,7.14867122 16.2977195,3.81460396 16.1995505,0.00861634555 L17.0004684,-0.00861634555 C17.1024825,3.94644443 16.0363424,7.43068805 13.8017998,10.4331355 C11.5328209,13.4818534 7.64294467,15 2.17948718,15 Z" id="Path-5" fill-rule="nonzero"></path>
                    <rect id="Rectangle-7" fill-rule="evenodd" x="0" y="0" width="2.17948718" height="15"></rect>
                </g>
                <g id="door" transform="translate(484.497451, 210.536973) scale(-1, -1) rotate(90.000000) translate(-484.497451, -210.536973) translate(476.012382, 202.933310)" fill="#000000">
                    <path d="M2.17948718,15 L2.17948718,14.2682927 C7.39789801,14.2682927 11.0353754,12.8486526 13.1392354,10.0217972 C15.2775317,7.14867122 16.2977195,3.81460396 16.1995505,0.00861634555 L17.0004684,-0.00861634555 C17.1024825,3.94644443 16.0363424,7.43068805 13.8017998,10.4331355 C11.5328209,13.4818534 7.64294467,15 2.17948718,15 Z" id="Path-5" fill-rule="nonzero"></path>
                    <rect id="Rectangle-7" fill-rule="evenodd" x="0" y="0" width="2.17948718" height="15"></rect>
                </g>
                <g id="door" transform="translate(765.183540, 308.877678) scale(-1, -1) rotate(90.000000) translate(-765.183540, -308.877678) translate(756.698471, 301.274015)" fill="#000000">
                    <path d="M2.17948718,15 L2.17948718,14.2682927 C7.39789801,14.2682927 11.0353754,12.8486526 13.1392354,10.0217972 C15.2775317,7.14867122 16.2977195,3.81460396 16.1995505,0.00861634555 L17.0004684,-0.00861634555 C17.1024825,3.94644443 16.0363424,7.43068805 13.8017998,10.4331355 C11.5328209,13.4818534 7.64294467,15 2.17948718,15 Z" id="Path-5" fill-rule="nonzero"></path>
                    <rect id="Rectangle-7" fill-rule="evenodd" x="0" y="0" width="2.17948718" height="15"></rect>
                </g>
                <g id="door" transform="translate(765.183540, 291.980650) scale(-1, 1) rotate(90.000000) translate(-765.183540, -291.980650) translate(756.698471, 284.376987)" fill="#000000">
                    <path d="M2.17948718,15 L2.17948718,14.2682927 C7.39789801,14.2682927 11.0353754,12.8486526 13.1392354,10.0217972 C15.2775317,7.14867122 16.2977195,3.81460396 16.1995505,0.00861634555 L17.0004684,-0.00861634555 C17.1024825,3.94644443 16.0363424,7.43068805 13.8017998,10.4331355 C11.5328209,13.4818534 7.64294467,15 2.17948718,15 Z" id="Path-5" fill-rule="nonzero"></path>
                    <rect id="Rectangle-7" fill-rule="evenodd" x="0" y="0" width="2.17948718" height="15"></rect>
                </g>
                <g id="door" transform="translate(839.852149, 236.896337) rotate(90.000000) translate(-839.852149, -236.896337) translate(831.367079, 229.292674)" fill="#000000">
                    <path d="M2.17948718,15 L2.17948718,14.2682927 C7.39789801,14.2682927 11.0353754,12.8486526 13.1392354,10.0217972 C15.2775317,7.14867122 16.2977195,3.81460396 16.1995505,0.00861634555 L17.0004684,-0.00861634555 C17.1024825,3.94644443 16.0363424,7.43068805 13.8017998,10.4331355 C11.5328209,13.4818534 7.64294467,15 2.17948718,15 Z" id="Path-5" fill-rule="nonzero"></path>
                    <rect id="Rectangle-7" fill-rule="evenodd" x="0" y="0" width="2.17948718" height="15"></rect>
                </g>
                <g id="door" transform="translate(839.852149, 155.452661) rotate(90.000000) translate(-839.852149, -155.452661) translate(831.367079, 147.848998)" fill="#000000">
                    <path d="M2.17948718,15 L2.17948718,14.2682927 C7.39789801,14.2682927 11.0353754,12.8486526 13.1392354,10.0217972 C15.2775317,7.14867122 16.2977195,3.81460396 16.1995505,0.00861634555 L17.0004684,-0.00861634555 C17.1024825,3.94644443 16.0363424,7.43068805 13.8017998,10.4331355 C11.5328209,13.4818534 7.64294467,15 2.17948718,15 Z" id="Path-5" fill-rule="nonzero"></path>
                    <rect id="Rectangle-7" fill-rule="evenodd" x="0" y="0" width="2.17948718" height="15"></rect>
                </g>
                <g id="door" transform="translate(839.852149, 96.651002) rotate(90.000000) translate(-839.852149, -96.651002) translate(831.367079, 89.047339)" fill="#000000">
                    <path d="M2.17948718,15 L2.17948718,14.2682927 C7.39789801,14.2682927 11.0353754,12.8486526 13.1392354,10.0217972 C15.2775317,7.14867122 16.2977195,3.81460396 16.1995505,0.00861634555 L17.0004684,-0.00861634555 C17.1024825,3.94644443 16.0363424,7.43068805 13.8017998,10.4331355 C11.5328209,13.4818534 7.64294467,15 2.17948718,15 Z" id="Path-5" fill-rule="nonzero"></path>
                    <rect id="Rectangle-7" fill-rule="evenodd" x="0" y="0" width="2.17948718" height="15"></rect>
                </g>
                <g id="door" transform="translate(413.731974, 250.582930) scale(1, -1) translate(-413.731974, -250.582930) translate(405.246905, 242.979267)" fill="#000000">
                    <path d="M2.17948718,15 L2.17948718,14.2682927 C7.39789801,14.2682927 11.0353754,12.8486526 13.1392354,10.0217972 C15.2775317,7.14867122 16.2977195,3.81460396 16.1995505,0.00861634555 L17.0004684,-0.00861634555 C17.1024825,3.94644443 16.0363424,7.43068805 13.8017998,10.4331355 C11.5328209,13.4818534 7.64294467,15 2.17948718,15 Z" id="Path-5" fill-rule="nonzero"></path>
                    <rect id="Rectangle-7" fill-rule="evenodd" x="0" y="0" width="2.17948718" height="15"></rect>
                </g>
                <g id="door" transform="translate(430.702112, 250.582930) scale(-1, -1) translate(-430.702112, -250.582930) translate(422.217043, 242.979267)" fill="#000000">
                    <path d="M2.17948718,15 L2.17948718,14.2682927 C7.39789801,14.2682927 11.0353754,12.8486526 13.1392354,10.0217972 C15.2775317,7.14867122 16.2977195,3.81460396 16.1995505,0.00861634555 L17.0004684,-0.00861634555 C17.1024825,3.94644443 16.0363424,7.43068805 13.8017998,10.4331355 C11.5328209,13.4818534 7.64294467,15 2.17948718,15 Z" id="Path-5" fill-rule="nonzero"></path>
                    <rect id="Rectangle-7" fill-rule="evenodd" x="0" y="0" width="2.17948718" height="15"></rect>
                </g>
                <g id="door" transform="translate(704.939548, 338.447478) scale(-1, -1) translate(-704.939548, -338.447478) translate(696.454479, 330.843815)" fill="#000000">
                    <path d="M2.17948718,15 L2.17948718,14.2682927 C7.39789801,14.2682927 11.0353754,12.8486526 13.1392354,10.0217972 C15.2775317,7.14867122 16.2977195,3.81460396 16.1995505,0.00861634555 L17.0004684,-0.00861634555 C17.1024825,3.94644443 16.0363424,7.43068805 13.8017998,10.4331355 C11.5328209,13.4818534 7.64294467,15 2.17948718,15 Z" id="Path-5" fill-rule="nonzero"></path>
                    <rect id="Rectangle-7" fill-rule="evenodd" x="0" y="0" width="2.17948718" height="15"></rect>
                </g>
                <g id="door" transform="translate(287.134741, 301.949896) scale(-1, -1) translate(-287.134741, -301.949896) translate(278.649672, 294.346234)" fill="#000000">
                    <path d="M2.17948718,15 L2.17948718,14.2682927 C7.39789801,14.2682927 11.0353754,12.8486526 13.1392354,10.0217972 C15.2775317,7.14867122 16.2977195,3.81460396 16.1995505,0.00861634555 L17.0004684,-0.00861634555 C17.1024825,3.94644443 16.0363424,7.43068805 13.8017998,10.4331355 C11.5328209,13.4818534 7.64294467,15 2.17948718,15 Z" id="Path-5" fill-rule="nonzero"></path>
                    <rect id="Rectangle-7" fill-rule="evenodd" x="0" y="0" width="2.17948718" height="15"></rect>
                </g>
                <g id="door" transform="translate(515.213401, 229.799585)" fill="#000000">
                    <path d="M2.17948718,15 L2.17948718,14.2682927 C7.39789801,14.2682927 11.0353754,12.8486526 13.1392354,10.0217972 C15.2775317,7.14867122 16.2977195,3.81460396 16.1995505,0.00861634555 L17.0004684,-0.00861634555 C17.1024825,3.94644443 16.0363424,7.43068805 13.8017998,10.4331355 C11.5328209,13.4818534 7.64294467,15 2.17948718,15 Z" id="Path-5" fill-rule="nonzero"></path>
                    <rect id="Rectangle-7" fill-rule="evenodd" x="0" y="0" width="2.17948718" height="15"></rect>
                </g>
                <g id="door" transform="translate(545.759650, 237.403248) scale(-1, 1) translate(-545.759650, -237.403248) translate(537.274581, 229.799585)" fill="#000000">
                    <path d="M2.17948718,15 L2.17948718,14.2682927 C7.39789801,14.2682927 11.0353754,12.8486526 13.1392354,10.0217972 C15.2775317,7.14867122 16.2977195,3.81460396 16.1995505,0.00861634555 L17.0004684,-0.00861634555 C17.1024825,3.94644443 16.0363424,7.43068805 13.8017998,10.4331355 C11.5328209,13.4818534 7.64294467,15 2.17948718,15 Z" id="Path-5" fill-rule="nonzero"></path>
                    <rect id="Rectangle-7" fill-rule="evenodd" x="0" y="0" width="2.17948718" height="15"></rect>
                </g>
                <g id="door" transform="translate(634.343773, 237.403248) scale(-1, 1) translate(-634.343773, -237.403248) translate(625.858704, 229.799585)" fill="#000000">
                    <path d="M2.17948718,15 L2.17948718,14.2682927 C7.39789801,14.2682927 11.0353754,12.8486526 13.1392354,10.0217972 C15.2775317,7.14867122 16.2977195,3.81460396 16.1995505,0.00861634555 L17.0004684,-0.00861634555 C17.1024825,3.94644443 16.0363424,7.43068805 13.8017998,10.4331355 C11.5328209,13.4818534 7.64294467,15 2.17948718,15 Z" id="Path-5" fill-rule="nonzero"></path>
                    <rect id="Rectangle-7" fill-rule="evenodd" x="0" y="0" width="2.17948718" height="15"></rect>
                </g>
            </g>
            <g id="Group-3-Copy" transform="translate(726.000000, 179.250000)">
                <mask id="mask-2" fill="white">
                    <use xlink:href="#path-1"></use>
                </mask>
                <use id="Combined-Shape" fill="#000000" xlink:href="#path-1"></use>
            </g>
            <g id="Group-3-Copy" transform="translate(154.250000, 255.500000)">
                <mask id="mask-4" fill="white">
                    <use xlink:href="#path-3"></use>
                </mask>
                <use id="Combined-Shape" fill="#000000" xlink:href="#path-3"></use>
            </g>
            <g id="Group-3-Copy-2" transform="translate(610.750000, 171.000000)">
                <mask id="mask-6" fill="white">
                    <use xlink:href="#path-5"></use>
                </mask>
                <use id="Combined-Shape" fill="#000000" xlink:href="#path-5"></use>
            </g>
            <g id="Group-3-Copy-3" transform="translate(155.250000, 355.750000)">
                <mask id="mask-8" fill="white">
                    <use xlink:href="#path-7"></use>
                </mask>
                <use id="Combined-Shape" fill="#000000" xlink:href="#path-7"></use>
            </g>
            <g id="Group-3-Copy-4" transform="translate(753.250000, 122.000000)">
                <mask id="mask-10" fill="white">
                    <use xlink:href="#path-9"></use>
                </mask>
                <use id="Combined-Shape" fill="#000000" xlink:href="#path-9"></use>
            </g>
        </g>
    </g>
</svg>