<?xml version="1.0" encoding="utf-8"?>
<!-- Generator: Adobe Illustrator 22.1.0, SVG Export Plug-In . SVG Version: 6.00 Build 0)  -->
<svg version="1.1" id="Layer_1" xmlns="http://www.w3.org/2000/svg" xmlns:xlink="http://www.w3.org/1999/xlink" x="0px" y="0px"
	 viewBox="0 0 70 70" style="enable-background:new 0 0 70 70;" xml:space="preserve">
<style type="text/css">
	.st0{fill:#DBF8FF;}
	.st1{fill:#00A6CE;}
</style>
<title>Group 2</title>
<desc>Created with Sketch.</desc>
<g>
	<path class="st0" d="M35,46c10.5,0,19.8,4.9,25.9,12.6C66.5,52.3,70,44.1,70,35C70,15.7,54.3,0,35,0S0,15.7,0,35
		c0,9.1,3.5,17.3,9.1,23.6C15.2,50.9,24.5,46,35,46z M35.2,9c9,0,16.2,7.3,16.2,16.2s-7.3,16.2-16.2,16.2S19,34.2,19,25.2
		S26.3,9,35.2,9z"/>
	<g>
		<circle class="st1" cx="35.2" cy="25.2" r="16.2"/>
		<path class="st1" d="M35,46c-10.5,0-19.8,4.9-25.9,12.6C15.5,65.6,24.7,70,35,70s19.5-4.4,25.9-11.4C54.8,50.9,45.5,46,35,46z"/>
	</g>
</g>
</svg>
