<?xml version="1.0" encoding="utf-8"?>
<!-- Generator: Adobe Illustrator 22.1.0, SVG Export Plug-In . SVG Version: 6.00 Build 0)  -->
<svg version="1.1" id="Layer_1" xmlns="http://www.w3.org/2000/svg" xmlns:xlink="http://www.w3.org/1999/xlink" x="0px" y="0px"
	 viewBox="0 0 24 24" style="enable-background:new 0 0 24 24;" xml:space="preserve">
<style type="text/css">
	.st0{fill:#00A6CE;}
</style>
<title>elevator/dark</title>
<desc>Created with Sketch.</desc>
<g>
	<path class="st0" d="M7,8.3L6.9,8.2C6.8,8.1,6.7,8,6.7,7.9C6.2,7.6,5.6,7.7,5.3,8.2l-5.1,7.3C0.1,15.6,0,15.8,0,16c0,0.6,0.4,1,1,1
		h6h4.2c0.2,0,0.4-0.1,0.6-0.2c0.5-0.3,0.6-0.9,0.2-1.4L7,8.3z"/>
	<path class="st0" d="M23,7h-6h-4.2c-0.2,0-0.4,0.1-0.6,0.2c-0.5,0.3-0.6,0.9-0.2,1.4l5,7.1l0.1,0.1c0.1,0.1,0.2,0.2,0.2,0.2
		c0.5,0.3,1.1,0.2,1.4-0.2l5.1-7.3C23.9,8.4,24,8.2,24,8C24,7.4,23.6,7,23,7z"/>
</g>
</svg>
