<?xml version="1.0" encoding="utf-8"?>
<!-- Generator: Adobe Illustrator 22.1.0, SVG Export Plug-In . SVG Version: 6.00 Build 0)  -->
<svg version="1.1" id="Layer_1" xmlns="http://www.w3.org/2000/svg" xmlns:xlink="http://www.w3.org/1999/xlink" x="0px" y="0px"
	 viewBox="0 0 24 24" style="enable-background:new 0 0 24 24;" xml:space="preserve">
<style type="text/css">
	.st0{fill:#00A6CE;}
</style>
<title>relax room/ dark</title>
<desc>Created with Sketch.</desc>
<path class="st0" d="M23,8.3h-1V4.1C22,3.5,21.6,3,21,3H3C2.4,3,2,3.5,2,4.1v4.2H1c-0.6,0-1,0.5-1,1.1v6.4v1.1c0,0.6,0.4,1.1,1,1.1
	v2.1C1,20.5,1.4,21,2,21s1-0.5,1-1.1v-2.1h5h8h5v2.1c0,0.6,0.4,1.1,1,1.1s1-0.5,1-1.1v-2.1c0.6,0,1-0.5,1-1.1v-1.1V9.4
	C24,8.8,23.6,8.3,23,8.3z"/>
</svg>
